SplineFontDB: 3.0
FontName: Inconsolata-aw-italic
FullName: Inconsolata-aw-italic
FamilyName: Inconsolata-aw
Weight: Medium
Copyright: Created by Raph Levien using his own tools and FontForge. Copyright 2006 Raph Levien. Released under the SIL Open Font License, http://scripts.sil.org/OFL. Modified by maffi leonardo, Feb 13 2009. Modified again by Allen Wu, July 2014.
Version: 001.010
ItalicAngle: 0
UnderlinePosition: -100
UnderlineWidth: 50
Ascent: 820
Descent: 180
LayerCount: 2
Layer: 0 0 "Back"  1
Layer: 1 0 "Fore"  0
XUID: [1021 803 253296341 14691650]
FSType: 8
OS2Version: 3
OS2_WeightWidthSlopeOnly: 0
OS2_UseTypoMetrics: 1
CreationTime: 1161020814
ModificationTime: 1406452278
PfmFamily: 17
TTFWeight: 500
TTFWidth: 5
LineGap: 200
VLineGap: 0
Panose: 2 11 6 9 3 0 3 0 0 0
OS2TypoAscent: -85
OS2TypoAOffset: 1
OS2TypoDescent: 85
OS2TypoDOffset: 1
OS2TypoLinegap: 0
OS2WinAscent: -85
OS2WinAOffset: 1
OS2WinDescent: 85
OS2WinDOffset: 1
HheadAscent: -85
HheadAOffset: 1
HheadDescent: 85
HheadDOffset: 1
OS2SubXSize: 650
OS2SubYSize: 700
OS2SubXOff: 0
OS2SubYOff: 140
OS2SupXSize: 650
OS2SupYSize: 700
OS2SupXOff: 0
OS2SupYOff: 480
OS2StrikeYSize: 49
OS2StrikeYPos: 258
OS2Vendor: 'PfEd'
OS2CodePages: 00000013.00000000
OS2UnicodeRanges: 8000002f.0000016b.00000000.00000000
MarkAttachClasses: 1
DEI: 91125
LangName: 1033 
Encoding: UnicodeBmp
UnicodeInterp: none
NameList: Adobe Glyph List
DisplaySize: -24
AntiAlias: 1
FitToEm: 1
WinInfo: 64 16 14
BeginPrivate: 9
BlueValues 31 [-14 0 529 541 722 730 770 775]
OtherBlues 11 [-201 -193]
BlueScale 8 0.039625
BlueFuzz 1 1
StdHW 4 [74]
StdVW 4 [77]
StemSnapH 7 [71 74]
StemSnapV 7 [74 77]
ExpansionFactor 4 0.06
EndPrivate
TeXData: 1 0 0 629145 314572 209715 554699 1048576 209715 783286 444596 497025 792723 393216 433062 380633 303038 157286 324010 404750 52429 2506097 1059062 262144
BeginChars: 65544 294

StartChar: exclam
Encoding: 33 33 2
Width: 600
GlyphClass: 2
Flags: W
HStem: -13.0166 137.019<261.888 338.691> 754.001 20G<457.928 478.837>
VStem: 231.766 137.048<15.8524 95.1332> 310.943 58<225 248.609> 389.093 116.021<604.876 739.289>
LayerCount: 2
Fore
SplineSet
368.813476562 55.4912109375 m 0xe8
 360.088867188 17.7001953125 322.291015625 -13.0166015625 284.473632812 -13.0166015625 c 0
 246.666992188 -13.0166015625 223.037109375 17.6865234375 231.765625 55.4931640625 c 0
 240.491210938 93.2861328125 278.288085938 124.001953125 316.107421875 124.001953125 c 0
 353.912109375 124.001953125 377.541015625 93.296875 368.813476562 55.4912109375 c 0xe8
467.962890625 774.000976562 m 0
 489.711914062 774.000976562 510.72265625 759.407226562 511.56640625 724.3203125 c 0
 511.731445312 717.475585938 511.40234375 704.489257812 505.11328125 677.25 c 0
 494.892578125 632.978515625 476.901367188 589.116210938 463.821289062 545 c 2
 368.943359375 225 l 1
 310.943359375 225 l 1xd8
 367.821289062 545 l 2
 381.353515625 621.13671875 380.459960938 649.2734375 389.092773438 686.669921875 c 0
 394.104492188 708.377929688 400.293945312 724.01171875 408.568359375 736.817382812 c 0
 424.659179688 761.720703125 447.893554688 774.000976562 467.962890625 774.000976562 c 0
EndSplineSet
Validated: 524321
EndChar

StartChar: quotedbl
Encoding: 34 34 3
Width: 600
GlyphClass: 2
Flags: W
HStem: 492 280.143<357.135 369.228 559.135 571.228>
LayerCount: 2
Fore
SplineSet
618.993164062 706 m 2
 593.59765625 596 l 1
 571.227539062 492 l 1
 490.8671875 492 l 1
 499.130859375 542 502.41015625 542 512.314453125 592 c 1
 521.940429688 611.5 518.352539062 625.2578125 523.602539062 648 c 2
 536.993164062 706 l 2
 547.5625 751.782226562 579.455078125 772.142578125 597.77734375 772.142578125 c 0
 616.442382812 772.142578125 631.09765625 758.432617188 618.993164062 706 c 2
416.993164062 706 m 2
 391.59765625 596 l 1
 369.227539062 492 l 1
 288.8671875 492 l 1
 297.130859375 542 300.41015625 542 310.314453125 592 c 1
 319.940429688 611.5 316.352539062 625.2578125 321.602539062 648 c 2
 334.993164062 706 l 2
 345.5625 751.782226562 377.455078125 772.142578125 395.77734375 772.142578125 c 0
 414.442382812 772.142578125 429.09765625 758.432617188 416.993164062 706 c 2
EndSplineSet
Validated: 524321
EndChar

StartChar: numbersign
Encoding: 35 35 4
Width: 600
GlyphClass: 2
Flags: W
HStem: 218.999 53<106.796 202.567 289.968 399.974 489.512 571.923> 471.262 55.2773<180.206 290.017 378.691 487.208 578.06 664.663> 705.998 20G<377.918 441.569>
LayerCount: 2
Fore
SplineSet
377.91796875 723 m 1
 448.609375 725.998046875 l 1
 378.69140625 527.364257812 l 1
 506.69140625 528.889648438 l 1
 572.533203125 716.999023438 l 1
 645.225585938 719.999023438 l 1
 578.059570312 529.741210938 l 1
 683.591796875 530.999023438 l 1
 664.663085938 474.999023438 l 1
 558.359375 473.938476562 l 1
 489.51171875 278.9140625 l 1
 604.875 280.999023438 l 1
 586.408203125 226.999023438 l 1
 470.525390625 225.1328125 l 1
 396.694335938 15.9990234375 l 1
 325.771484375 11.9990234375 l 1
 399.973632812 223.997070312 l 1
 271.177734375 221.922851562 l 1
 198.693359375 15.9990234375 l 1
 130.000976562 12.9990234375 l 1
 202.567382812 220.819335938 l 1
 89.5595703125 218.999023438 l 1
 106.795898438 271.999023438 l 1
 221.16015625 274.065429688 l 1
 290.016601562 471.26171875 l 1
 163.5078125 470 l 1
 180.206054688 525 l 1
 309.318359375 526.5390625 l 1
 377.91796875 723 l 1
359.186523438 471.950195312 m 1
 289.967773438 275.30859375 l 1
 418.74609375 277.635742188 l 1
 487.208007812 473.228515625 l 1
 359.186523438 471.950195312 l 1
EndSplineSet
Validated: 524289
EndChar

StartChar: dollar
Encoding: 36 36 5
Width: 600
GlyphClass: 2
Flags: W
HStem: 16.6514 66.791<230.39 285.846> 534.002 21G<594.125 615.776> 618.619 65.9668<362.154 424.82 508.269 550.182>
LayerCount: 2
Fore
SplineSet
456.07421875 754 m 1
 531.076171875 754.001953125 l 1
 531.333984375 752.763671875 531.3046875 751.41796875 530.98828125 750.047851562 c 0
 529.006835938 741.463867188 521.104492188 741.129882812 518.53515625 730.001953125 c 2
 508.268554688 685.532226562 l 1
 575.143554688 678.6328125 629.005859375 647.799804688 659.830078125 597.001953125 c 1
 595.28515625 534.001953125 l 1
 592.963867188 534.649414062 590.350585938 536.861328125 591.13671875 542.033203125 c 0
 591.647460938 545.38671875 593.239257812 548.591796875 592.34375 552.133789062 c 0
 592.079101562 553.182617188 591.573242188 554.43359375 588.977539062 558.805664062 c 0
 571.639648438 588.016601562 540.936523438 609.607421875 492.486328125 617.169921875 c 1
 440.96484375 394.0078125 l 1
 465.143554688 385.213867188 489.545898438 376.233398438 511.168945312 365.90625 c 0
 533.151367188 355.408203125 615.770507812 316.114257812 591.342773438 210.306640625 c 0
 572.15625 127.201171875 489.495117188 35.896484375 354.338867188 18.7900390625 c 1
 337.534179688 -54 l 1
 269.534179688 -54 l 1
 285.845703125 16.6513671875 l 1
 207.127929688 21.638671875 142.825195312 53.0654296875 104.166015625 109.000976562 c 1
 170.095703125 178.000976562 l 1
 175.223632812 175.387695312 173.131835938 168.719726562 172.719726562 167.26953125 c 0
 171.27734375 162.202148438 169.951171875 159.078125 173.302734375 154.350585938 c 0
 197.842773438 119.732421875 241.909179688 90.2109375 301.265625 83.4423828125 c 1
 360.067382812 338.141601562 l 1
 340.549804688 345.221679688 320.83984375 353.278320312 302.258789062 363.137695312 c 0
 215.475585938 409.184570312 211.373046875 474.448242188 221.115234375 516.64453125 c 0
 240.373046875 600.059570312 330.077148438 670.81640625 440.048828125 684.5859375 c 1
 456.07421875 754 l 1
423.151367188 316.850585938 m 1
 369.821289062 85.8447265625 l 1
 447.458007812 100.223632812 502.3515625 152.561523438 514.435546875 204.904296875 c 0
 519.928710938 228.696289062 519.947265625 267.248046875 477.408203125 293.706054688 c 0
 463.493164062 302.361328125 444.587890625 309.564453125 423.151367188 316.850585938 c 1
378.52734375 418.09765625 m 1
 424.8203125 618.619140625 l 1
 349.983398438 610.103515625 309.236328125 566.6796875 299.987304688 526.616210938 c 0
 294.150390625 501.336914062 298.076171875 466.610351562 342.356445312 437.197265625 c 0
 352.747070312 430.294921875 365.055664062 424.025390625 378.52734375 418.09765625 c 1
EndSplineSet
Validated: 524321
EndChar

StartChar: percent
Encoding: 37 37 6
Width: 600
GlyphClass: 2
Flags: W
HStem: -12.123 58.8945<414.414 496.558> 0 21G<63 152.808> 229.006 59.9961<446.435 528.623> 431.982 61.9297<250.361 331.496> 674.006 61.1006<280.46 360.885> 702 20G<613.989 707.687>
LayerCount: 2
Fore
SplineSet
629.686523438 722 m 1x74
 707.686523438 722 l 1
 137 0 l 1
 63 0 l 1
 629.686523438 722 l 1x74
341.616210938 735.106445312 m 0x38
 412.1875 735.106445312 456.96875 670.55078125 436.568359375 582.188476562 c 0
 416.69921875 496.123046875 343.258789062 431.982421875 272.682617188 431.982421875 c 0
 201.571289062 431.982421875 157.572265625 496.911132812 177.55078125 583.448242188 c 0
 198.116210938 672.526367188 272.754882812 735.106445312 341.616210938 735.106445312 c 0x38
325.936523438 674.005859375 m 0
 303.086914062 674.005859375 264.45703125 656.125 248.59765625 587.430664062 c 0
 230.48046875 508.954101562 265.291015625 493.912109375 286.177734375 493.912109375 c 0
 309.23046875 493.912109375 347.329101562 512.142578125 362.798828125 579.149414062 c 0
 381.849609375 661.66796875 344.704101562 674.005859375 325.936523438 674.005859375 c 0
601.014648438 138.59375 m 0
 580.96484375 51.74609375 507.184570312 -12.123046875 436.896484375 -12.123046875 c 0xb0
 366.25 -12.123046875 321.99609375 52.0537109375 341.899414062 138.262695312 c 0
 361.9453125 225.08984375 435.940429688 289.001953125 506.310546875 289.001953125 c 0
 576.848632812 289.001953125 620.93359375 224.872070312 601.014648438 138.59375 c 0
492.190429688 229.005859375 m 0
 467.307617188 229.005859375 427.232421875 208.942382812 410.932617188 138.341796875 c 0
 395.129882812 69.892578125 423.947265625 46.771484375 451.102539062 46.771484375 c 0
 475.912109375 46.771484375 515.4296875 66.7958984375 531.384765625 135.904296875 c 0
 548.567382812 210.331054688 516.02734375 229.005859375 492.190429688 229.005859375 c 0
EndSplineSet
Validated: 524321
EndChar

StartChar: ampersand
Encoding: 38 38 7
Width: 600
GlyphClass: 2
Flags: W
HStem: -12.0293 74.8574<201.397 329.643> 660.404 68.709<369.62 472.073>
LayerCount: 2
Fore
SplineSet
443.547851562 729.11328125 m 0
 530.418945312 729.11328125 583.365234375 664.094726562 562.759765625 574.84375 c 0
 545.259765625 499.04296875 478.31640625 423.323242188 393.190429688 382.001953125 c 1
 481.403320312 201.001953125 l 1
 516.30859375 232.965820312 539.952148438 266.739257812 554.92578125 294.095703125 c 0
 556.427734375 296.841796875 557.822265625 299.923828125 558.564453125 303.140625 c 0
 559.619140625 307.708984375 559.05859375 312.212890625 560.150390625 316.940429688 c 0
 561.45703125 322.598632812 564.63671875 326.513671875 567.955078125 329.002929688 c 1
 630.950195312 277.002929688 l 1
 594.01953125 230.063476562 554.2109375 184.94921875 511.784179688 142.001953125 c 1
 568.54296875 37.001953125 l 1
 488.768554688 -13.998046875 l 1
 448.31640625 88.001953125 l 1
 389.161132812 30.9921875 307.872070312 -12.029296875 229.840820312 -12.029296875 c 0
 125.55859375 -12.029296875 67.03125 66.275390625 90.84765625 169.43359375 c 0
 111.463867188 258.732421875 189.372070312 348.314453125 289.654296875 397.000976562 c 1
 258.741210938 448.798828125 234.528320312 513.45703125 249.217773438 577.0859375 c 0
 269.182617188 663.563476562 355.44140625 729.11328125 443.547851562 729.11328125 c 0
328.787109375 575.614257812 m 0
 321.751953125 545.142578125 324.842773438 503.948242188 365.732421875 432.001953125 c 1
 426.349609375 461.716796875 473.409179688 516.514648438 485.596679688 569.306640625 c 0
 498.266601562 624.185546875 468.90234375 660.404296875 426.198242188 660.404296875 c 0
 385.111328125 660.404296875 340.518554688 626.4296875 328.787109375 575.614257812 c 0
317.185546875 343.001953125 m 1
 246.400390625 303.102539062 194.180664062 237.44921875 180.329101562 177.451171875 c 0
 164.791992188 110.153320312 200.521484375 62.828125 259.67578125 62.828125 c 0
 336.908203125 62.828125 419.01171875 143.001953125 419.01171875 143.001953125 c 1
 317.185546875 343.001953125 l 1
EndSplineSet
Validated: 524321
EndChar

StartChar: quotesingle
Encoding: 39 39 8
Width: 600
GlyphClass: 2
Flags: W
HStem: 468.643 305.357<467.547 501.013>
LayerCount: 2
Fore
SplineSet
552.55078125 701.904296875 m 6
 524.869140625 582.002929688 l 5
 501.012695312 468.642578125 l 5
 387.578125 468.642578125 l 5
 395.530273438 523.142578125 400.16015625 523.142578125 410.427734375 577.642578125 c 5
 422.569335938 598.897460938 416.481445312 613.893554688 422.204101562 638.682617188 c 6
 436.799804688 701.903320312 l 6
 448.321289062 751.805664062 491.830078125 774 517.692382812 774 c 4
 544.040039062 774 565.745117188 759.055664062 552.55078125 701.904296875 c 6
EndSplineSet
Validated: 524321
EndChar

StartChar: parenleft
Encoding: 40 40 9
Width: 600
GlyphClass: 2
Flags: W
HStem: -199.999 21G<338.175 435.903> 752 20G<543.464 647.472>
LayerCount: 2
Fore
SplineSet
642.23046875 772 m 1
 660.837890625 701.000976562 l 1
 656.395507812 698.763671875 652.615234375 698.611328125 650.955078125 698.611328125 c 0
 646.359375 698.611328125 642.987304688 699.932617188 638.9140625 699.932617188 c 0
 634.30859375 699.932617188 631.10546875 698.140625 627.590820312 696.315429688 c 0
 473.774414062 616.467773438 359.516601562 468.859375 321.3046875 303.345703125 c 0
 279.741210938 123.314453125 333.787109375 -46.9677734375 470.909179688 -138.999023438 c 1
 418.826171875 -199.999023438 l 1
 257.524414062 -103.657226562 191.225585938 88.9931640625 239.81640625 299.462890625 c 0
 288.784179688 511.567382812 444.697265625 693.118164062 642.23046875 772 c 1
EndSplineSet
Validated: 524321
EndChar

StartChar: parenright
Encoding: 41 41 10
Width: 600
GlyphClass: 2
Flags: W
HStem: -201.999 21G<67.6977 176.026> 751.001 20G<289.272 384.132>
LayerCount: 2
Fore
SplineSet
261.376953125 699 m 1
 300.000976562 771.000976562 l 1
 468.262695312 684.352539062 546.658203125 496.633789062 499.01953125 290.290039062 c 0
 450.95703125 82.10546875 282.686523438 -110.3828125 69.3662109375 -201.999023438 c 1
 63.5263671875 -131.999023438 l 1
 239.255859375 -49.1162109375 376.0234375 112.59765625 416.282226562 286.978515625 c 0
 455.986328125 458.955078125 395.731445312 617.580078125 261.376953125 699 c 1
EndSplineSet
Validated: 524321
EndChar

StartChar: asterisk
Encoding: 42 42 11
Width: 600
GlyphClass: 2
Flags: W
VStem: 395.752 94<552.071 601>
LayerCount: 2
Fore
SplineSet
395.751953125 601 m 1
 489.751953125 601 l 1
 484.60546875 587.216796875 480.411132812 584.40625 475.594726562 570 c 2
 417.423828125 396 l 1
 620.81640625 480 l 1
 635.424804688 409 l 1
 422.573242188 349 l 1
 528.170898438 174 l 1
 453.627929688 124 l 1
 372.954101562 316 l 1
 198.396484375 123 l 1
 147.170898438 174 l 1
 338.341796875 348 l 1
 152.424804688 409 l 1
 199.740234375 484 l 1
 366.423828125 396 l 1
 395.751953125 601 l 1
EndSplineSet
Validated: 524289
EndChar

StartChar: plus
Encoding: 43 43 12
Width: 600
GlyphClass: 2
Flags: W
HStem: 337 71<156.194 344.803 434.194 615.803>
LayerCount: 2
Fore
SplineSet
406.90625 606 m 1
 479.90625 606 l 1
 434.194335938 408 l 1
 632.194335938 408 l 1
 615.802734375 337 l 1
 417.802734375 337 l 1
 367.704101562 120 l 1
 294.704101562 120 l 1
 344.802734375 337 l 1
 139.802734375 337 l 1
 156.194335938 408 l 1
 361.194335938 408 l 1
 406.90625 606 l 1
EndSplineSet
Validated: 524289
EndChar

StartChar: comma
Encoding: 44 44 13
Width: 600
GlyphClass: 2
Flags: W
HStem: -195.003 21G<177.742 245.794>
LayerCount: 2
Fore
SplineSet
369.423828125 22.8349609375 m 0
 355.49609375 -37.494140625 295.606445312 -113.059570312 195.982421875 -195.002929688 c 1
 164.0625 -160.002929688 l 1
 197.377929688 -134.728515625 223.358398438 -106.53125 238.970703125 -87.935546875 c 0
 246.775390625 -78.640625 262.846679688 -58.8359375 267.2734375 -39.66015625 c 0
 272.78125 -15.8046875 249.80859375 -5.0673828125 240 0 c 0
 216.770507812 12 202.966796875 38.8408203125 210.161132812 70 c 0
 218.471679688 106 270.629882812 150 315.70703125 146 c 0
 355.942382812 142.4296875 383.114257812 82.1328125 369.423828125 22.8349609375 c 0
EndSplineSet
Validated: 524321
EndChar

StartChar: hyphen
Encoding: 45 45 14
Width: 600
GlyphClass: 2
Flags: W
HStem: 304 77<178.961 578.184>
LayerCount: 2
Fore
SplineSet
178.9609375 381 m 5
 595.9609375 381 l 5
 578.18359375 304 l 5
 161.18359375 304 l 5
 178.9609375 381 l 5
EndSplineSet
Validated: 524289
EndChar

StartChar: period
Encoding: 46 46 15
Width: 600
GlyphClass: 2
Flags: W
HStem: -13.6484 163.648<275.69 355.809>
VStem: 235.592 160.343<25.9 110.469>
LayerCount: 2
Fore
SplineSet
395.934570312 68.1943359375 m 4
 385.57421875 23.318359375 341.415039062 -13.6484375 296.825195312 -13.6484375 c 4
 252.333007812 -13.6484375 225.21875 23.2841796875 235.591796875 68.2138671875 c 4
 245.943359375 113.052734375 290.077148438 150 334.629882812 150 c 4
 379.19921875 150 406.291015625 113.049804688 395.934570312 68.1943359375 c 4
EndSplineSet
Validated: 524321
EndChar

StartChar: slash
Encoding: 47 47 16
Width: 600
GlyphClass: 2
Flags: W
HStem: 750 20G<610.903 659.58>
LayerCount: 2
Fore
SplineSet
80.537109375 -15 m 1
 624.768554688 770 l 1
 685.688476562 735 l 1
 140.6875 -49 l 1
 80.537109375 -15 l 1
EndSplineSet
Validated: 524289
EndChar

StartChar: zero
Encoding: 48 48 17
Width: 600
GlyphClass: 2
Flags: W
HStem: -13.0215 73.9062<267.259 384.404> 656 71<389.384 504.734>
LayerCount: 2
Fore
SplineSet
469.08984375 727 m 0
 580.186523438 727 668.423828125 595.21875 611.53125 348.788085938 c 0
 554.25390625 100.694335938 404.305664062 -13.021484375 299.518554688 -13.021484375 c 0
 185.3515625 -13.021484375 96.0791015625 121.658203125 150.001953125 355.221679688 c 0
 203.346679688 586.28515625 354.505859375 727 469.08984375 727 c 0
543.805664062 561.958007812 m 1
 527.544921875 625.6953125 491.106445312 656 451.606445312 656 c 0
 380.046875 656 271.703125 554.03125 229.057617188 369.310546875 c 0
 217.272460938 318.266601562 212.637695312 272.505859375 213.663085938 232.841796875 c 1
 543.805664062 561.958007812 l 1
552.724609375 484.525390625 m 1
 223.456054688 159.413085938 l 1
 240.212890625 96.083984375 276.500976562 60.884765625 319.383789062 60.884765625 c 0
 383.08984375 60.884765625 487.869140625 137.611328125 534.450195312 339.375976562 c 0
 547.4140625 395.528320312 552.920898438 443.8046875 552.724609375 484.525390625 c 1
EndSplineSet
Validated: 524321
EndChar

StartChar: one
Encoding: 49 49 18
Width: 600
GlyphClass: 2
Flags: W
HStem: 0 21G<304 397.617> 704 20G<452.511 560.148>
VStem: 268.293 291.855
LayerCount: 2
Fore
SplineSet
560.1484375 724 m 5
 393 0 l 5
 304 0 l 5
 447.831054688 623 l 5
 278.903320312 580 l 5
 268.29296875 625 l 5
 499.1484375 724 l 5
 560.1484375 724 l 5
EndSplineSet
Validated: 524289
EndChar

StartChar: two
Encoding: 50 50 19
Width: 600
GlyphClass: 2
Flags: W
HStem: 0 71<185.392 533> 655 72<351.463 513.633>
LayerCount: 2
Fore
SplineSet
212.830078125 610 m 1
 276.682617188 683 371.840820312 727 462.840820312 727 c 0
 591.840820312 727 672.063476562 637 645.974609375 524 c 0
 621.96484375 420 522.880859375 346 453.567382812 297 c 0
 385.254882812 248 275.6328125 176 185.391601562 71 c 1
 518.391601562 71 l 2
 524.391601562 71 527.622070312 72 533.545898438 76 c 0
 537.0078125 78 544.162109375 83 551.700195312 81 c 1
 533 0 l 1
 67 0 l 1
 78.7744140625 51 l 1
 173.478515625 171 263.5625 245 371.877929688 320 c 0
 439.728515625 367 536.2734375 430 556.58984375 518 c 0
 574.59765625 596 520.21875 655 435.21875 655 c 0
 366.21875 655 309.21484375 616 284.211914062 590 c 0
 275.903320312 580 277.287109375 573 266.978515625 563 c 1
 212.830078125 610 l 1
EndSplineSet
Validated: 524321
EndChar

StartChar: three
Encoding: 51 51 20
Width: 600
GlyphClass: 2
Flags: W
HStem: -12 73<214.848 382.282> 346 62<308.194 435.969> 652 72<346.225 513.455>
LayerCount: 2
Fore
SplineSet
633.899414062 541 m 0
 617.739257812 471 555.424804688 409 478.883789062 385 c 1
 555.650390625 358 592.797851562 285 572.942382812 199 c 0
 546.854492188 86 431.229492188 -12 279.229492188 -12 c 0
 200.229492188 -12 130.694335938 16 89.1611328125 70 c 1
 173.013671875 143 l 1
 182.474609375 132 173.934570312 121 182.395507812 110 c 0
 187.010742188 104 221.083007812 61 295.083007812 61 c 0
 388.083007812 61 470.782226562 129 489.020507812 208 c 0
 509.106445312 295 441.880859375 346 334.880859375 346 c 0
 320.880859375 346 307.649414062 345 293.1875 343 c 1
 308.194335938 408 l 1
 384.194335938 408 423.1953125 421 438.349609375 426 c 0
 498.428710938 448 538.510742188 496 548.668945312 540 c 0
 562.751953125 601 518.526367188 652 436.526367188 652 c 0
 387.526367188 652 332.139648438 633 286.828125 597 c 1
 249.372070312 647 l 1
 310.915039062 697 386.1484375 724 458.1484375 724 c 0
 583.1484375 724 656.755859375 640 633.899414062 541 c 0
EndSplineSet
Validated: 524321
EndChar

StartChar: four
Encoding: 52 52 21
Width: 600
GlyphClass: 2
Flags: W
HStem: 0 21G<363 459.617> 200 71<193.565 409.174 517.565 602.942> 703 20G<527.743 621.918>
LayerCount: 2
Fore
SplineSet
546.91796875 723 m 1
 621.91796875 723 l 1
 517.565429688 271 l 1
 619.565429688 271 l 1
 602.942382812 199 l 1
 500.942382812 199 l 1
 455 0 l 1
 363 0 l 1
 409.173828125 200 l 1
 89.173828125 200 l 1
 103.025390625 260 l 1
 546.91796875 723 l 1
501.135742188 594 m 1
 193.565429688 271 l 1
 426.565429688 271 l 1
 501.135742188 594 l 1
EndSplineSet
Validated: 524289
EndChar

StartChar: five
Encoding: 53 53 22
Width: 600
GlyphClass: 2
Flags: W
HStem: -13 71<221.543 390.545> 402 67<292.269 458.917> 649 73<335.833 662.833>
LayerCount: 2
Fore
SplineSet
277.686523438 722 m 1
 679.686523438 722 l 1
 662.833007812 649 l 1
 335.833007812 649 l 1
 274.8125 441 l 1
 321.19921875 460 367.27734375 469 411.27734375 469 c 0
 544.27734375 469 631.422851562 383 595.637695312 228 c 0
 559.622070312 72 426.999023438 -13 288.999023438 -13 c 0
 194.999023438 -13 116.233398438 27 79.625 98 c 1
 171.091796875 152 l 1
 180.475585938 145 170.936523438 134 174.858398438 125 c 0
 177.01171875 117 218.390625 58 304.390625 58 c 0
 389.390625 58 479.473632812 119 505.099609375 230 c 0
 531.649414062 345 465.80859375 402 381.80859375 402 c 0
 327.80859375 402 266.268554688 378 217.110351562 334 c 1
 164.958007812 355 l 1
 277.686523438 722 l 1
EndSplineSet
Validated: 524321
EndChar

StartChar: six
Encoding: 54 54 23
Width: 600
GlyphClass: 2
Flags: W
HStem: -12 72<262.278 403.263> 395 71<328.661 468.497> 658 72<409.484 570.547>
LayerCount: 2
Fore
SplineSet
512.034179688 730 m 0
 576.034179688 730 633.493164062 706 670.796875 664 c 1
 594.482421875 602 l 1
 584.330078125 610 587.869140625 621 581.485351562 628 c 0
 577.639648438 633 548.411132812 658 495.411132812 658 c 0
 438.411132812 658 300.0234375 626 237.999023438 379 c 1
 286.465820312 433 357.084960938 466 427.084960938 466 c 0
 539.084960938 466 625.229492188 380 590.599609375 230 c 0
 556.200195312 81 428.729492188 -12 307.729492188 -12 c 0
 236.729492188 -12 174.1171875 20 141.892578125 84 c 0
 107.053710938 154 118.83203125 244 138.456054688 329 c 0
 154.385742188 398 181.778320312 482 223.708007812 551 c 0
 301.797851562 677 417.034179688 730 512.034179688 730 c 0
401.693359375 395 m 0
 342.693359375 395 273.919921875 357 224.298828125 298 c 1
 182.131835938 163 231.352539062 60 328.352539062 60 c 0
 395.352539062 60 476.587890625 113 502.4453125 225 c 0
 531.303710938 350 465.693359375 395 401.693359375 395 c 0
EndSplineSet
Validated: 524321
EndChar

StartChar: seven
Encoding: 55 55 24
Width: 600
GlyphClass: 2
Flags: W
HStem: 0 21G<147.5 280.16> 645 77<242.187 563.41>
LayerCount: 2
Fore
SplineSet
242.186523438 722 m 1
 691.186523438 722 l 1
 680.797851562 677 l 1
 601.940429688 565 524.852539062 452 452.533203125 338 c 0
 380.67578125 226 312.819335938 114 247.5 0 c 1
 147.5 0 l 1
 224.512695312 130 305.294921875 259 388.615234375 386 c 0
 445.700195312 473 503.555664062 559 563.41015625 645 c 1
 224.41015625 645 l 1
 242.186523438 722 l 1
EndSplineSet
Validated: 524289
EndChar

StartChar: eight
Encoding: 56 56 25
Width: 600
GlyphClass: 2
Flags: W
HStem: -12 73<239.584 404.192> 663 68<374.667 525.917>
LayerCount: 2
Fore
SplineSet
478.264648438 731 m 0
 595.264648438 731 667.71875 655 645.786132812 560 c 0
 629.856445312 491 564.157226562 423 478.615234375 386 c 1
 559.841796875 348 605.065429688 271 585.44140625 186 c 0
 560.045898438 76 434.729492188 -12 295.729492188 -12 c 0
 158.729492188 -12 74.583984375 74 99.517578125 182 c 0
 118.6796875 265 200.918945312 344 304.153320312 384 c 1
 240.772460938 417 205.778320312 482 222.169921875 553 c 0
 244.564453125 650 357.264648438 731 478.264648438 731 c 0
363.53515625 351 m 1
 281.83984375 322 208.756835938 261 192.827148438 192 c 0
 176.204101562 120 230.583007812 61 316.583007812 61 c 0
 401.583007812 61 479.7421875 118 495.671875 187 c 0
 512.064453125 258 459.83984375 322 363.53515625 351 c 1
455.565429688 663 m 0
 386.565429688 663 322.9453125 617 309.786132812 560 c 0
 287.853515625 465 416.310546875 415 416.310546875 415 c 1
 485.236328125 445 544.703125 499 557.631835938 555 c 0
 571.484375 615 526.565429688 663 455.565429688 663 c 0
EndSplineSet
Validated: 524321
EndChar

StartChar: nine
Encoding: 57 57 26
Width: 600
GlyphClass: 2
Flags: W
HStem: -12 74<189.107 360.35> 262 71<300.865 443.12> 657 72<367.73 507.079>
LayerCount: 2
Fore
SplineSet
252.229492188 -12 m 0
 186.229492188 -12 128.770507812 12 91.466796875 54 c 1
 167.780273438 116 l 1
 178.93359375 108 173.163085938 96 181.31640625 88 c 0
 182.31640625 88 214.313476562 62 271.313476562 62 c 0
 328.313476562 62 400.31640625 88 451.169921875 161 c 0
 463.325195312 179 495.637695312 228 524.495117188 340 c 1
 476.182617188 291 408.487304688 262 343.487304688 262 c 0
 227.487304688 262 146.03515625 351 178.125 490 c 0
 210.447265625 630 336.302734375 729 460.302734375 729 c 0
 543.302734375 729 623.682617188 683 640.056640625 572 c 0
 646.744140625 523 641.430664062 461 620.420898438 370 c 0
 593.178710938 252 558.633789062 189 537.015625 156 c 0
 462.465820312 41 348.229492188 -12 252.229492188 -12 c 0
367.87890625 333 m 0
 424.87890625 333 491.728515625 367 539.1953125 421 c 1
 586.90234375 567 531.680664062 657 441.680664062 657 c 0
 369.680664062 657 289.059570312 598 264.818359375 493 c 0
 240.115234375 386 296.87890625 333 367.87890625 333 c 0
EndSplineSet
Validated: 524321
EndChar

StartChar: colon
Encoding: 58 58 27
Width: 600
GlyphClass: 2
Flags: W
HStem: -13.0459 133.048<259.306 338.325> 356.954 133.048<344.727 423.746>
VStem: 230.306 222.468
LayerCount: 2
Fore
SplineSet
452.7734375 423.493164062 m 0
 444.349609375 387.008789062 406.9609375 356.954101562 368.850585938 356.954101562 c 0
 330.82421875 356.954101562 307.29296875 386.98046875 315.7265625 423.508789062 c 0
 324.142578125 459.962890625 361.508789062 490.001953125 399.587890625 490.001953125 c 0
 437.681640625 490.001953125 461.192382812 459.9609375 452.7734375 423.493164062 c 0
367.3515625 53.4931640625 m 0
 358.928710938 17.0087890625 321.540039062 -13.0458984375 283.428710938 -13.0458984375 c 0
 245.403320312 -13.0458984375 221.872070312 16.98046875 230.305664062 53.5087890625 c 0
 238.721679688 89.962890625 276.087890625 120.001953125 314.166992188 120.001953125 c 0
 352.260742188 120.001953125 375.771484375 89.9609375 367.3515625 53.4931640625 c 0
EndSplineSet
Validated: 524321
EndChar

StartChar: semicolon
Encoding: 59 59 28
Width: 600
GlyphClass: 2
Flags: W
HStem: -195 21G<177.741 245.792> 356.954 133.048<344.727 423.746>
VStem: 164.062 288.712
LayerCount: 2
Fore
SplineSet
369.423828125 22.8349609375 m 0
 355.49609375 -37.494140625 295.604492188 -113.056640625 195.98046875 -195 c 1
 164.061523438 -160 l 1
 197.376953125 -134.725585938 223.356445312 -106.529296875 238.96875 -87.93359375 c 0
 246.7734375 -78.6376953125 262.84375 -58.833984375 267.271484375 -39.658203125 c 0
 272.778320312 -15.802734375 258.166015625 -5.1328125 249.64453125 1.5625 c 0
 240.979492188 8.37109375 221.981445312 21.6943359375 229.174804688 52.8525390625 c 0
 237.254882812 87.849609375 272.993164062 118.9296875 311.12890625 118.9296875 c 0
 352.34375 118.9296875 383.114257812 82.1328125 369.423828125 22.8349609375 c 0
452.7734375 423.493164062 m 0
 444.349609375 387.008789062 406.9609375 356.954101562 368.850585938 356.954101562 c 0
 330.82421875 356.954101562 307.29296875 386.98046875 315.7265625 423.508789062 c 0
 324.142578125 459.962890625 361.508789062 490.001953125 399.587890625 490.001953125 c 0
 437.681640625 490.001953125 461.192382812 459.9609375 452.7734375 423.493164062 c 0
EndSplineSet
Validated: 524321
EndChar

StartChar: less
Encoding: 60 60 29
Width: 600
GlyphClass: 2
Flags: W
LayerCount: 2
Fore
SplineSet
673.749023438 575 m 1
 692.680664062 657 l 1
 142.116210938 399 l 1
 129.1875 343 l 1
 556.697265625 55 l 1
 576.783203125 142 l 1
 224.420898438 370 l 1
 673.749023438 575 l 1
EndSplineSet
Validated: 524297
EndChar

StartChar: equal
Encoding: 61 61 30
Width: 600
GlyphClass: 2
Flags: W
HStem: 197 71<123.873 583.481> 437 71<179.281 638.89>
LayerCount: 2
Fore
SplineSet
179.28125 508 m 1
 655.28125 508 l 1
 638.889648438 437 l 1
 162.889648438 437 l 1
 179.28125 508 l 1
123.873046875 268 m 1
 599.873046875 268 l 1
 583.481445312 197 l 1
 107.481445312 197 l 1
 123.873046875 268 l 1
EndSplineSet
Validated: 524289
EndChar

StartChar: greater
Encoding: 62 62 31
Width: 600
GlyphClass: 2
Flags: W
LayerCount: 2
Fore
SplineSet
191.749023438 575 m 1
 210.680664062 657 l 1
 642.116210938 399 l 1
 629.1875 343 l 1
 68.697265625 55 l 1
 88.783203125 142 l 1
 546.420898438 370 l 1
 191.749023438 575 l 1
EndSplineSet
Validated: 524289
EndChar

StartChar: question
Encoding: 63 63 32
Width: 600
GlyphClass: 2
Flags: W
HStem: -15.0459 133.048<284.844 363.863> 695.153 75.9072<378.265 525.028>
VStem: 255.844 137.047<13.0895 89.8794>
LayerCount: 2
Fore
SplineSet
392.890625 51.4931640625 m 0
 384.466796875 15.0087890625 347.079101562 -15.0458984375 308.967773438 -15.0458984375 c 0
 270.94140625 -15.0458984375 247.41015625 14.98046875 255.84375 51.5087890625 c 0
 264.259765625 87.962890625 301.625976562 118.001953125 339.705078125 118.001953125 c 0
 377.798828125 118.001953125 401.309570312 87.9609375 392.890625 51.4931640625 c 0
234.065429688 650 m 1
 302.426757812 727.69140625 398.65234375 771.060546875 485.416015625 771.060546875 c 0
 616.713867188 771.060546875 668.9921875 674.633789062 644.060546875 566.639648438 c 0
 618.922851562 457.756835938 532.149414062 413.666992188 486.060546875 379.676757812 c 0
 428.557617188 337.26953125 417.916015625 302.8359375 408.48828125 262.000976562 c 2
 397.407226562 214.000976562 l 1
 321.407226562 214.000976562 l 1
 332.48828125 262.000976562 l 2
 344.497070312 314.014648438 357.174804688 354.806640625 421.33984375 411.013671875 c 0
 465.241210938 449.46875 536.271484375 496.796875 553.797851562 572.709960938 c 0
 569.60546875 641.182617188 529.4375 695.153320312 460.124023438 695.153320312 c 0
 401.536132812 695.153320312 331.018554688 656.112304688 280.3671875 595 c 1
 234.065429688 650 l 1
EndSplineSet
Validated: 524321
EndChar

StartChar: at
Encoding: 64 64 33
Width: 600
GlyphClass: 2
Flags: W
HStem: -13.0049 65.9365<283.253 465.629> 192.941 64.0225<381.322 490.916> 456.998 58.002<440.696 584.506> 671.015 61.9854<391.944 549.133>
LayerCount: 2
Fore
SplineSet
522.080078125 35 m 1
 466.3046875 3.642578125 406.090820312 -13.0048828125 348.677734375 -13.0048828125 c 0
 204.204101562 -13.0048828125 67.853515625 94.75 129.94921875 363.716796875 c 0
 190.630859375 626.55859375 367.1640625 733 493.673828125 733 c 0
 577.6796875 733 644.374023438 686.98046875 662.638671875 604.767578125 c 0
 675.017578125 549.0390625 662.868164062 493.21875 650.120117188 438.000976562 c 2
 595.866210938 203.000976562 l 1
 525.866210938 203.000976562 l 1
 536.024414062 247.000976562 l 1
 499.419921875 212.735351562 452.458007812 192.94140625 407.794921875 192.94140625 c 0
 324.838867188 192.94140625 272.733398438 260.163085938 292.081054688 343.965820312 c 0
 306.502929688 406.432617188 359.045898438 468.115234375 437.4375 496.58203125 c 0
 487.375 514.715820312 533.64453125 515 577.897460938 515 c 2
 594.897460938 515 l 1
 614.62890625 600.733398438 562.620117188 671.014648438 476.013671875 671.014648438 c 0
 375.626953125 671.014648438 245.88671875 575.649414062 197.772460938 367.243164062 c 0
 145.591796875 141.220703125 258.44921875 52.931640625 370.708984375 52.931640625 c 0
 415.0625 52.931640625 461.482421875 66.181640625 504.008789062 91 c 1
 522.080078125 35 l 1
584.505859375 456.999023438 m 1
 565.50390625 456.998046875 l 2
 524.063476562 456.998046875 475.3125 456.606445312 430.0234375 429.76953125 c 0
 393.874023438 408.350585938 371.96484375 377.012695312 365.12109375 347.369140625 c 0
 353.546875 297.232421875 385.063476562 256.963867188 435.921875 256.963867188 c 0
 469.379882812 256.963867188 507.532226562 274.840820312 533.50390625 309.6796875 c 0
 559.69140625 344.807617188 568.821289062 389.065429688 579.426757812 434.999023438 c 2
 584.505859375 456.999023438 l 1
EndSplineSet
Validated: 524321
EndChar

StartChar: A
Encoding: 65 65 34
Width: 600
GlyphClass: 2
Flags: W
HStem: 0 20G<26.7695 117.991 483.034 570> 211 63<256.258 451.258>
LayerCount: 2
Fore
SplineSet
26.76953125 -1 m 1
 451.688476562 735 l 1
 460.688476562 735 l 1
 570 0 l 1
 486 0 l 1
 454.712890625 211 l 1
 225.712890625 211 l 1
 106.76953125 -1 l 1
 26.76953125 -1 l 1
451.2578125 274 m 1
 412.747070312 549 l 1
 256.2578125 274 l 1
 451.2578125 274 l 1
EndSplineSet
Validated: 524289
EndChar

StartChar: B
Encoding: 66 66 35
Width: 600
GlyphClass: 2
Flags: W
HStem: 0 70.999<162.394 410.986> 354.999 68<243.658 456.55> 652.999 69.001<296.758 518.527>
LayerCount: 2
Fore
SplineSet
232.686523438 722 m 1
 437.6875 721.999023438 l 2
 482.086914062 721.999023438 527.276367188 721.499023438 567.916015625 701.85546875 c 0
 628.950195312 672.353515625 651.943359375 610.489257812 636.96484375 545.609375 c 0
 620.984375 476.390625 564.237304688 413.432617188 493.346679688 387 c 1
 567.946289062 359.735351562 604.684570312 283.98046875 585.274414062 199.903320312 c 0
 568.094726562 125.489257812 509.060546875 54.7900390625 423.73828125 21.7724609375 c 0
 368.94921875 0.5703125 319.110351562 0 270 0 c 2
 66 0 l 1
 232.686523438 722 l 1
296.7578125 652.999023438 m 1
 243.658203125 422.999023438 l 1
 356.658203125 422.999023438 l 2
 388.802734375 422.999023438 423.415039062 423.130859375 459.971679688 437.513671875 c 0
 509.975585938 457.188476562 543.89453125 496.92578125 553.409179688 538.13671875 c 0
 563 579.682617188 547.073242188 620.584960938 503.662109375 639.923828125 c 0
 474.564453125 652.885742188 441.591796875 652.999023438 410.7578125 652.999023438 c 2
 296.7578125 652.999023438 l 1
227.958984375 354.999023438 m 1
 162.393554688 70.9990234375 l 1
 300.393554688 70.9990234375 l 2
 331.59765625 70.9990234375 362.323242188 71.5458984375 396.747070312 85.595703125 c 0
 451.829101562 108.077148438 490.451171875 156.377929688 502.37109375 208.008789062 c 0
 514.42578125 260.225585938 497.903320312 311.752929688 450.182617188 337.188476562 c 0
 418.09375 354.294921875 382.431640625 354.999023438 345.958984375 354.999023438 c 2
 227.958984375 354.999023438 l 1
EndSplineSet
Validated: 524321
EndChar

StartChar: C
Encoding: 67 67 36
Width: 600
GlyphClass: 2
Flags: W
HStem: -12.002 69.9961<277.783 433.771> 663.167 64.833<404.809 552.628>
LayerCount: 2
Fore
SplineSet
499.690429688 728 m 0
 595.614257812 728 669.328125 672.041015625 688.056640625 584.999023438 c 1
 602.283203125 546.999023438 l 1
 597.81640625 550.735351562 599.3125 557.018554688 599.625976562 558.375 c 0
 600.291015625 561.256835938 601.448242188 564.141601562 602.112304688 567.015625 c 0
 603.35546875 572.40234375 602.35546875 575.396484375 600.97265625 579.3671875 c 0
 583.451171875 629.698242188 538.5 663.166992188 481.986328125 663.166992188 c 0
 379.918945312 663.166992188 264.297851562 555.778320312 220.014648438 363.96875 c 0
 174.965820312 168.838867188 242.805664062 57.994140625 349.04296875 57.994140625 c 0
 405.705078125 57.994140625 470.68359375 90.884765625 516.706054688 146 c 1
 567.702148438 107 l 1
 505.306640625 32.978515625 414.446289062 -12.001953125 328.336914062 -12.001953125 c 0
 209.407226562 -12.001953125 74.9404296875 77.8505859375 139.341796875 356.806640625 c 0
 206.0703125 645.837890625 387.399414062 728 499.690429688 728 c 0
EndSplineSet
Validated: 524321
EndChar

StartChar: D
Encoding: 68 68 37
Width: 600
GlyphClass: 2
Flags: W
HStem: -1 64<163.545 358.393> 653 69<299.758 489.482>
LayerCount: 2
Fore
SplineSet
238.686523438 722 m 1
 407.6875 722 l 2
 471.365234375 722 522.278320312 717.43359375 566.856445312 683.299804688 c 0
 645.76953125 622.875976562 658.896484375 501.212890625 626.801757812 362.19921875 c 0
 590.326171875 204.202148438 505.4453125 81.193359375 389.651367188 27.978515625 c 0
 332.709960938 1.810546875 284.16015625 -1 226.76953125 -1 c 2
 71.76953125 -1 l 1
 238.686523438 722 l 1
299.7578125 653 m 1
 163.544921875 63 l 1
 237.544921875 63 l 2
 282.94140625 63 327.748046875 65.01953125 380.064453125 95.5625 c 0
 446.739257812 134.48828125 510.688476562 213.696289062 542.463867188 351.331054688 c 0
 566.40234375 455.016601562 567.708984375 557.73828125 513.454101562 613.3515625 c 0
 477.3203125 650.389648438 432.249023438 653 386.7578125 653 c 2
 299.7578125 653 l 1
EndSplineSet
Validated: 524321
EndChar

StartChar: E
Encoding: 69 69 38
Width: 600
GlyphClass: 2
Flags: W
HStem: 0 72<171.622 518> 340 74<250.579 535.495> 651 72<305.295 671.295>
LayerCount: 2
Fore
SplineSet
244.91796875 723 m 1
 687.91796875 723 l 1
 671.294921875 651 l 1
 305.294921875 651 l 1
 250.579101562 414 l 1
 552.579101562 414 l 1
 535.495117188 340 l 1
 233.495117188 340 l 1
 171.622070312 72 l 1
 534.622070312 72 l 1
 518 0 l 1
 78 0 l 1
 244.91796875 723 l 1
EndSplineSet
Validated: 524289
EndChar

StartChar: F
Encoding: 70 70 39
Width: 600
GlyphClass: 2
Flags: W
HStem: 0 21G<100 186.617> 355 70<280.119 533.958> 652 71<332.526 666.526>
LayerCount: 2
Fore
SplineSet
266.91796875 723 m 1
 682.91796875 723 l 1
 666.526367188 652 l 1
 332.526367188 652 l 1
 280.119140625 425 l 1
 550.119140625 425 l 1
 533.958007812 355 l 1
 263.958007812 355 l 1
 182 0 l 1
 100 0 l 1
 266.91796875 723 l 1
EndSplineSet
Validated: 524289
EndChar

StartChar: G
Encoding: 71 71 40
Width: 600
GlyphClass: 2
Flags: W
HStem: -11.0488 71.0459<273.782 446.441> 276 70<416.881 531.72> 658.067 70.9541<397.704 556.38>
LayerCount: 2
Fore
SplineSet
499.563476562 729.021484375 m 0
 588.518554688 729.021484375 657.36328125 682.819335938 681.368164062 607.999023438 c 1
 610.978515625 549.999023438 l 1
 603.254882812 555.814453125 602.5625 564.987304688 600.8046875 572.77734375 c 0
 589.892578125 621.162109375 547.119140625 658.067382812 482.680664062 658.067382812 c 0
 421.858398438 658.067382812 349.793945312 624.732421875 296.359375 554.633789062 c 0
 255.841796875 501.478515625 232.815429688 436.709960938 217.29296875 369.474609375 c 0
 199.686523438 293.212890625 184.7734375 191.911132812 229.190429688 123.215820312 c 0
 258.126953125 78.4619140625 305.186523438 59.9970703125 351.897460938 59.9970703125 c 0
 394.920898438 59.9970703125 444.830078125 75.1279296875 492.010742188 104 c 1
 531.719726562 276 l 1
 400.719726562 276 l 1
 416.880859375 346 l 1
 622.880859375 346 l 1
 557.775390625 64 l 1
 478.139648438 13.8818359375 395.211914062 -11.048828125 328.333007812 -11.048828125 c 0
 202.33984375 -11.048828125 70.150390625 79.109375 133.23828125 352.37109375 c 0
 206.375976562 669.165039062 403.541992188 729.021484375 499.563476562 729.021484375 c 0
EndSplineSet
Validated: 524321
EndChar

StartChar: H
Encoding: 72 72 41
Width: 600
GlyphClass: 2
Flags: W
HStem: 0 20G<73 161.617 438.77 525.387> 344 69<252.349 518.419> 702 20G<235.069 329.908 602.069 694.955>
LayerCount: 2
Fore
SplineSet
239.686523438 722 m 1
 329.686523438 722 l 1
 330.12890625 720.356445312 330.137695312 718.529296875 329.70703125 716.663085938 c 0
 327.602539062 707.548828125 320.081054688 706.379882812 317.22265625 694 c 2
 252.348632812 413 l 1
 535.348632812 413 l 1
 606.686523438 722 l 1
 694.686523438 722 l 1
 695.22265625 720.544921875 695.298828125 718.865234375 694.900390625 717.137695312 c 0
 692.875 708.364257812 684.456054688 708.005859375 681.684570312 696 c 2
 520.76953125 -1 l 1
 438.76953125 -1 l 1
 518.418945312 344 l 1
 236.418945312 344 l 1
 157 0 l 1
 73 0 l 1
 239.686523438 722 l 1
EndSplineSet
Validated: 524289
EndChar

StartChar: I
Encoding: 73 73 42
Width: 600
GlyphClass: 2
Flags: W
HStem: -1 67<119.468 261.468 342.237 476.77> 654 68<278.687 396.988 477.988 620.988>
LayerCount: 2
Fore
SplineSet
278.686523438 722 m 1
 636.686523438 722 l 1
 620.98828125 654 l 1
 477.98828125 654 l 1
 342.237304688 66 l 1
 492.237304688 66 l 1
 476.76953125 -1 l 1
 103.76953125 -1 l 1
 119.467773438 67 l 1
 261.467773438 67 l 1
 396.98828125 654 l 1
 262.98828125 654 l 1
 278.686523438 722 l 1
EndSplineSet
Validated: 524289
EndChar

StartChar: J
Encoding: 74 74 43
Width: 600
GlyphClass: 2
Flags: W
HStem: -13.1006 71.7812<185.692 318.12> 654 68<375.687 498.988 578.988 689.988>
LayerCount: 2
Fore
SplineSet
375.686523438 722 m 1
 705.6875 722.001953125 l 1
 689.98828125 654.001953125 l 1
 578.98828125 654.001953125 l 1
 483.870117188 242.001953125 l 2
 471.799804688 189.715820312 458.671875 134.892578125 419.063476562 83.1328125 c 0
 371.146484375 20.5146484375 300.799804688 -13.1005859375 232.440429688 -13.1005859375 c 0
 168.596679688 -13.1005859375 113.422851562 15.8271484375 82.46875 67 c 1
 151.706054688 133 l 1
 157.122070312 126.6796875 150.426757812 118.694335938 154.036132812 112.067382812 c 0
 155.791992188 108.841796875 189.91015625 58.6806640625 250.306640625 58.6806640625 c 0
 284.991210938 58.6806640625 320.3203125 75.943359375 346.284179688 104.721679688 c 0
 382.41015625 144.763671875 393.319335938 196.299804688 403.639648438 241 c 2
 498.98828125 654 l 1
 359.98828125 654 l 1
 375.686523438 722 l 1
EndSplineSet
Validated: 524289
EndChar

StartChar: K
Encoding: 75 75 44
Width: 600
GlyphClass: 2
Flags: W
HStem: 0 16G<59 149.617 442.747 555.77> 703 20G<221.301 322.916 592.637 624.417>
LayerCount: 2
Fore
SplineSet
225.91796875 723 m 1
 322.916015625 723 l 1
 322.395507812 715.17578125 316.033203125 709.8515625 312.541015625 706.358398438 c 0
 307.278320312 701.09375 306.1484375 698.014648438 304.990234375 693 c 2
 234.806640625 389 l 1
 615.071289062 728 l 1
 633.76171875 722.9453125 654.071289062 722 673.686523438 722 c 2
 703.686523438 722 l 1
 358.65625 410 l 1
 555.76953125 -1 l 1
 498.619140625 -0.826171875 451.845703125 -5 451.845703125 -5 c 1
 285.34375 361 l 1
 214.029296875 299 l 1
 145 0 l 1
 59 0 l 1
 225.91796875 723 l 1
EndSplineSet
Validated: 524321
EndChar

StartChar: L
Encoding: 76 76 45
Width: 600
GlyphClass: 2
Flags: W
HStem: -1 70<186.93 518.77> 702 20G<249.069 347.687>
LayerCount: 2
Fore
SplineSet
253.686523438 722 m 1
 347.686523438 721.999023438 l 1
 347.037109375 713.76171875 341.903320312 707.036132812 339.436523438 703.775390625 c 0
 334.522460938 697.27734375 331.099609375 693.46875 328.682617188 683 c 2
 186.9296875 69 l 1
 534.9296875 69 l 1
 518.76953125 -1 l 1
 86.76953125 -1 l 1
 253.686523438 722 l 1
EndSplineSet
Validated: 524289
EndChar

StartChar: M
Encoding: 77 77 46
Width: 600
GlyphClass: 2
Flags: W
HStem: -1 21G<56.7695 137.387 465.77 547.387> 702 20G<219.069 293.211 634.018 709.918>
LayerCount: 2
Fore
SplineSet
223.686523438 722 m 1
 287.686523438 722 l 1
 385.190429688 369 l 1
 648.91796875 723 l 1
 709.91796875 723 l 1
 542.76953125 -1 l 1
 465.76953125 -1 l 1
 591.823242188 545 l 1
 368.640625 254 l 1
 337.640625 254 l 1
 257.899414062 541 l 1
 132.76953125 -1 l 1
 56.76953125 -1 l 1
 223.686523438 722 l 1
EndSplineSet
Validated: 524289
EndChar

StartChar: N
Encoding: 78 78 47
Width: 600
GlyphClass: 2
Flags: W
HStem: 0 21G<68 150.617 457.209 532.387> 702 21G<230.069 320.396 612.301 702.918>
LayerCount: 2
Fore
SplineSet
68 0 m 1
 234.686523438 722 l 1
 313.686523438 722 l 1
 493.171875 187 l 1
 616.91796875 723 l 1
 702.91796875 723 l 1
 702.2890625 716.254882812 697.990234375 710.682617188 696.126953125 708.219726562 c 0
 692.129882812 702.938476562 689.62109375 700.057617188 687.760742188 692 c 2
 527.76953125 -1 l 1
 463.76953125 -1 l 1
 277.1328125 568 l 1
 146 0 l 1
 68 0 l 1
EndSplineSet
Validated: 524289
EndChar

StartChar: O
Encoding: 79 79 48
Width: 600
GlyphClass: 2
Flags: W
HStem: -11.0146 79.002<253.14 397.858> 654.011 75.9893<373.966 519.054>
LayerCount: 2
Fore
SplineSet
639.005859375 359.50390625 m 0
 624.3671875 296.094726562 599.052734375 206.2734375 542.771484375 128.646484375 c 0
 473.033203125 32.45703125 379.884765625 -11.0146484375 301.943359375 -11.0146484375 c 0
 191.435546875 -11.0146484375 62.1005859375 78.3994140625 127.6015625 362.11328125 c 0
 193.115234375 645.883789062 364.616210938 730 472.295898438 730 c 0
 550.887695312 730 622.973632812 686.669921875 648.905273438 593.90234375 c 0
 670.47265625 516.748046875 654.600585938 427.049804688 639.005859375 359.50390625 c 0
451.353515625 654.010742188 m 0
 375.48828125 654.010742188 259.705078125 587.912109375 210.010742188 372.66015625 c 0
 157.001953125 143.053710938 239.319335938 67.9873046875 320.534179688 67.9873046875 c 0
 369.115234375 67.9873046875 431.39453125 95.4453125 481.028320312 165.716796875 c 0
 524.985351562 227.951171875 544.721679688 301.614257812 555.638671875 348.897460938 c 0
 569.747070312 410.010742188 582.01171875 479.154296875 571.62109375 539.849609375 c 0
 557.294921875 623.543945312 502.583984375 654.010742188 451.353515625 654.010742188 c 0
EndSplineSet
Validated: 524321
EndChar

StartChar: P
Encoding: 80 80 49
Width: 600
GlyphClass: 2
Flags: W
HStem: 0 21G<78 166.617> 319 71.002<251.037 497.028> 646.002 75.998<311.14 540.855>
LayerCount: 2
Fore
SplineSet
244.686523438 722 m 1
 464.685546875 722.001953125 l 2
 511.245117188 722.001953125 555.760742188 720.811523438 595.651367188 697.495117188 c 0
 655.74609375 662.37109375 674.624023438 591.71875 657.766601562 518.700195312 c 0
 640.868164062 445.50390625 589.76953125 376.352539062 515.1640625 342.409179688 c 0
 466.166992188 320.116210938 422.624023438 319 377.646484375 319 c 1
 235.646484375 319 l 1
 162 0 l 1
 78 0 l 1
 244.686523438 722 l 1
311.139648438 646.001953125 m 1
 251.037109375 390.001953125 l 1
 397.037109375 390.001953125 l 2
 425.502929688 390.001953125 453.186523438 390.6796875 484.276367188 404.764648438 c 0
 530.990234375 425.927734375 563.265625 468.9453125 573.895507812 514.987304688 c 0
 584.74609375 561.986328125 571.977539062 607.922851562 532.1796875 630.501953125 c 0
 506.159179688 645.264648438 477.3046875 646.001953125 447.139648438 646.001953125 c 2
 311.139648438 646.001953125 l 1
EndSplineSet
Validated: 524321
EndChar

StartChar: Q
Encoding: 81 81 50
Width: 600
GlyphClass: 2
Flags: W
HStem: -167.998 72.9141<347.994 481.216> -8.40332 72.3955<255.64 269.851 338.233 396.767> 656.024 73.9766<375.639 519.591>
LayerCount: 2
Fore
SplineSet
451.946289062 656.024414062 m 0
 373.23046875 656.024414062 258.22265625 585.887695312 209.276367188 373.876953125 c 0
 156.407226562 144.876953125 235.325195312 63.9921875 320.201171875 63.9921875 c 0
 380.786132812 63.9921875 503.133789062 108.341796875 558.522460938 348.258789062 c 0
 572.538085938 408.96484375 584.34765625 479.174804688 573.436523438 540.782226562 c 0
 558.333007812 626.060546875 502.778320312 656.024414062 451.946289062 656.024414062 c 0
638.638671875 357.879882812 m 0
 624.005859375 294.497070312 598.78515625 205.025390625 542.6015625 127.797851562 c 0
 484.4453125 47.8583984375 409.831054688 4.4375 341.278320312 -7.546875 c 1
 333.375976562 -47.60546875 333.380859375 -95.083984375 405.947265625 -95.083984375 c 0
 431.864257812 -95.083984375 464.264648438 -90.58984375 501.454101562 -88.998046875 c 1
 481.215820312 -167.998046875 l 1
 398.012695312 -167.283203125 346.317382812 -172.608398438 306.53515625 -150.305664062 c 0
 259.94921875 -124.188476562 253.638671875 -74.38671875 269.850585938 -8.4033203125 c 1
 168.640625 8.072265625 68.34375 105.442382812 127.568359375 361.967773438 c 0
 193.224609375 646.357421875 364.986328125 730.000976562 472.33984375 730.000976562 c 0
 551.556640625 730.000976562 623.927734375 686.01953125 649.36328125 592.26953125 c 0
 670.217773438 515.40234375 654.443359375 426.334960938 638.638671875 357.879882812 c 0
EndSplineSet
Validated: 524321
EndChar

StartChar: R
Encoding: 82 82 51
Width: 600
GlyphClass: 2
Flags: W
HStem: 0 21G<75 161.617 451.586 548> 319 71.002<247.038 370.646> 646.001 75.999<306.14 531.015>
LayerCount: 2
Fore
SplineSet
241.686523438 722 m 1
 454.686523438 722.000976562 l 2
 501.353515625 722.000976562 546.69140625 720.951171875 587.068359375 697.719726562 c 0
 645.735351562 663.965820312 665.8515625 596.481445312 649.11328125 523.978515625 c 0
 627.045898438 428.39453125 548.357421875 345.903320312 455.33984375 322 c 1
 548 0 l 1
 457 0 l 1
 370.646484375 319 l 1
 230.646484375 319 l 1
 157 0 l 1
 75 0 l 1
 241.686523438 722 l 1
306.139648438 646.000976562 m 1
 247.038085938 390.001953125 l 1
 387.038085938 390.001953125 l 2
 415.50390625 390.001953125 443.1875 390.6796875 474.27734375 404.764648438 c 0
 520.991210938 425.927734375 553.266601562 468.9453125 563.896484375 514.987304688 c 0
 574.747070312 561.986328125 561.977539062 607.921875 522.180664062 630.500976562 c 0
 496.16015625 645.263671875 467.3046875 646.000976562 437.139648438 646.000976562 c 2
 306.139648438 646.000976562 l 1
EndSplineSet
Validated: 524321
EndChar

StartChar: S
Encoding: 83 83 52
Width: 600
GlyphClass: 2
Flags: W
HStem: -12.0703 73.0195<221.315 405.797> 659.137 66.8711<372.167 544.619>
LayerCount: 2
Fore
SplineSet
660.83203125 636 m 1
 593.903320312 566.998046875 l 1
 591.548828125 567.767578125 588.739257812 570.056640625 589.98828125 576.4765625 c 0
 590.818359375 580.736328125 591.958007812 583.15234375 589.923828125 587.624023438 c 0
 571.373046875 628.399414062 526.7578125 659.13671875 459.497070312 659.13671875 c 0
 376.841796875 659.13671875 317.448242188 608.65625 304.668945312 553.30078125 c 0
 297.854492188 523.78515625 301.315429688 480.956054688 353.580078125 445.618164062 c 0
 410.7265625 406.978515625 507.715820312 386.475585938 556.8671875 327.333007812 c 0
 592.236328125 284.774414062 591.495117188 234.350585938 582.771484375 196.565429688 c 0
 561.79296875 105.696289062 469.692382812 -12.0703125 293.956054688 -12.0703125 c 0
 204.859375 -12.0703125 131.204101562 19.1650390625 88.7001953125 80.998046875 c 1
 155.862304688 163.998046875 l 1
 160.752929688 161.186523438 159.026367188 154.810546875 158.557617188 152.897460938 c 0
 157.387695312 148.116210938 156.413085938 145.186523438 158.978515625 140.596679688 c 0
 181.821289062 99.7109375 233.913085938 60.94921875 313.170898438 60.94921875 c 0
 417.9921875 60.94921875 486.569335938 129.107421875 501.073242188 191.928710938 c 0
 508.52734375 224.217773438 504.012695312 261.930664062 463.509765625 291.611328125 c 0
 416.836914062 325.811523438 318.387695312 350.796875 262.91015625 400.176757812 c 0
 212.97265625 444.626953125 208.981445312 498.90625 218.700195312 541.00390625 c 0
 241.497070312 639.749023438 350.974609375 726.0078125 481.373046875 726.0078125 c 0
 560.078125 726.0078125 625.34765625 694.098632812 660.83203125 636 c 1
EndSplineSet
Validated: 524321
EndChar

StartChar: T
Encoding: 84 84 53
Width: 600
GlyphClass: 2
Flags: W
HStem: -1 21G<250.77 337.387> 650 73<212.918 401.064 483.064 696.064>
LayerCount: 2
Fore
SplineSet
212.91796875 723 m 1
 712.91796875 723 l 1
 696.064453125 650 l 1
 483.064453125 650 l 1
 332.76953125 -1 l 1
 250.76953125 -1 l 1
 401.064453125 650 l 1
 196.064453125 650 l 1
 212.91796875 723 l 1
EndSplineSet
Validated: 524289
EndChar

StartChar: U
Encoding: 85 85 54
Width: 600
GlyphClass: 2
Flags: W
HStem: -13.0742 68.9932<241.842 400.762> 702 19.998G<230.069 325.689 621.071 702.688>
VStem: 625.688 77<691.678 721.998>
LayerCount: 2
Fore
SplineSet
234.686523438 722 m 1
 325.689453125 721.998046875 l 1
 326.056640625 720.161132812 326.005859375 718.169921875 325.5390625 716.1484375 c 0
 323.942382812 709.233398438 318.279296875 704.49609375 314.2265625 700.193359375 c 0
 308.563476562 694.180664062 307.36328125 690.264648438 306.147460938 684.999023438 c 2
 205.2578125 247.999023438 l 2
 196.979492188 212.140625 189.602539062 177.153320312 198.024414062 141.576171875 c 0
 211.16796875 86.05078125 258.717773438 55.9189453125 315.978515625 55.9189453125 c 0
 372.326171875 55.9189453125 433.487304688 85.341796875 472.916992188 140.546875 c 0
 499.15625 177.286132812 508.336914062 213.69140625 516.94921875 250.998046875 c 2
 625.688476562 721.998046875 l 1
 702.688476562 721.998046875 l 1
 594.411132812 252.998046875 l 2
 582.219726562 200.190429688 569.080078125 150.171875 530.130859375 99.8125 c 0
 471.58984375 24.1240234375 381.892578125 -13.07421875 298.443359375 -13.07421875 c 0
 213.248046875 -13.07421875 141.920898438 24.9765625 119.047851562 99.216796875 c 0
 103.765625 148.813476562 113.703125 197.959960938 125.486328125 249 c 1
 234.686523438 722 l 1
EndSplineSet
Validated: 524321
EndChar

StartChar: V
Encoding: 86 86 55
Width: 600
GlyphClass: 2
Flags: W
HStem: -5 21G<281.705 332.121> 703 20G<205.918 292.967 639.751 730.687>
LayerCount: 2
Fore
SplineSet
205.91796875 723 m 1
 290.91796875 723 l 1
 347.786132812 168 l 1
 650.686523438 722 l 1
 730.686523438 722 l 1
 320.845703125 -5 l 1
 283.845703125 -5 l 1
 205.91796875 723 l 1
EndSplineSet
Validated: 524289
EndChar

StartChar: W
Encoding: 87 87 56
Width: 600
GlyphClass: 2
Flags: W
HStem: -5 21G<144.846 187.746 427.264 467.599> 702 20G<195.26 271.687 666.375 741.687>
LayerCount: 2
Fore
SplineSet
196.686523438 722 m 1
 271.686523438 722 l 1
 237.0234375 234 l 1
 453.451171875 669 l 1
 478.451171875 669 l 1
 494.561523438 232 l 1
 673.686523438 722 l 1
 741.686523438 722 l 1
 459.845703125 -5 l 1
 427.845703125 -5 l 1
 413.969726562 472 l 1
 177.845703125 -5 l 1
 144.845703125 -5 l 1
 196.686523438 722 l 1
EndSplineSet
Validated: 524289
EndChar

StartChar: X
Encoding: 88 88 57
Width: 600
GlyphClass: 2
Flags: W
HStem: 0 21G<57 161.414 454.398 552> 703 20G<227.918 321.389 600.453 696.918>
LayerCount: 2
Fore
SplineSet
615.91796875 723 m 1
 696.91796875 723 l 1
 432.732421875 370.083984375 l 1
 552 0 l 1
 461 0 l 1
 366.538085938 286.15625 l 1
 146 0 l 1
 57 0 l 1
 339.447265625 368.201171875 l 1
 227.91796875 723 l 1
 314.91796875 723 l 1
 403.711914062 448.564453125 l 1
 615.91796875 723 l 1
EndSplineSet
Validated: 524289
EndChar

StartChar: Y
Encoding: 89 89 58
Width: 600
GlyphClass: 2
Flags: W
HStem: 0 21G<265 357.617> 703 20G<209.918 307.386 624.926 724.687>
LayerCount: 2
Fore
SplineSet
209.91796875 723 m 1
 301.91796875 723 l 1
 397.8828125 372 l 1
 638.686523438 722 l 1
 724.686523438 722 l 1
 418.797851562 285 l 1
 353 0 l 1
 265 0 l 1
 330.797851562 285 l 1
 209.91796875 723 l 1
EndSplineSet
Validated: 524289
EndChar

StartChar: Z
Encoding: 90 90 59
Width: 600
GlyphClass: 2
Flags: W
HStem: -1 72<186.393 545.77> 649 73<248.687 581.833>
LayerCount: 2
Fore
SplineSet
248.686523438 722 m 1
 694.6875 722 l 1
 680.528320312 665 l 1
 186.392578125 71 l 1
 527.392578125 71 l 2
 543.534179688 71 550.081054688 80.1396484375 564.0078125 78 c 1
 545.76953125 -1 l 1
 67.76953125 -1 l 1
 80.9287109375 56 l 1
 581.833007812 649 l 1
 231.833007812 649 l 1
 248.686523438 722 l 1
EndSplineSet
Validated: 524321
EndChar

StartChar: bracketleft
Encoding: 91 91 60
Width: 600
GlyphClass: 2
Flags: W
HStem: -168 66<213.451 456.214> 707 69<399.224 656.224>
LayerCount: 2
Fore
SplineSet
341.153320312 776 m 1
 672.153320312 776 l 1
 656.223632812 707 l 1
 399.223632812 707 l 1
 213.451171875 -102 l 5
 471.451171875 -102 l 5
 456.213867188 -168 l 5
 124.213867188 -168 l 5
 341.153320312 776 l 1
EndSplineSet
Validated: 524289
EndChar

StartChar: backslash
Encoding: 92 92 61
Width: 600
GlyphClass: 2
Flags: W
LayerCount: 2
Fore
SplineSet
512.537109375 -15 m 1
 330.768554688 770 l 1
 253.688476562 735 l 1
 436.6875 -49 l 1
 512.537109375 -15 l 1
EndSplineSet
Validated: 524297
EndChar

StartChar: bracketright
Encoding: 93 93 62
Width: 600
GlyphClass: 2
Flags: W
LayerCount: 2
Fore
SplineSet
617.153320312 776 m 1
 286.153320312 776 l 1
 270.223632812 707 l 1
 527.223632812 707 l 1
 339.529296875 -93 l 5
 81.529296875 -93 l 5
 66.2919921875 -159 l 5
 398.291992188 -159 l 5
 617.153320312 776 l 1
EndSplineSet
Validated: 524297
EndChar

StartChar: asciicircum
Encoding: 94 94 63
Width: 600
GlyphClass: 2
Flags: W
HStem: 403 325
LayerCount: 2
Fore
SplineSet
137.815429688 431 m 5
 464.426757812 728 l 5
 500.875 728 l 5
 661.422851562 432 l 5
 564.340820312 403 l 5
 447.924804688 606 l 5
 215.908203125 403 l 5
 137.815429688 431 l 5
EndSplineSet
Validated: 524289
EndChar

StartChar: underscore
Encoding: 95 95 64
Width: 600
GlyphClass: 2
Flags: W
HStem: -93 71<44.9209 528.529>
LayerCount: 2
Fore
SplineSet
44.9208984375 -22 m 1
 544.920898438 -22 l 1
 528.529296875 -93 l 1
 28.529296875 -93 l 1
 44.9208984375 -22 l 1
EndSplineSet
Validated: 524289
EndChar

StartChar: grave
Encoding: 96 96 65
Width: 600
GlyphClass: 2
Flags: W
VStem: 374.614 40.5586<344.408 353.122>
LayerCount: 2
Fore
SplineSet
374.614257812 353.122070312 m 2
 336.883789062 463.064453125 l 1
 300.40625 563.322265625 l 1
 339.765625 744 l 1
 358.5234375 701.400390625 356.916992188 694.026367188 374.870117188 647.740234375 c 1
 379.049804688 616.727539062 387.08203125 618.186523438 394.8828125 595.45703125 c 2
 414.77734375 537.487304688 l 2
 430.481445312 491.728515625 424.147460938 410.240234375 415.172851562 369.046875 c 0
 406.032226562 327.08203125 392.599609375 300.716796875 374.614257812 353.122070312 c 2
EndSplineSet
Validated: 524321
EndChar

StartChar: a
Encoding: 97 97 66
Width: 600
GlyphClass: 2
Flags: W
HStem: -13.001 63.8164<206.041 354.045> 0.000976562 21G<435 518.617> 248.002 63.998<261.59 494.257> 473.03 68.0254<312.124 492.504>
LayerCount: 2
Fore
SplineSet
222.815429688 467 m 1xb0
 284.064453125 518.083007812 357.42578125 541.055664062 428.838867188 541.055664062 c 0
 511.004882812 541.055664062 571.240234375 510.99609375 592.615234375 453.09765625 c 0
 607.646484375 412.375976562 599.7421875 371.390625 589.724609375 328.000976562 c 2
 514 0.0009765625 l 1
 435 0.0009765625 l 1x70
 448.390625 58.0009765625 l 1
 379.702148438 10.666015625 306.938476562 -13.0009765625 241.916015625 -13.0009765625 c 0
 131.314453125 -13.0009765625 80.478515625 59.1640625 98.408203125 136.826171875 c 0
 111.956054688 195.5078125 164.12890625 257.379882812 254.7109375 288.065429688 c 0
 327.77734375 312.817382812 411.053710938 312 489.03125 312 c 2
 506.03125 312 l 1
 510.416992188 331 l 2
 516.89453125 359.0546875 525.166015625 393.11328125 514.215820312 422.077148438 c 0
 504.939453125 446.614257812 479.952148438 473.030273438 417.076171875 473.030273438 c 0
 368.162109375 473.030273438 305.416992188 459.392578125 251.579101562 414 c 1
 222.815429688 467 l 1xb0
494.256835938 248.000976562 m 1
 475.256835938 248.001953125 l 2
 420.248046875 248.001953125 350.170898438 251.466796875 299.44140625 239.989257812 c 0
 229.4140625 224.146484375 192.435546875 180.911132812 183.557617188 142.458007812 c 0
 172.633789062 95.138671875 203.4140625 50.8154296875 273.595703125 50.8154296875 c 0xb0
 342.930664062 50.8154296875 403.2578125 92.8447265625 427.213867188 113.288085938 c 0
 471.688476562 151.243164062 479.845703125 185.579101562 486.17578125 213.000976562 c 2
 494.256835938 248.000976562 l 1
EndSplineSet
Validated: 524321
EndChar

StartChar: b
Encoding: 98 98 67
Width: 600
GlyphClass: 2
Flags: W
HStem: -13.0762 75.0498<240.478 394.746> 0 21G<79 145.903> 470.354 71.7168<360.626 476.135> 751.001 20G<256.999 355.185>
LayerCount: 2
Fore
SplineSet
256.999023438 771 m 1x70
 355.000976562 771.000976562 l 1
 355.369140625 764.037109375 347.997070312 759.557617188 345.697265625 758.013671875 c 0
 339.259765625 753.69140625 337.41796875 751.157226562 335.997070312 745.000976562 c 2
 267.428710938 448.000976562 l 1
 314.431640625 506.18359375 384.853515625 542.0703125 452.274414062 542.0703125 c 0
 556.313476562 542.0703125 645.3125 456.138671875 602.616210938 271.200195312 c 0
 558.279296875 79.15625 424.2265625 -13.076171875 315.67578125 -13.076171875 c 0xb0
 252.154296875 -13.076171875 201.002929688 18.3505859375 178.161132812 70 c 1
 133 0 l 1
 79 0 l 1
 256.999023438 771 l 1x70
406.66015625 470.353515625 m 0
 354.258789062 470.353515625 299.315429688 440.71484375 268.573242188 392.983398438 c 0
 249.813476562 363.856445312 240.107421875 329.782226562 229.053710938 281.904296875 c 0
 218.477539062 236.092773438 210.890625 204.899414062 208.173828125 177.364257812 c 0
 198.212890625 76.4443359375 274.845703125 61.9736328125 311.052734375 61.9736328125 c 0
 362.831054688 61.9736328125 474.377929688 91.5615234375 511.805664062 253.6796875 c 0
 554.956054688 440.584960938 456.408203125 470.353515625 406.66015625 470.353515625 c 0
EndSplineSet
Validated: 524321
EndChar

StartChar: c
Encoding: 99 99 68
Width: 600
GlyphClass: 2
Flags: W
HStem: -13.0029 75.9805<279.065 444.676> 469.072 70.9551<357.97 522.8>
LayerCount: 2
Fore
SplineSet
641.043945312 442 m 1
 566.115234375 372.998046875 l 1
 558.5390625 379.921875 567.352539062 390.806640625 564.995117188 399.750976562 c 0
 563.358398438 405.958007812 534.459960938 469.072265625 444.076171875 469.072265625 c 0
 346.799804688 469.072265625 251.87890625 393.766601562 224.02734375 273.125 c 0
 195.466796875 149.418945312 254.141601562 62.9775390625 357.297851562 62.9775390625 c 0
 410.3515625 62.9775390625 467.16796875 86.44140625 512.322265625 126.998046875 c 1
 547.393554688 70.998046875 l 1
 484.345703125 16.5791015625 406.686523438 -13.0029296875 332.780273438 -13.0029296875 c 0
 183.046875 -13.0029296875 99.2158203125 104.890625 136.06640625 264.5078125 c 0
 172.745117188 423.37890625 310.15234375 540.02734375 465.727539062 540.02734375 c 0
 550.856445312 540.02734375 613.465820312 503.102539062 641.043945312 442 c 1
EndSplineSet
Validated: 524321
EndChar

StartChar: d
Encoding: 100 100 69
Width: 600
GlyphClass: 2
Flags: W
HStem: -11.7422 73.5537<241.115 361.599> 0.000976562 21G<440.36 523.998> 475.043 68.0459<319.761 468.486> 751.002 20G<613.382 706.999>
VStem: 440.998 83<0.000976562 81.2988>
LayerCount: 2
Fore
SplineSet
544.352539062 452 m 1xb8
 617.999023438 771.001953125 l 1
 706.999023438 771.001953125 l 1
 705.607421875 763.1171875 699.880859375 757.360351562 696.640625 753.666992188 c 0
 691.038085938 747.284179688 689.764648438 744.041992188 688.37890625 738.001953125 c 2
 530.310546875 49.001953125 l 2
 526.634765625 32.9775390625 523.565429688 16.2109375 523.998046875 0.0009765625 c 1
 440.998046875 0.0009765625 l 1x78
 439.72265625 12.8486328125 442.098632812 26.423828125 445.001953125 39.0009765625 c 2
 455.622070312 85.0009765625 l 1
 408.658203125 25.5830078125 337.485351562 -11.7421875 269.7890625 -11.7421875 c 0
 167.458984375 -11.7421875 79.0048828125 73.6689453125 124.12109375 269.087890625 c 0
 170.830078125 471.408203125 309.231445312 543.088867188 410.13671875 543.088867188 c 0
 483.286132812 543.088867188 531.46484375 506.411132812 544.352539062 452 c 1xb8
398.309570312 475.04296875 m 0
 337.400390625 475.04296875 242.939453125 433.44140625 208.146484375 282.733398438 c 0
 167.889648438 108.365234375 246.204101562 61.8115234375 306.138671875 61.8115234375 c 0xb8
 361.349609375 61.8115234375 424.66015625 98.720703125 459.708984375 162.216796875 c 0
 474.461914062 188.9453125 483.758789062 218.615234375 492.973632812 258.528320312 c 0
 506.6171875 317.622070312 511.1015625 347.169921875 510.224609375 371.7890625 c 0
 507.420898438 450.384765625 444.724609375 475.04296875 398.309570312 475.04296875 c 0
EndSplineSet
Validated: 524321
EndChar

StartChar: e
Encoding: 101 101 70
Width: 600
GlyphClass: 2
Flags: W
HStem: -12.1436 67.585<259.366 431.207> 253.001 64.001<223.193 519.826> 478.171 64.1006<333.944 482.334>
LayerCount: 2
Fore
SplineSet
434.891601562 542.271484375 m 0
 521.6796875 542.271484375 609.84765625 496.22265625 601.08203125 354.103515625 c 0
 599.186523438 323.372070312 593.017578125 289.372070312 581.41015625 253.000976562 c 1
 205.708007812 253.000976562 l 1
 175.412109375 94.486328125 268.930664062 55.44140625 339.752929688 55.44140625 c 0
 392.388671875 55.44140625 447.124023438 76.357421875 490.549804688 115 c 1
 526.161132812 70 l 1
 468.254882812 15.5068359375 393.241210938 -12.1435546875 317.68359375 -12.1435546875 c 0
 173.896484375 -12.1435546875 85.2822265625 82.2255859375 126.00390625 258.610351562 c 0
 170.618164062 451.85546875 308.456054688 542.271484375 434.891601562 542.271484375 c 0
223.193359375 317.001953125 m 1
 514.184570312 317.001953125 l 1
 543.944335938 402.840820312 500.07421875 478.170898438 414.27734375 478.170898438 c 0
 357.466796875 478.170898438 268.504882812 441.8515625 223.193359375 317.001953125 c 1
EndSplineSet
Validated: 524321
EndChar

StartChar: f
Encoding: 102 102 71
Width: 600
GlyphClass: 2
Flags: W
HStem: 0 21G<198.001 282.618> 432 66<197.974 297.736 392.974 550.736> 711.981 65.4717<490.378 638.033>
VStem: 198.001 80<0 30.3202>
LayerCount: 2
Fore
SplineSet
587.510742188 777.453125 m 0
 654.099609375 777.453125 705.409179688 750.5859375 732.763671875 705 c 1
 676.987304688 628 l 1
 673.337890625 627.637695312 668.61328125 629.720703125 669.809570312 637.659179688 c 0
 670.552734375 642.608398438 672.211914062 645.776367188 669.791992188 651.40234375 c 0
 655.303710938 685.077148438 619.102539062 711.981445312 568.125 711.981445312 c 0
 524.344726562 711.981445312 478.977539062 692.4765625 448.11328125 653.356445312 c 0
 420.153320312 617.916015625 411.291992188 577.345703125 402.438476562 539 c 2
 392.973632812 498 l 1
 565.973632812 498 l 1
 550.736328125 432 l 1
 377.736328125 432 l 1
 278.000976562 0 l 1
 198.000976562 0 l 1
 297.736328125 432 l 1
 182.736328125 432 l 1
 197.973632812 498 l 1
 312.973632812 498 l 1
 324.978515625 550 l 2
 335.827148438 596.990234375 347.936523438 641.100585938 385.256835938 685.2265625 c 0
 436.14453125 745.39453125 513.131835938 777.453125 587.510742188 777.453125 c 0
EndSplineSet
Validated: 524289
EndChar

StartChar: g
Encoding: 103 103 72
Width: 600
GlyphClass: 2
Flags: W
HStem: -199.385 63.1865<149.688 379.237> 21.9258 70.4766<204.375 440.661> 180.94 67.0576<266.963 401.949> 480.571 65.9766<310.876 446.235>
LayerCount: 2
Fore
SplineSet
240.05078125 364.262695312 m 0
 225.249023438 300.151367188 265.3984375 247.998046875 329.74609375 247.998046875 c 0
 394.087890625 247.998046875 458.35546875 300.15625 473.166015625 364.306640625 c 0
 487.965820312 428.413085938 447.826171875 480.571289062 383.484375 480.571289062 c 0
 319.138671875 480.571289062 254.861328125 428.416015625 240.05078125 364.262695312 c 0
403.7890625 546.547851562 m 0
 452.068359375 546.547851562 492.381835938 528.526367188 517.510742188 495.999023438 c 1
 566.3984375 530.331054688 623.084960938 547.1953125 675.361328125 542.999023438 c 1
 669.662109375 474.999023438 l 1
 659.9765625 476.739257812 649.9609375 477.614257812 639.724609375 477.614257812 c 0
 607.106445312 477.614257812 573.099609375 468.734375 541.352539062 451.999023438 c 1
 552.814453125 425.559570312 555.047851562 394.364257812 547.639648438 362.276367188 c 0
 525.081054688 264.561523438 419.869140625 180.940429688 315.030273438 180.940429688 c 0
 292.073242188 180.940429688 270.239257812 185.01953125 250.555664062 192.998046875 c 1
 244.362304688 188.705078125 205.541015625 161.817382812 199.07421875 133.803710938 c 0
 195.221679688 117.118164062 204.140625 104.63671875 223.131835938 99.064453125 c 0
 233.703125 95.962890625 257.672851562 92.40234375 297.194335938 92.40234375 c 0
 357.185546875 92.40234375 422.848632812 99.8466796875 472.930664062 77.40625 c 0
 523.889648438 54.5732421875 539.291992188 8.314453125 528.711914062 -37.5126953125 c 0
 512.319335938 -108.516601562 427.055664062 -199.384765625 247.763671875 -199.384765625 c 0
 62.2333984375 -199.384765625 24.0234375 -131.69921875 37.34765625 -73.9853515625 c 0
 47.05859375 -31.9228515625 85.3212890625 7.005859375 150.512695312 43.27734375 c 1
 121.123046875 60.853515625 119.245117188 91.783203125 124.334960938 113.826171875 c 0
 132.186523438 147.837890625 162.197265625 183.6171875 207.8671875 215.999023438 c 1
 166.643554688 247.564453125 149.334960938 301.442382812 162.706054688 359.359375 c 0
 186.586914062 462.799804688 298.400390625 546.547851562 403.7890625 546.547851562 c 0
203.45703125 28.2958984375 m 1
 169.182617188 11.591796875 127.236328125 -16.20703125 118.451171875 -54.2587890625 c 0
 114.180664062 -72.755859375 116.83203125 -101.883789062 155.696289062 -118.8984375 c 0
 192.0390625 -134.809570312 236.767578125 -136.198242188 260.939453125 -136.198242188 c 0
 296.372070312 -136.198242188 341.65625 -133.95703125 385.280273438 -113.0234375 c 0
 426.163085938 -93.4052734375 445.736328125 -65.703125 451.033203125 -42.7607421875 c 0
 456.4140625 -19.4521484375 449.467773438 11.44140625 402.086914062 18.8408203125 c 0
 372.774414062 23.41796875 329.384765625 20.4794921875 290.653320312 21.92578125 c 0
 250.489257812 23.42578125 222.921875 25.701171875 203.45703125 28.2958984375 c 1
EndSplineSet
Validated: 524321
EndChar

StartChar: h
Encoding: 104 104 73
Width: 600
GlyphClass: 2
Flags: W
HStem: 0 21G<91 180.617 430.002 516.619> 469.58 72.4229<388.379 492.001> 750 20G<264.151 364.83>
LayerCount: 2
Fore
SplineSet
91 0 m 1
 268.768554688 770 l 1
 364.768554688 770 l 1
 364.890625 768.885742188 364.8125 767.711914062 364.538085938 766.526367188 c 0
 363.143554688 760.484375 357.614257812 756.916015625 354.305664062 754.110351562 c 0
 349.412109375 749.956054688 348.443359375 746.930664062 347.536132812 743 c 2
 276.659179688 436 l 1
 329.15234375 495.001953125 405.251953125 542.002929688 477.088867188 542.002929688 c 0
 537.413085938 542.002929688 583.85546875 508.12890625 596.459960938 448.568359375 c 0
 605.465820312 406.014648438 595.653320312 362.334960938 586.111328125 321.000976562 c 1
 512.001953125 0.0009765625 l 1
 430.001953125 0.0009765625 l 1
 503.649414062 319.000976562 l 2
 512.282226562 356.393554688 522.532226562 401.823242188 501.784179688 436.061523438 c 0
 488.016601562 458.78125 464.3203125 469.580078125 437.752929688 469.580078125 c 0
 381.7734375 469.580078125 320.09765625 422.787109375 293.708007812 395.893554688 c 0
 264.912109375 366.55078125 254.645507812 340.651367188 246.415039062 305 c 2
 176 0 l 1
 91 0 l 1
EndSplineSet
Validated: 524321
EndChar

StartChar: i
Encoding: 105 105 74
Width: 600
GlyphClass: 2
Flags: W
HStem: 0 67<141.468 276.468 360.468 469> 462 68<255.36 367.661> 640.991 119.009<429.482 503.955>
VStem: 406.701 120.04<663.798 737.191>
LayerCount: 2
Fore
SplineSet
255.360351562 530 m 1
 467.360351562 530 l 1
 360.467773438 67 l 1
 484.467773438 67 l 1
 469 0 l 1
 126 0 l 1
 141.467773438 67 l 1
 276.467773438 67 l 1
 367.661132812 462 l 1
 239.661132812 462 l 1
 255.360351562 530 l 1
480.462890625 760 m 0
 513.630859375 760 534.310546875 733.279296875 526.741210938 700.4921875 c 0
 519.176757812 667.7265625 486.166992188 640.991210938 452.974609375 640.991210938 c 0
 419.802734375 640.991210938 399.134765625 667.71484375 406.701171875 700.485351562 c 0
 414.268554688 733.263671875 447.282226562 760 480.462890625 760 c 0
EndSplineSet
Validated: 524321
EndChar

StartChar: j
Encoding: 106 106 75
Width: 600
GlyphClass: 2
Flags: W
HStem: -202.182 72.166<137.336 277.39> 461 69<278.36 459.431> 640.991 119.008<520.482 594.955>
VStem: 497.7 120.041<663.798 737.19>
LayerCount: 2
Fore
SplineSet
278.360351562 530 m 1
 559.360351562 529.999023438 l 1
 445.541992188 36.9990234375 l 2
 434.995117188 -8.685546875 423.7421875 -52.10546875 390.911132812 -96.3818359375 c 0
 338.80078125 -166.657226562 256.560546875 -202.181640625 181.021484375 -202.181640625 c 0
 115.340820312 -202.181640625 63.494140625 -175.02734375 36.44921875 -128 c 1
 107.071289062 -56 l 1
 112.90234375 -61.947265625 109.317382812 -69.4814453125 112.276367188 -77.248046875 c 0
 114.93359375 -84.2216796875 138.9921875 -130.015625 202.999023438 -130.015625 c 0
 247.774414062 -130.015625 294.96484375 -106.297851562 324.859375 -63.2392578125 c 0
 344.393554688 -35.1015625 351.3203125 -7.275390625 357.848632812 21 c 2
 459.430664062 461 l 1
 262.430664062 461 l 1
 278.360351562 530 l 1
571.462890625 759.999023438 m 0
 604.630859375 759.999023438 625.310546875 733.279296875 617.741210938 700.4921875 c 0
 610.176757812 667.7265625 577.166992188 640.991210938 543.974609375 640.991210938 c 0
 510.802734375 640.991210938 490.134765625 667.71484375 497.700195312 700.484375 c 0
 505.268554688 733.262695312 538.28125 759.999023438 571.462890625 759.999023438 c 0
EndSplineSet
Validated: 524321
EndChar

StartChar: k
Encoding: 107 107 76
Width: 600
GlyphClass: 2
Flags: W
HStem: -1 21G<86.7695 175.387 444.463 563.422> 512 20G<532.661 568.505> 750 20G<260.151 359.769>
LayerCount: 2
Fore
SplineSet
264.768554688 770 m 1
 359.768554688 770 l 1
 359.248046875 762.17578125 352.885742188 756.8515625 349.393554688 753.358398438 c 0
 344.130859375 748.09375 343.000976562 745.014648438 341.84375 740 c 2
 237.029296875 286 l 1
 558.823242188 532 l 1
 578.186523438 526.94921875 599.141601562 526 619.4375 526 c 2
 649.4375 526 l 1
 377.955078125 316 l 1
 564.770507812 -1 l 1
 562.073242188 -0.982421875 559.373046875 -0.9736328125 556.670898438 -0.9736328125 c 0
 501.17578125 -0.9736328125 455.845703125 -5 455.845703125 -5 c 1
 302.1796875 265 l 1
 217.173828125 200 l 1
 170.76953125 -1 l 1
 86.76953125 -1 l 1
 264.768554688 770 l 1
EndSplineSet
Validated: 524289
EndChar

StartChar: l
Encoding: 108 108 77
Width: 600
GlyphClass: 2
Flags: W
HStem: 0 67<116.468 273.468 357.468 498> 703 67<285.769 420.301>
LayerCount: 2
Fore
SplineSet
285.768554688 770 m 1
 519.768554688 770 l 1
 357.467773438 67 l 1
 513.467773438 67 l 1
 498 0 l 1
 101 0 l 1
 116.467773438 67 l 1
 273.467773438 67 l 1
 420.30078125 703 l 1
 270.30078125 703 l 1
 285.768554688 770 l 1
EndSplineSet
Validated: 524289
EndChar

StartChar: m
Encoding: 109 109 78
Width: 600
GlyphClass: 2
Flags: W
HStem: -0.99707 21.9971G<54 134.617 265 347.617 475.769 559.386> 481.207 60.8506<293.374 382.658 499.619 588.177> 509.002 20G<171.511 253.128>
LayerCount: 2
Fore
SplineSet
54 0 m 1xc0
 176.127929688 529.001953125 l 1
 253.127929688 529.001953125 l 1xa0
 240.123046875 477.001953125 l 1
 273.005859375 514.018554688 320.061523438 542.057617188 363.484375 542.057617188 c 0
 410.924804688 542.057617188 441.146484375 508.723632812 439.352539062 465.001953125 c 1
 470.7265625 511.825195312 524.970703125 542.00390625 575.74609375 542.00390625 c 0
 605.525390625 542.00390625 635.633789062 530.577148438 648.850585938 499.9453125 c 0
 664.110351562 464.576171875 651.919921875 419.810546875 641.805664062 376.002929688 c 2
 554.768554688 -0.9970703125 l 1
 475.768554688 -0.9970703125 l 1
 562.575195312 375.002929688 l 2
 568.131835938 399.071289062 577.7109375 429.364257812 573.106445312 451.655273438 c 0
 569.065429688 471.231445312 555.028320312 481.20703125 537.900390625 481.20703125 c 0
 505.752929688 481.20703125 477.50390625 448.264648438 465.326171875 433.481445312 c 0
 438.168945312 400.515625 430.227539062 377.823242188 423.8046875 350.001953125 c 2
 343 0.001953125 l 1
 265 0.001953125 l 1
 349.959960938 368.001953125 l 2
 355 389.833984375 362.504882812 415.374023438 360.782226562 437.514648438 c 0
 358.521484375 466.573242188 340.0234375 478.297851562 321.1640625 478.297851562 c 0
 299.963867188 478.297851562 273.1171875 464.471679688 245.751953125 428.907226562 c 0
 224.318359375 401.048828125 217.251953125 377.927734375 211.49609375 353 c 2
 130 0 l 1
 54 0 l 1xc0
EndSplineSet
Validated: 524321
EndChar

StartChar: n
Encoding: 110 110 79
Width: 600
GlyphClass: 2
Flags: W
HStem: 0 21G<89 178.617 428.002 514.619> 469.58 72.4229<386.379 490.001> 509 20G<206.512 296.13>
LayerCount: 2
Fore
SplineSet
89 0 m 1xc0
 211.129882812 529 l 1
 296.129882812 529 l 1xa0
 274.659179688 436 l 1
 327.15234375 495.001953125 403.251953125 542.002929688 475.088867188 542.002929688 c 0
 535.413085938 542.002929688 581.85546875 508.12890625 594.459960938 448.568359375 c 0
 603.465820312 406.014648438 593.653320312 362.334960938 584.111328125 321.000976562 c 1
 510.001953125 0.0009765625 l 1
 428.001953125 0.0009765625 l 1
 501.649414062 319.000976562 l 2
 510.282226562 356.393554688 520.532226562 401.823242188 499.784179688 436.061523438 c 0
 486.016601562 458.78125 462.3203125 469.580078125 435.752929688 469.580078125 c 0
 379.7734375 469.580078125 318.09765625 422.787109375 291.708007812 395.893554688 c 0
 262.912109375 366.55078125 252.645507812 340.651367188 244.415039062 305 c 2
 174 0 l 1
 89 0 l 1xc0
EndSplineSet
Validated: 524321
EndChar

StartChar: o
Encoding: 111 111 80
Width: 600
GlyphClass: 2
Flags: W
HStem: -14 71.9922<253.215 396.608> 470.104 70.9014<332.363 477.45>
LayerCount: 2
Fore
SplineSet
603.670898438 262.303710938 m 0
 563.153320312 86.8037109375 427.094726562 -14 301.73828125 -14 c 0
 168.31640625 -14 79.8466796875 99.5322265625 117.02734375 260.578125 c 0
 154.7890625 424.139648438 297.430664062 541.004882812 432.340820312 541.004882812 c 0
 552.651367188 541.004882812 645.869140625 445.083984375 603.670898438 262.303710938 c 0
410.291992188 470.103515625 m 0
 329.329101562 470.103515625 236.774414062 397.57421875 206.814453125 267.805664062 c 0
 176.66796875 137.224609375 234.639648438 57.9921875 319.004882812 57.9921875 c 0
 396.274414062 57.9921875 488.166015625 125.599609375 518.927734375 258.84375 c 0
 552.486328125 404.202148438 486.662109375 470.103515625 410.291992188 470.103515625 c 0
EndSplineSet
Validated: 524321
EndChar

StartChar: p
Encoding: 112 112 81
Width: 600
GlyphClass: 2
Flags: W
HStem: -193 21G<35.4424 125.06> -14.1494 73.9883<242.792 398.525> 469.912 71.0889<361.255 480.764> 509.001 20G<201.129 281.511>
LayerCount: 2
Fore
SplineSet
201.12890625 529 m 1xe0
 286.12890625 529.000976562 l 1xd0
 267.427734375 448.000976562 l 1
 316.751953125 505.86328125 388.154296875 541.000976562 456.094726562 541.000976562 c 0
 560.24609375 541.000976562 651.634765625 457.517578125 608.501953125 270.690429688 c 0
 563.685546875 76.5712890625 428.833007812 -14.1494140625 320.618164062 -14.1494140625 c 0
 256.315429688 -14.1494140625 204.415039062 17.6552734375 181.161132812 70 c 1
 120.442382812 -193 l 1
 35.4423828125 -193 l 1
 201.12890625 529 l 1xe0
409.0859375 469.912109375 m 0xe0
 355.755859375 469.912109375 299.775390625 440.747070312 268.640625 393.19921875 c 0
 250.637695312 365.706054688 240.869140625 333.506835938 230.560546875 288.853515625 c 0
 212.858398438 212.178710938 202.45703125 168.561523438 209.713867188 132.850585938 c 0
 219.498046875 84.7099609375 263.684570312 59.8388671875 313.889648438 59.8388671875 c 0
 363.478515625 59.8388671875 479.184570312 86.54296875 517.727539062 253.48828125 c 0
 562.084960938 445.62109375 455.5546875 469.912109375 409.0859375 469.912109375 c 0xe0
EndSplineSet
Validated: 524321
EndChar

StartChar: q
Encoding: 113 113 82
Width: 600
GlyphClass: 2
Flags: W
HStem: -193.001 21G<394.442 482.06> -11.6572 73.4473<246.391 365.03> 475.033 68.0332<324.888 470.765> 508.999 20G<560.512 644.129>
LayerCount: 2
Fore
SplineSet
547.352539062 452 m 2xe0
 565.12890625 528.999023438 l 1
 644.12890625 528.999023438 l 1xd0
 477.442382812 -193.000976562 l 1
 394.442382812 -193.000976562 l 1
 458.624023438 84.9990234375 l 1
 411.913085938 26.0546875 341.3359375 -11.6572265625 273.918945312 -11.6572265625 c 0
 157.02734375 -11.6572265625 81.640625 98.080078125 121.248046875 269.637695312 c 0
 162.782226562 449.541015625 298.083007812 543.06640625 414.060546875 543.06640625 c 0
 531.515625 543.06640625 547.264648438 451.618164062 547.352539062 452 c 2xe0
401.619140625 475.033203125 m 0xe0
 330.59375 475.033203125 239.76953125 419.67578125 207.88671875 281.575195312 c 0
 173.354492188 131.999023438 233.91796875 61.7900390625 309.432617188 61.7900390625 c 0
 364.629882812 61.7900390625 427.807617188 99.06640625 462.688476562 162.1640625 c 0
 477.522460938 188.997070312 486.788085938 218.712890625 495.924804688 258.291015625 c 0
 510.702148438 322.297851562 515.889648438 355.625976562 512.19921875 384.852539062 c 0
 504.002929688 449.771484375 448.883789062 475.033203125 401.619140625 475.033203125 c 0xe0
EndSplineSet
Validated: 524321
EndChar

StartChar: r
Encoding: 114 114 83
Width: 600
GlyphClass: 2
Flags: W
HStem: -1 21G<124.77 213.306> 460 81.8027<424.275 575.793> 509 20G<242.512 334.129>
LayerCount: 2
Fore
SplineSet
247.12890625 529 m 1xa0
 334.12890625 529 l 1xa0
 307.581054688 427 l 1
 359.724609375 502.68359375 447.252929688 541.802734375 524.586914062 541.802734375 c 0
 584.043945312 541.802734375 627.3125 518.11328125 652.740234375 483.999023438 c 1
 595.270507812 403.999023438 l 1
 588.33984375 412.50390625 586.658203125 421.666992188 581.75390625 430.552734375 c 0
 571.2734375 449.541015625 538.740234375 460 494.19921875 460 c 0xc0
 456.76953125 460 398.005859375 450.051757812 332.344726562 374 c 4
 283.224609375 317.107421875 272.16796875 277.944335938 264.793945312 246 c 2
 208.76953125 -1 l 1
 124.76953125 -1 l 1
 247.12890625 529 l 1xa0
EndSplineSet
Validated: 524289
EndChar

StartChar: s
Encoding: 115 115 84
Width: 600
GlyphClass: 2
Flags: W
HStem: -12.002 70.001<222.956 408.463> 479.073 62.9307<332.407 497.265>
LayerCount: 2
Fore
SplineSet
616.96875 459 m 1
 551.112304688 385.998046875 l 1
 549.178710938 386.485351562 545.584960938 388.385742188 547.23046875 395.31640625 c 0
 548.198242188 399.387695312 549.599609375 402.168945312 547.30859375 406.381835938 c 0
 533.1640625 432.384765625 492.60546875 479.073242188 417.139648438 479.073242188 c 0
 357.2890625 479.073242188 298.748046875 449.384765625 288.913085938 406.78515625 c 0
 284.806640625 388.999023438 288.081054688 363.326171875 326.500976562 342.427734375 c 0
 370.4609375 318.515625 452.950195312 306.561523438 505.018554688 272.981445312 c 0
 559.540039062 237.8203125 563.546875 189.923828125 555.086914062 153.283203125 c 0
 536.639648438 73.376953125 441.3671875 -12.001953125 296.692382812 -12.001953125 c 0
 216.279296875 -12.001953125 141.424804688 14.2158203125 92.623046875 71.998046875 c 1
 159.78515625 154.998046875 l 1
 164.877929688 152.329101562 162.83984375 145.692382812 162.399414062 144.102539062 c 0
 161.1171875 139.46875 159.84765625 136.20703125 162.760742188 131.71875 c 0
 175.115234375 112.6796875 220.614257812 57.9990234375 311.356445312 57.9990234375 c 0
 386.984375 57.9990234375 455.34765625 92.1669921875 466.795898438 141.756835938 c 0
 471.212890625 160.88671875 468.5 188.764648438 429.545898438 209.208007812 c 0
 394.713867188 227.486328125 339.506835938 241.548828125 298.470703125 257.732421875 c 0
 272.133789062 268.119140625 179.672851562 301.798828125 201.01171875 394.23046875 c 0
 219.266601562 473.299804688 315.6796875 542.00390625 438.627929688 542.00390625 c 0
 516.931640625 542.00390625 580.49609375 512.905273438 616.96875 459 c 1
EndSplineSet
Validated: 524321
EndChar

StartChar: t
Encoding: 116 116 85
Width: 600
GlyphClass: 2
Flags: W
HStem: -10.1211 76.7939<342.557 461.008> 461.001 69<214.129 321.431 421.362 578.433>
LayerCount: 2
Fore
SplineSet
382.912109375 671 m 1
 477.377929688 686.000976562 l 1
 478.734375 674.250976562 468.754882812 667.1015625 463.58984375 654.700195312 c 0
 451.365234375 625.350585938 421.362304688 530.000976562 421.362304688 530.000976562 c 1
 594.362304688 530.000976562 l 1
 578.432617188 461.000976562 l 1
 404.432617188 461.000976562 l 1
 381.853515625 392.178710938 362.541992188 323.06640625 346.56640625 253.87109375 c 0
 328.8515625 177.137695312 326.9296875 156.76953125 326.474609375 152.110351562 c 0
 320.270507812 88.5380859375 356.301757812 66.6728515625 395.817382812 66.6728515625 c 0
 428.419921875 66.6728515625 472.91796875 81.5986328125 525.549804688 115 c 1
 536.3125 49 l 1
 483.977539062 16.23046875 416.478515625 -10.12109375 353.446289062 -10.12109375 c 0
 299.376953125 -10.12109375 262.85546875 10.888671875 245.916992188 46.259765625 c 0
 225.130859375 89.6689453125 236.983398438 142.866210938 247.947265625 190.358398438 c 0
 268.703125 280.259765625 293.115234375 370.358398438 321.430664062 461 c 1
 197.430664062 461 l 1
 214.12890625 529 l 1
 340.12890625 529 l 1
 382.912109375 671 l 1
EndSplineSet
Validated: 524321
EndChar

StartChar: u
Encoding: 117 117 86
Width: 600
GlyphClass: 2
Flags: W
HStem: -13.0156 68.0176<239.554 356.123> 0.00195312 21G<432.001 520.001> 509.002 20G<205.129 284.513 547.513 636.131>
VStem: 432.001 88<0.00195312 80.376>
LayerCount: 2
Fore
SplineSet
205.12890625 529 m 1xb0
 289.130859375 529.001953125 l 1
 221.024414062 234.001953125 l 2
 212.829101562 198.501953125 203.142578125 157.111328125 213.329101562 119.765625 c 0
 224.74609375 77.9091796875 258.11328125 55.001953125 299.545898438 55.001953125 c 0xb0
 350.5390625 55.001953125 405.485351562 89.1904296875 439.97265625 133.49609375 c 0
 465.122070312 165.801757812 475.5390625 197.249023438 484.948242188 238.001953125 c 2
 552.130859375 529.001953125 l 1
 636.130859375 529.001953125 l 1
 525.083007812 48.001953125 l 2
 521.501953125 32.4921875 518.567382812 15.822265625 520.000976562 0.001953125 c 1
 432.000976562 0.001953125 l 1x70
 432.958984375 13.6513671875 436.010742188 27.4951171875 439.466796875 41.0009765625 c 2
 449.701171875 81.0009765625 l 1
 401.724609375 22.5859375 330.899414062 -13.015625 264.515625 -13.015625 c 0
 195.643554688 -13.015625 139.788085938 25.4345703125 124.919921875 94.966796875 c 0
 114.9765625 141.466796875 125.223632812 187.899414062 136.0234375 234 c 2
 205.12890625 529 l 1xb0
EndSplineSet
Validated: 524321
EndChar

StartChar: v
Encoding: 118 118 87
Width: 600
GlyphClass: 2
Flags: W
HStem: -4 21G<261.828 343.237> 510 20G<178.36 278.36 570.451 661.36>
LayerCount: 2
Fore
SplineSet
178.360351562 530 m 1
 278.360351562 530 l 1
 278.173828125 520.530273438 271.044921875 514.36328125 269.41796875 507.31640625 c 0
 268.774414062 504.529296875 269.03125 502.450195312 269.434570312 500 c 2
 333.087890625 113 l 1
 463.569335938 310 l 2
 509.571289062 379.454101562 554.541992188 452.86328125 586.360351562 530 c 1
 661.360351562 530 l 1
 625.118164062 449.311523438 577.575195312 372.126953125 528.798828125 298 c 2
 330.076171875 -4 l 1
 265.076171875 -4 l 1
 178.360351562 530 l 1
EndSplineSet
Validated: 524289
EndChar

StartChar: w
Encoding: 119 119 88
Width: 600
GlyphClass: 2
Flags: W
HStem: -1 21G<134.77 219.81 399.673 516.951> 510 18.999G<149.773 235.359 605.787 689.128>
VStem: 134.77 75<103.999 237.41> 150.36 71.8408<291.59 529.578> 612.128 77<470.735 528.999>
LayerCount: 2
Fore
SplineSet
150.360351562 530 m 1xd8
 235.359375 529.999023438 l 1
 236.327148438 520.99609375 231.487304688 513.232421875 228.153320312 507.076171875 c 0
 223.1484375 497.831054688 222.424804688 493.650390625 222.201171875 485.999023438 c 2xd8
 211.008789062 103.999023438 l 1
 388.815429688 479.999023438 l 1
 439.815429688 479.999023438 l 1
 465.240234375 104.999023438 l 1
 580.390625 406.208007812 599.446289062 465.01953125 612.127929688 528.999023438 c 1
 689.127929688 528.999023438 l 1
 625.302734375 351.31640625 555.131835938 174.518554688 478.76953125 -1 c 1
 400.76953125 -1 l 1
 381.95703125 342 l 1
 209.76953125 -1 l 1
 134.76953125 -1 l 1xe8
 150.360351562 530 l 1xd8
EndSplineSet
Validated: 524289
EndChar

StartChar: x
Encoding: 120 120 89
Width: 600
GlyphClass: 2
Flags: W
HStem: 0 21G<65 177.032 433.437 538> 510 20G<190.36 290.894 534.252 637.36>
LayerCount: 2
Fore
SplineSet
552.360351562 530 m 1
 637.360351562 530 l 1
 406.288085938 272.196289062 l 1
 538 0 l 1
 443 0 l 1
 344.581054688 205.834960938 l 1
 159 0 l 1
 65 0 l 1
 312.970703125 269.048828125 l 1
 190.360351562 530 l 1
 281.360351562 530 l 1
 374.828125 333.91796875 l 1
 552.360351562 530 l 1
EndSplineSet
Validated: 524289
EndChar

StartChar: y
Encoding: 121 121 90
Width: 600
GlyphClass: 2
Flags: W
HStem: -201.182 68.4092<71.0281 185.131> 509 20.998G<188.671 289.13 572.393 669.36>
LayerCount: 2
Fore
SplineSet
185.12890625 529 m 1
 289.129882812 528.999023438 l 1
 287.375 518.578125 280.212890625 512.75390625 278.243164062 504.224609375 c 0
 277.46484375 500.8515625 277.733398438 498.28515625 278.280273438 494.998046875 c 2
 343.241210938 104.998046875 l 1
 509.80859375 388.998046875 l 2
 536.540039062 434.576171875 562.42578125 481.530273438 582.360351562 529.998046875 c 1
 669.360351562 529.998046875 l 1
 641.845703125 478.241210938 611.709960938 427.41015625 581.037109375 376.998046875 c 2
 315.147460938 -60.001953125 l 2
 296.9140625 -89.96875 279.288085938 -117.888671875 250.157226562 -143.90625 c 0
 205.719726562 -183.594726562 152.061523438 -201.181640625 104.249023438 -201.181640625 c 0
 60.7255859375 -201.181640625 23.548828125 -186.252929688 -0.2470703125 -157.001953125 c 1
 60.068359375 -82.001953125 l 1
 65.6689453125 -87.3583984375 63.294921875 -95.0849609375 64.9638671875 -100.8203125 c 0
 66.6064453125 -106.465820312 80.556640625 -132.772460938 119.79296875 -132.772460938 c 0
 144.586914062 -132.772460938 174.28125 -121.950195312 201.737304688 -98.482421875 c 0
 222.633789062 -80.62109375 238.418945312 -58.0556640625 252.458007812 -37 c 2
 278.461914062 2 l 1
 185.12890625 529 l 1
EndSplineSet
Validated: 524289
EndChar

StartChar: z
Encoding: 122 122 91
Width: 600
GlyphClass: 2
Flags: W
HStem: -1 72<197.393 530.77> 457 73<214.36 501.507>
LayerCount: 2
Fore
SplineSet
214.360351562 530 m 1
 626.361328125 530 l 1
 613.201171875 473 l 1
 197.392578125 71 l 1
 512.392578125 71 l 2
 528.534179688 71 535.081054688 80.1396484375 549.0078125 78 c 1
 530.76953125 -1 l 1
 67.76953125 -1 l 1
 80.9287109375 56 l 1
 501.506835938 457 l 1
 197.506835938 457 l 1
 214.360351562 530 l 1
EndSplineSet
Validated: 524321
EndChar

StartChar: braceleft
Encoding: 123 123 92
Width: 600
GlyphClass: 2
Flags: W
HStem: -184.001 65<299.663 439.521> 264 65<146.956 222.937> 672 66<466.807 638.146>
LayerCount: 2
Fore
SplineSet
146.956054688 329 m 1
 169.95703125 328.999023438 l 2
 190.537109375 328.999023438 222.096679688 328.583984375 253.522460938 355.12109375 c 0
 287.256835938 383.607421875 299.711914062 425.15625 306.25390625 453.491210938 c 0
 312.71875 481.49609375 315.819335938 507.73046875 322.444335938 536.424804688 c 0
 332.513671875 580.040039062 353.776367188 645.19921875 415.453125 691.646484375 c 0
 482.749023438 742.32421875 556.203125 738 618.3828125 738 c 2
 653.3828125 738 l 1
 638.145507812 672 l 1
 598.145507812 672 l 2
 547.487304688 672 513.28515625 676.7421875 477.62109375 657.279296875 c 0
 426.579101562 629.424804688 411.725585938 573.025390625 406.291992188 549.493164062 c 0
 399.887695312 521.75 397.451171875 496.3671875 390.916992188 468.061523438 c 0
 384.553710938 440.500976562 373.560546875 406.244140625 350.990234375 374.889648438 c 0
 325.80078125 339.8984375 289.963867188 312.377929688 250.569335938 297 c 1
 290.999023438 281.719726562 334.734375 237.614257812 306.776367188 116.515625 c 0
 298.505859375 80.69140625 287.8203125 50.30859375 280.73828125 19.6328125 c 0
 271.53125 -20.2490234375 265.712890625 -70.9765625 300.545898438 -99.5126953125 c 0
 327.205078125 -121.352539062 363.8828125 -119.000976562 411.526367188 -119.000976562 c 2
 454.526367188 -119.000976562 l 1
 439.520507812 -184.000976562 l 1
 397.520507812 -184.000976562 l 2
 325.94140625 -184.000976562 265.786132812 -187.506835938 224.6015625 -149.094726562 c 0
 174.373046875 -102.248046875 189.126953125 -23.005859375 198.837890625 19.0576171875 c 0
 209.263671875 64.2177734375 221.583984375 98.7587890625 229.924804688 134.883789062 c 0
 241.475585938 184.918945312 241.4453125 218.659179688 223.845703125 240.946289062 c 0
 205.456054688 264.235351562 175.555664062 264 155.94921875 264 c 2
 131.94921875 264 l 1
 146.956054688 329 l 1
EndSplineSet
Validated: 524321
EndChar

StartChar: bar
Encoding: 124 124 93
Width: 600
GlyphClass: 2
Flags: W
VStem: 220.598 292.938
LayerCount: 2
Fore
SplineSet
435.536132812 756 m 1
 513.536132812 756 l 1
 298.59765625 -175 l 1
 220.59765625 -175 l 1
 435.536132812 756 l 1
EndSplineSet
Validated: 524289
EndChar

StartChar: braceright
Encoding: 125 125 94
Width: 600
GlyphClass: 2
Flags: W
HStem: -184 65<117.521 255.735> 264 65<514.589 581.956> 672 66<312.144 431.928>
LayerCount: 2
Fore
SplineSet
604.956054688 329 m 1
 581.956054688 329 l 2
 561.375976562 329 529.625 328.584960938 510.452148438 355.122070312 c 0
 489.87109375 383.608398438 496.6015625 425.157226562 503.142578125 453.4921875 c 0
 509.608398438 481.497070312 518.62109375 507.731445312 525.245117188 536.424804688 c 0
 535.314453125 580.040039062 544.137695312 645.19921875 503.907226562 691.64453125 c 0
 460.010742188 742.32421875 384.560546875 738 322.380859375 738 c 2
 287.380859375 738 l 1
 272.143554688 672 l 1
 312.143554688 672 l 2
 362.801757812 672 399.193359375 676.7421875 425.87109375 657.279296875 c 0
 464.05078125 629.424804688 452.86328125 573.026367188 447.430664062 549.494140625 c 0
 441.025390625 521.750976562 431.740234375 496.368164062 425.206054688 468.061523438 c 0
 418.842773438 440.500976562 414.017578125 406.244140625 422.111328125 374.888671875 c 0
 431.143554688 339.8984375 454.2734375 312.377929688 486.567382812 297 c 1
 439.08203125 281.719726562 374.981445312 237.615234375 347.0234375 116.515625 c 0
 338.752929688 80.6923828125 335.41015625 50.3095703125 328.328125 19.6337890625 c 0
 319.120117188 -20.248046875 301.515625 -70.9755859375 253.506835938 -99.51171875 c 0
 216.762695312 -121.3515625 181.170898438 -119 133.526367188 -119 c 2
 90.5263671875 -119 l 1
 75.5205078125 -184 l 1
 117.520507812 -184 l 2
 189.099609375 -184 247.634765625 -187.505859375 306.555664062 -149.09375 c 0
 378.415039062 -102.247070312 400.250976562 -23.0048828125 409.961914062 19.0576171875 c 0
 420.387695312 64.2177734375 424.016601562 98.7587890625 432.356445312 134.883789062 c 0
 443.908203125 184.918945312 459.517578125 218.659179688 487.408203125 240.946289062 c 0
 516.55078125 264.235351562 546.342773438 264 565.94921875 264 c 2
 589.94921875 264 l 1
 604.956054688 329 l 1
EndSplineSet
Validated: 524329
EndChar

StartChar: asciitilde
Encoding: 126 126 95
Width: 600
GlyphClass: 2
Flags: W
HStem: 375.378 69.6221<461.899 560.875> 470 68.0518<272.778 373.625>
LayerCount: 2
Fore
SplineSet
200.729492188 380 m 1
 155.657226562 423 l 1
 203.25390625 481.034179688 275.717773438 538.051757812 341.372070312 538.051757812 c 0
 437 538.051757812 443.6171875 445 509.736328125 445 c 0
 547.7421875 445 598.848632812 494.653320312 642.668945312 540 c 5
 684.741210938 497 l 1
 643.998046875 451.28515625 560.043945312 375.377929688 487.19921875 375.377929688 c 0
 393.280273438 375.377929688 394.240234375 470 323.5078125 470 c 0
 290.755859375 470 241.130859375 427.982421875 200.729492188 380 c 1
EndSplineSet
Validated: 524289
EndChar

StartChar: exclamdown
Encoding: 161 161 97
Width: 600
GlyphClass: 2
Flags: W
HStem: -13.0156 21G<271.807 292.716> 515.985 20G<375.77 439.7> 636.983 137.019<411.954 488.757>
VStem: 239.077 122.473<21.6965 136.725> 381.7 58<512.376 535.985> 381.832 137.048<665.852 745.133>
LayerCount: 2
Fore
SplineSet
381.83203125 705.494140625 m 0xf4
 390.556640625 743.28515625 428.354492188 774.001953125 466.171875 774.001953125 c 0
 503.978515625 774.001953125 527.608398438 743.298828125 518.879882812 705.491210938 c 0
 510.154296875 667.69921875 472.357421875 636.983398438 434.5390625 636.983398438 c 0
 396.733398438 636.983398438 373.103515625 667.688476562 381.83203125 705.494140625 c 0xf4
282.680664062 -13.015625 m 0
 260.93359375 -13.015625 239.918945312 1.578125 239.077148438 36.6650390625 c 0
 238.912109375 43.509765625 239.241210938 56.49609375 245.530273438 83.7353515625 c 0
 255.750976562 128.006835938 273.7421875 171.869140625 286.822265625 215.985351562 c 2
 381.700195312 535.985351562 l 1
 439.700195312 535.985351562 l 1xf8
 382.822265625 215.985351562 l 2
 369.2890625 139.84765625 370.18359375 111.7109375 361.549804688 74.3154296875 c 0
 356.538085938 52.607421875 350.349609375 36.97265625 342.075195312 24.1669921875 c 0
 325.985351562 -0.736328125 302.750976562 -13.015625 282.680664062 -13.015625 c 0
EndSplineSet
Validated: 524321
EndChar

StartChar: cent
Encoding: 162 162 98
Width: 600
GlyphClass: 2
Flags: W
HStem: 37.9902 74.0107<358.609 452.454> 703 20G<499.794 583.068>
LayerCount: 2
Fore
SplineSet
506.91796875 723 m 1
 583.068359375 714.999023438 l 1
 582.111328125 707.497070312 577.1171875 701.296875 575.161132812 698.826171875 c 0
 570.96484375 693.525390625 568.560546875 690.93359375 565.681640625 683 c 2
 531.165039062 587.822265625 l 1
 591.24609375 575.2421875 629.721679688 541.293945312 647.97265625 498 c 1
 581.735351562 432 l 1
 577.209960938 435.7578125 578.75390625 442.015625 579.107421875 443.548828125 c 0
 580.619140625 450.098632812 583.766601562 455.065429688 579.44140625 462.133789062 c 0
 568.583007812 479.87109375 545.163085938 504.643554688 505.670898438 517.517578125 c 1
 358.609375 112.000976562 l 1
 359.326171875 112 l 2
 415.319335938 112 476.008789062 135.58984375 525.864257812 177.000976562 c 1
 554.935546875 121.000976562 l 1
 492.626953125 66.42578125 415.481445312 37.990234375 340.375 37.990234375 c 0
 337.49609375 37.990234375 334.640625 38.0302734375 331.8125 38.109375 c 1
 284.991210938 -90.9990234375 l 1
 219.837890625 -82.9990234375 l 1
 266.516601562 48.0546875 l 1
 159.8046875 79.5751953125 108.084960938 182.291015625 138.916015625 315.8359375 c 0
 174.788085938 471.21484375 303.512695312 585.20703125 460.510742188 592.708984375 c 1
 506.91796875 723 l 1
293.862304688 124.834960938 m 1
 436.634765625 525.68359375 l 1
 339.985351562 519.9921875 251.319335938 447.75390625 223.334960938 326.54296875 c 0
 200.041015625 225.646484375 230.283203125 152.958984375 293.862304688 124.834960938 c 1
EndSplineSet
Validated: 524321
EndChar

StartChar: sterling
Encoding: 163 163 99
Width: 600
GlyphClass: 2
Flags: W
HStem: -17.1631 76.0801<371.475 516.025> -9 21G<78.4483 124.596> 34.666 72.0098<223.837 325.875> 372.001 66<189.12 249.445 328.695 427.884> 656.13 65.876<419.347 558.428>
VStem: 249.703 78.9922<220.826 372 438.001 552.741>
LayerCount: 2
Fore
SplineSet
647.065429688 663 m 1x7c
 581.291015625 599.002929688 l 1
 573.434570312 605.936523438 576.311523438 615.248046875 571.267578125 622.674804688 c 0
 567.596679688 628.080078125 541.485351562 656.129882812 492.827148438 656.129882812 c 0
 430.65234375 656.129882812 358.47265625 609.40234375 336.206054688 512.95703125 c 0
 330.485351562 488.176757812 328.694335938 463.31640625 328.2890625 438.000976562 c 1
 443.12109375 438.000976562 l 1
 427.883789062 372.000976562 l 1
 328.6953125 372.000976562 l 1
 328.838867188 336.143554688 327.532226562 298.852539062 318.374023438 259.182617188 c 0
 305.163085938 201.958007812 277.801757812 148.500976562 240.01171875 104.000976562 c 1
 250.674804688 105.791992188 261.2734375 106.67578125 271.69140625 106.67578125 c 0x7c
 348.732421875 106.67578125 385.609375 58.9169921875 451.9609375 58.9169921875 c 0
 483.926757812 58.9169921875 516.826171875 70.85546875 545.008789062 91.0009765625 c 1
 562.157226562 31.0009765625 l 1
 531.2734375 10.25390625 480.751953125 -17.1630859375 430.178710938 -17.1630859375 c 0x9c
 356.296875 -17.1630859375 319.806640625 34.666015625 235.676757812 34.666015625 c 0
 211.997070312 34.666015625 166.270507812 30.265625 82.921875 -9 c 1
 68.1591796875 57 l 1
 127.821289062 81.9052734375 143.138671875 87.453125 168.063476562 115.98046875 c 0
 203.083007812 156.061523438 228.47265625 204.698242188 240.512695312 256.8515625 c 0
 249.682617188 296.572265625 250.172851562 334.482421875 249.703125 372 c 1
 173.8828125 372 l 1
 189.120117188 438 l 1
 249.4453125 438 l 1
 250.135742188 462.328125 252.327148438 486.841796875 258.119140625 511.927734375 c 0
 288.122070312 641.883789062 402.543945312 722.005859375 510.059570312 722.005859375 c 0
 565.2734375 722.005859375 614.288085938 701.137695312 647.065429688 663 c 1x7c
EndSplineSet
Validated: 524321
EndChar

StartChar: euro
Encoding: 8364 8364 100
Width: 600
GlyphClass: 2
Flags: W
HStem: -13.124 69.918<320.569 488.364> 253.002 67<136.878 173.396 255.73 452.41> 413.002 67<173.816 207.886 304.646 550.349> 661.168 66.2266<450.753 618.24>
VStem: 173.396 73.4932<134.441 253.002>
LayerCount: 2
Fore
SplineSet
701.52734375 665 m 1
 654.2890625 586.000976562 l 1
 647.58203125 592.758789062 654.377929688 602.068359375 649.821289062 609.779296875 c 0
 649.016601562 611.142578125 617.458007812 661.16796875 539.3984375 661.16796875 c 0
 470.208984375 661.16796875 376.959960938 620.98046875 315.456054688 502.3359375 c 0
 312.216796875 496.083984375 308.571289062 488.700195312 304.645507812 480.001953125 c 1
 590.817382812 480.001953125 l 1
 550.348632812 413.001953125 l 1
 279.432617188 413.001953125 l 1
 273.265625 393.405273438 267.013671875 370.758789062 260.977539062 344.615234375 c 0
 259.041015625 336.227539062 257.291015625 328.0234375 255.73046875 320.001953125 c 1
 493.877929688 320.001953125 l 1
 452.41015625 253.001953125 l 1
 246.889648438 253.001953125 l 1
 244.141601562 205.90625 250.446289062 166.802734375 266.668945312 134.87109375 c 0
 294.7109375 79.6796875 348.374023438 56.7939453125 402.048828125 56.7939453125 c 0
 448.2109375 56.7939453125 496.106445312 73.51171875 537.01171875 104.002929688 c 1
 556.622070312 46.0029296875 l 1
 503.393554688 7.4189453125 441.756835938 -13.1240234375 381.204101562 -13.1240234375 c 0
 287.428710938 -13.1240234375 154.186523438 38.470703125 173.396484375 253.001953125 c 1
 106.41015625 253.001953125 l 1
 136.877929688 320.001953125 l 1
 183.438476562 320.001953125 l 1
 184.676757812 326.061523438 186.018554688 332.2265625 187.465820312 338.497070312 c 0
 193.234375 363.48046875 199.974609375 388.44921875 207.885742188 413.000976562 c 1
 143.34765625 413.000976562 l 1
 173.81640625 480.000976562 l 1
 233.11328125 480.000976562 l 1
 251.102539062 521.099609375 273.259765625 559.766601562 300.654296875 593.83203125 c 0
 383.76171875 697.1796875 486.90625 727.39453125 559.287109375 727.39453125 c 0
 620.452148438 727.39453125 670.696289062 705.737304688 701.52734375 665 c 1
EndSplineSet
Validated: 524321
EndChar

StartChar: yen
Encoding: 165 165 101
Width: 600
GlyphClass: 2
Flags: W
HStem: 0 21G<269 352.617> 114 65<148.325 295.319 389.325 530.319> 252 66<180.416 327.179 421.416 562.179> 703 20G<218.918 315.426 615.837 716.687>
LayerCount: 2
Fore
SplineSet
218.91796875 723 m 1
 308.91796875 723 l 1
 407.1953125 421 l 1
 630.686523438 722 l 1
 716.686523438 722 l 1
 426.95703125 342 l 1
 421.416015625 318 l 1
 577.416015625 318 l 1
 562.178710938 252 l 1
 406.178710938 252 l 1
 389.325195312 179 l 1
 545.325195312 179 l 1
 530.319335938 114 l 1
 374.319335938 114 l 1
 348 0 l 1
 269 0 l 1
 295.319335938 114 l 1
 133.319335938 114 l 1
 148.325195312 179 l 1
 310.325195312 179 l 1
 327.178710938 252 l 1
 165.178710938 252 l 1
 180.416015625 318 l 1
 342.416015625 318 l 1
 347.95703125 342 l 1
 218.91796875 723 l 1
EndSplineSet
Validated: 524289
EndChar

StartChar: Scaron
Encoding: 352 352 102
Width: 600
GlyphClass: 2
Flags: W
HStem: -12.0684 73.0186<221.316 405.798> 659.139 66.8691<372.166 544.619>
LayerCount: 2
Fore
SplineSet
678.009765625 875 m 1
 499.459960938 760 l 1
 474.459960938 760 l 1
 357.547851562 873 l 1
 405.706054688 917 l 1
 506.775390625 835 l 1
 654.013671875 914 l 1
 678.009765625 875 l 1
660.83203125 636 m 1
 593.90234375 567 l 1
 591.546875 567.76953125 588.737304688 570.05859375 589.987304688 576.478515625 c 0
 590.818359375 580.739257812 591.958007812 583.155273438 589.923828125 587.626953125 c 0
 571.373046875 628.40234375 526.756835938 659.138671875 459.49609375 659.138671875 c 0
 376.840820312 659.138671875 317.448242188 608.659179688 304.66796875 553.303710938 c 0
 297.853515625 523.788085938 301.31640625 480.958984375 353.581054688 445.62109375 c 0
 410.7265625 406.982421875 507.716796875 386.477539062 556.8671875 327.334960938 c 0
 592.236328125 284.776367188 591.494140625 234.3515625 582.771484375 196.567382812 c 0
 561.791992188 105.698242188 469.692382812 -12.068359375 293.95703125 -12.068359375 c 0
 204.859375 -12.068359375 131.205078125 19.1669921875 88.7001953125 81 c 1
 155.862304688 164 l 1
 160.752929688 161.188476562 159.026367188 154.811523438 158.55859375 152.899414062 c 0
 157.388671875 148.118164062 156.413085938 145.188476562 158.978515625 140.59765625 c 0
 181.821289062 99.7119140625 233.913085938 60.9501953125 313.171875 60.9501953125 c 0
 417.9921875 60.9501953125 486.5703125 129.108398438 501.073242188 191.928710938 c 0
 508.52734375 224.217773438 504.012695312 261.930664062 463.509765625 291.612304688 c 0
 416.837890625 325.811523438 318.388671875 350.796875 262.911132812 400.176757812 c 0
 212.973632812 444.626953125 208.981445312 498.90625 218.700195312 541.00390625 c 0
 241.497070312 639.749023438 350.975585938 726.0078125 481.373046875 726.0078125 c 0
 560.078125 726.0078125 625.34765625 694.098632812 660.83203125 636 c 1
EndSplineSet
Validated: 524321
EndChar

StartChar: section
Encoding: 167 167 103
Width: 600
GlyphClass: 2
Flags: W
HStem: -63.0234 76.7822<215.448 369.614> 709.913 68.3564<399.643 535.65>
LayerCount: 2
Fore
SplineSet
644.067382812 676 m 1
 565.676757812 617.998046875 l 1
 558.661132812 624.418945312 563.095703125 633.706054688 562.05078125 641.760742188 c 0
 558.66015625 667.915039062 533.76953125 709.913085938 472.25 709.913085938 c 0
 411.208007812 709.913085938 357.482421875 669.157226562 346.345703125 620.919921875 c 0
 340.922851562 597.4296875 343.364257812 561.521484375 387.806640625 534.75 c 0
 417.00390625 517.161132812 458.208984375 507.39453125 499.734375 485.109375 c 0
 571.6953125 446.490234375 585.522460938 395.662109375 575.885742188 353.918945312 c 0
 564.702148438 305.477539062 519.579101562 262.525390625 464.380859375 241.875 c 1
 507.19140625 207.379882812 519.31640625 156.538085938 507.942382812 107.272460938 c 0
 487.098632812 16.9873046875 388.374023438 -63.0234375 271.224609375 -63.0234375 c 0
 194.075195312 -63.0234375 127.149414062 -27.5068359375 93.3115234375 35.998046875 c 1
 170.703125 106.998046875 l 1
 178.84765625 103.318359375 174.63671875 93.220703125 175.642578125 86.7060546875 c 0
 177.051757812 77.5810546875 201.861328125 13.7587890625 289.19921875 13.7587890625 c 0
 360.118164062 13.7587890625 413.3984375 57.0380859375 424.4765625 105.025390625 c 0
 430.73046875 132.110351562 424.247070312 163.981445312 390.223632812 187.298828125 c 0
 348.751953125 215.720703125 283.923828125 219.874023438 234.01171875 254.02734375 c 0
 189.579101562 284.431640625 176.985351562 326.186523438 186.197265625 366.086914062 c 0
 198.28125 418.4296875 247.831054688 463.115234375 307.672851562 482.822265625 c 1
 260.336914062 517.146484375 249.966796875 567.7109375 260.568359375 613.6328125 c 0
 280.96484375 701.981445312 379.059570312 778.26953125 487.615234375 778.26953125 c 0
 564.2734375 778.26953125 622.849609375 738.83203125 644.067382812 676 c 1
345.358398438 461.793945312 m 1
 312.212890625 451.721679688 283.650390625 423.139648438 275.874023438 389.456054688 c 0
 269.905273438 363.600585938 275.07421875 327.896484375 318.625976562 303.874023438 c 0
 349.627929688 286.774414062 388.525390625 281.477539062 426.32421875 264.584960938 c 1
 454.610351562 277.357421875 477.541992188 303.5859375 484.499023438 333.71875 c 0
 490.598632812 360.13671875 486.10546875 398.1640625 438.366210938 424.751953125 c 0
 411.993164062 439.438476562 377.932617188 447.454101562 345.358398438 461.793945312 c 1
EndSplineSet
Validated: 524321
EndChar

StartChar: scaron
Encoding: 353 353 104
Width: 600
GlyphClass: 2
Flags: W
HStem: -12 70<222.955 408.462> 479.074 62.9297<332.407 497.266>
LayerCount: 2
Fore
SplineSet
623.15234375 763 m 1
 456.520507812 600 l 1
 431.520507812 600 l 1
 341.3828125 764 l 1
 404.618164062 804 l 1
 467.14453125 685 l 1
 588.38671875 803 l 1
 623.15234375 763 l 1
616.96875 459 m 1
 551.115234375 386 l 1
 549.181640625 386.487304688 545.586914062 388.38671875 547.233398438 395.318359375 c 0
 548.200195312 399.388671875 549.602539062 402.169921875 547.310546875 406.3828125 c 0
 533.166015625 432.385742188 492.608398438 479.07421875 417.141601562 479.07421875 c 0
 357.290039062 479.07421875 298.749023438 449.385742188 288.9140625 406.786132812 c 0
 284.807617188 389 288.083007812 363.327148438 326.501953125 342.428710938 c 0
 370.461914062 318.516601562 452.950195312 306.561523438 505.01953125 272.983398438 c 0
 559.541015625 237.822265625 563.546875 189.92578125 555.087890625 153.28515625 c 0
 536.639648438 73.37890625 441.366210938 -12 296.69140625 -12 c 0
 216.278320312 -12 141.424804688 14.2177734375 92.6220703125 72 c 1
 159.784179688 155 l 1
 164.876953125 152.331054688 162.838867188 145.694335938 162.399414062 144.103515625 c 0
 161.116210938 139.469726562 159.846679688 136.208007812 162.758789062 131.719726562 c 0
 175.11328125 112.680664062 220.612304688 58 311.354492188 58 c 0
 386.982421875 58 455.346679688 92.16796875 466.794921875 141.756835938 c 0
 471.211914062 160.88671875 468.499023438 188.764648438 429.544921875 209.208007812 c 0
 394.712890625 227.486328125 339.505859375 241.547851562 298.469726562 257.732421875 c 0
 272.133789062 268.119140625 179.672851562 301.798828125 201.012695312 394.231445312 c 0
 219.266601562 473.299804688 315.6796875 542.00390625 438.627929688 542.00390625 c 0
 516.931640625 542.00390625 580.49609375 512.905273438 616.96875 459 c 1
EndSplineSet
Validated: 524321
EndChar

StartChar: copyright
Encoding: 169 169 105
Width: 600
GlyphClass: 2
Flags: W
HStem: 21.8867 50.0215<236.728 417.679> 140.974 60.9736<307.359 430.27> 433.152 57.9385<343.986 470.716> 564.999 49.0195<340.813 527.599>
VStem: 482.306 64.3486<383.999 419.26>
LayerCount: 2
Fore
SplineSet
426.997070312 491.090820312 m 0
 499.920898438 491.090820312 545.877929688 445.505859375 546.654296875 383.999023438 c 1
 481.34375 360.999023438 l 1
 476.674804688 368.85546875 482.415039062 377.022460938 482.305664062 384.630859375 c 0
 482.18359375 393.116210938 473.3828125 433.15234375 416.1171875 433.15234375 c 0
 361.423828125 433.15234375 300.125 399.046875 283.490234375 326.991210938 c 0
 267.310546875 256.911132812 303.0234375 201.947265625 363.858398438 201.947265625 c 0
 400.155273438 201.947265625 438.1015625 222.045898438 462.641601562 254 c 1
 505.791992188 220 l 1
 462.534179688 171.426757812 401.62109375 140.973632812 344.677734375 140.973632812 c 0
 250.431640625 140.973632812 194.268554688 222.733398438 216.592773438 319.4296875 c 0
 239.427734375 418.337890625 333.612304688 491.090820312 426.997070312 491.090820312 c 0
311.362304688 21.88671875 m 0
 157.999023438 21.88671875 60.9091796875 152.28515625 99.0224609375 317.374023438 c 0
 137.338867188 483.338867188 295.130859375 614.018554688 448.525390625 614.018554688 c 0
 601.494140625 614.018554688 698.705078125 483.765625 660.495117188 318.260742188 c 0
 622.2109375 152.430664062 464.526367188 21.88671875 311.362304688 21.88671875 c 0
152.09765625 317.797851562 m 0
 120.217773438 179.709960938 199.5390625 71.908203125 324.4296875 71.908203125 c 0
 448.934570312 71.908203125 578.481445312 179.646484375 610.581054688 318.68359375 c 0
 642.594726562 457.350585938 563.1015625 564.999023438 438.584960938 564.999023438 c 0
 313.87890625 564.999023438 184.249023438 457.057617188 152.09765625 317.797851562 c 0
EndSplineSet
Validated: 524321
EndChar

StartChar: ordfeminine
Encoding: 170 170 106
Width: 600
GlyphClass: 2
Flags: W
HStem: 175.999 63<153.179 543.634> 298 62.6885<307.85 422.735> 490.999 60.002<335.864 503.356> 659.022 62.2607<371.409 510.45>
LayerCount: 2
Fore
SplineSet
303.44921875 656 m 1
 356.12890625 703.844726562 419.620117188 721.283203125 474.3203125 721.283203125 c 0
 537.157226562 721.283203125 584.436523438 696.264648438 596.463867188 644.96484375 c 0
 602.62109375 618.696289062 597.779296875 592.461914062 590.747070312 562.000976562 c 2
 532.337890625 309.000976562 l 1
 459.337890625 309.000976562 l 1
 468.341796875 348.000976562 l 1
 426.473632812 315.568359375 378.091796875 298 333.16796875 298 c 0
 252.84765625 298 209.844726562 354.53515625 224.719726562 418.965820312 c 0
 233.584960938 457.36328125 264.192382812 500.379882812 318.430664062 526.099609375 c 0
 376.676757812 553.719726562 439.852539062 551.000976562 497.208007812 551.000976562 c 2
 514.208007812 551.000976562 l 1
 517.439453125 565.000976562 l 2
 521.961914062 584.588867188 526.359375 605.21875 518.399414062 624.596679688 c 0
 510.013671875 645.014648438 488.94140625 659.022460938 452.665039062 659.022460938 c 0
 412.534179688 659.022460938 366.642578125 643.693359375 332.368164062 608 c 1
 303.44921875 656 l 1
503.356445312 491 m 1
 484.357421875 490.999023438 l 2
 454.350585938 490.999023438 416.098632812 493.161132812 384.294921875 487.741210938 c 0
 331.067382812 478.670898438 306.12109375 447.249023438 300.328125 422.154296875 c 0
 292.836914062 389.706054688 314.486328125 360.688476562 359.122070312 360.688476562 c 0
 394.717773438 360.688476562 430.932617188 377.8984375 455.935546875 397.045898438 c 0
 486.368164062 420.353515625 492.51953125 444.059570312 498.739257812 471 c 2
 503.356445312 491 l 1
153.178710938 238.999023438 m 1
 558.178710938 238.999023438 l 1
 543.633789062 175.999023438 l 1
 138.633789062 175.999023438 l 1
 153.178710938 238.999023438 l 1
EndSplineSet
Validated: 524321
EndChar

StartChar: guillemotleft
Encoding: 171 171 107
Width: 600
GlyphClass: 2
Flags: W
LayerCount: 2
Fore
SplineSet
365.64453125 293 m 1
 581.123046875 464 l 1
 615.041015625 416 l 1
 443.412109375 279 l 1
 554.01171875 117 l 1
 497.391601562 71 l 1
 359.411132812 266 l 1
 365.64453125 293 l 1
155.64453125 293 m 1
 371.123046875 464 l 1
 405.041015625 416 l 1
 233.412109375 279 l 1
 344.01171875 117 l 1
 287.391601562 71 l 1
 149.411132812 266 l 1
 155.64453125 293 l 1
EndSplineSet
Validated: 524289
EndChar

StartChar: logicalnot
Encoding: 172 172 108
Width: 600
GlyphClass: 2
Flags: W
HStem: 329 73<208.809 491.956>
LayerCount: 2
Fore
SplineSet
208.80859375 402 m 1
 582.80859375 402 l 1
 532.017578125 182 l 1
 458.017578125 182 l 1
 491.956054688 329 l 1
 191.956054688 329 l 1
 208.80859375 402 l 1
EndSplineSet
Validated: 524289
EndChar

StartChar: softhyphen
Encoding: 173 173 109
Width: 600
GlyphClass: 2
Flags: W
HStem: 326 77<185.04 584.263>
LayerCount: 2
Fore
SplineSet
185.040039062 403 m 1
 602.040039062 403 l 1
 584.262695312 326 l 1
 167.262695312 326 l 1
 185.040039062 403 l 1
EndSplineSet
Validated: 524289
EndChar

StartChar: registered
Encoding: 174 174 110
Width: 600
GlyphClass: 2
Flags: W
HStem: 21.8877 50.0215<236.726 417.677> 296.999 45.999<322.189 387.568> 444.998 47<345.737 459.878> 565 49.0195<340.812 527.597>
LayerCount: 2
Fore
SplineSet
311.360351562 21.8876953125 m 0
 157.997070312 21.8876953125 60.9072265625 152.286132812 99.0205078125 317.375 c 0
 137.336914062 483.33984375 295.12890625 614.01953125 448.5234375 614.01953125 c 0
 601.493164062 614.01953125 698.703125 483.766601562 660.493164062 318.26171875 c 0
 622.208984375 152.431640625 464.524414062 21.8876953125 311.360351562 21.8876953125 c 0
152.096679688 317.798828125 m 0
 120.215820312 179.7109375 199.538085938 71.9091796875 324.427734375 71.9091796875 c 0
 448.932617188 71.9091796875 578.479492188 179.646484375 610.579101562 318.684570312 c 0
 642.592773438 457.3515625 563.099609375 565 438.583984375 565 c 0
 313.87890625 565 184.247070312 457.05859375 152.096679688 317.798828125 c 0
225.5546875 153.999023438 m 1
 303.587890625 491.998046875 l 1
 412.587890625 491.998046875 l 2
 438.430664062 491.998046875 465.537109375 491.819335938 489.591796875 480.540039062 c 0
 524.868164062 463.998046875 538.15625 429.490234375 529.900390625 393.727539062 c 0
 520.416015625 352.6484375 484.146484375 316.254882812 441.416015625 304.999023438 c 1
 482.939453125 159.999023438 l 1
 426.092773438 151.999023438 l 1
 387.568359375 296.999023438 l 1
 311.568359375 296.999023438 l 1
 278.5546875 153.999023438 l 1
 225.5546875 153.999023438 l 1
345.737304688 444.998046875 m 1
 322.189453125 342.998046875 l 1
 382.189453125 342.998046875 l 2
 401.208984375 342.998046875 423.96484375 342.904296875 445.041992188 354.541992188 c 0
 462.96875 364.439453125 473.610351562 379.474609375 476.892578125 393.689453125 c 0
 480.369140625 408.750976562 475.9921875 424.7734375 460.645507812 434.693359375 c 0
 444.379882812 445.208007812 421.7734375 444.998046875 402.737304688 444.998046875 c 2
 345.737304688 444.998046875 l 1
EndSplineSet
Validated: 524321
EndChar

StartChar: macron
Encoding: 175 175 111
Width: 600
GlyphClass: 2
Flags: W
HStem: 655 65<319.225 598.219>
VStem: 304.219 309.006
LayerCount: 2
Fore
SplineSet
319.224609375 720 m 1
 613.224609375 720 l 1
 598.21875 655 l 1
 304.21875 655 l 1
 319.224609375 720 l 1
EndSplineSet
Validated: 524289
EndChar

StartChar: degree
Encoding: 176 176 112
Width: 600
GlyphClass: 2
Flags: W
HStem: 428.901 63.9756<371.198 480.798> 679 61.0078<405.295 513.005>
LayerCount: 2
Fore
SplineSet
597.932617188 584.452148438 m 0
 578.145507812 498.74609375 491.9765625 428.901367188 405.458007812 428.901367188 c 0
 318.982421875 428.901367188 265.04296875 498.734375 284.837890625 584.4765625 c 0
 304.62109375 670.166992188 390.77734375 740.0078125 477.28125 740.0078125 c 0
 563.798828125 740.0078125 617.71875 670.157226562 597.932617188 584.452148438 c 0
464.39453125 679 m 0
 417.278320312 679 368.338867188 638.291015625 356.225585938 585.821289062 c 0
 344.170898438 533.608398438 374.158203125 492.876953125 421.381835938 492.876953125 c 0
 468.352539062 492.876953125 517.262695312 533.5546875 529.400390625 586.129882812 c 0
 541.451171875 638.326171875 511.470703125 679 464.39453125 679 c 0
EndSplineSet
Validated: 524321
EndChar

StartChar: plusminus
Encoding: 177 177 113
Width: 600
GlyphClass: 2
Flags: W
HStem: 20 73<84.4707 544.617> 397 71<170.046 358.654 448.046 629.654>
LayerCount: 2
Fore
SplineSet
84.470703125 93 m 1
 561.470703125 93 l 1
 544.6171875 20 l 1
 67.6171875 20 l 1
 84.470703125 93 l 1
420.7578125 666 m 1
 493.7578125 666 l 1
 448.045898438 468 l 1
 646.045898438 468 l 1
 629.654296875 397 l 1
 431.654296875 397 l 1
 381.556640625 180 l 1
 308.556640625 180 l 1
 358.654296875 397 l 1
 153.654296875 397 l 1
 170.045898438 468 l 1
 375.045898438 468 l 1
 420.7578125 666 l 1
EndSplineSet
Validated: 524289
EndChar

StartChar: uni00B2
Encoding: 178 178 114
Width: 600
GlyphClass: 2
Flags: W
HStem: 293.001 63<317.188 541.645> 678.918 59.3711<387.567 523.091>
LayerCount: 2
Fore
SplineSet
287.217773438 642 m 1
 335.95703125 702.486328125 409.274414062 738.2890625 479.544921875 738.2890625 c 0
 571.783203125 738.2890625 620.708007812 678.772460938 604.499023438 608.561523438 c 0
 591.833007812 553.701171875 545.4296875 516.004882812 525.467773438 500.834960938 c 0
 469.649414062 458.41796875 398.6328125 428.352539062 317.188476562 356.000976562 c 1
 528.188476562 356.000976562 l 2
 533.47265625 356.000976562 536.051757812 356.7421875 541.688476562 360.794921875 c 0
 544.575195312 362.872070312 551.553710938 368.497070312 558.498046875 366.000976562 c 1
 541.64453125 293.000976562 l 1
 217.64453125 293.000976562 l 1
 229.418945312 344.000976562 l 1
 314.584960938 433.276367188 412.743164062 489.779296875 453.959960938 517.997070312 c 0
 493.895507812 545.338867188 526.473632812 573.311523438 534.520507812 608.166992188 c 0
 543.008789062 644.932617188 519.016601562 678.91796875 463.616210938 678.91796875 c 0
 419.11328125 678.91796875 375.946289062 655.762695312 349.6171875 629.982421875 c 0
 341.541992188 622.076171875 341.168945312 616.904296875 332.90625 606 c 1
 287.217773438 642 l 1
EndSplineSet
Validated: 524321
EndChar

StartChar: uni00B3
Encoding: 179 179 115
Width: 600
GlyphClass: 2
Flags: W
HStem: 290.988 64.998<318.547 464.57> 495.102 54.793<397.822 496.345> 678.039 61.0713<384.989 518.237>
LayerCount: 2
Fore
SplineSet
479.181640625 739.110351562 m 0
 565.520507812 739.110351562 617.489257812 681.24609375 602.090820312 614.548828125 c 0
 592.301757812 572.149414062 557.229492188 536.233398438 515.9765625 523.998046875 c 1
 563.034179688 515.326171875 589.30078125 473.420898438 578.044921875 424.666992188 c 0
 560.5625 348.94140625 464.493164062 290.98828125 372.084960938 290.98828125 c 0
 308.879882812 290.98828125 255.125976562 318.469726562 224.5 365.999023438 c 1
 292.3515625 425.999023438 l 1
 300.059570312 415.15234375 292.690429688 404.24609375 301.051757812 393.712890625 c 0
 305.779296875 387.755859375 333.413085938 355.986328125 388.265625 355.986328125 c 0
 445.077148438 355.986328125 498.440429688 389.768554688 507.9609375 431.008789062 c 0
 512.881835938 452.32421875 509.629882812 495.1015625 420.94140625 495.1015625 c 0
 408.931640625 495.1015625 397.317382812 494.368164062 385.819335938 493 c 1
 399.208984375 551 l 1
 406.676757812 550.271484375 414.254882812 549.89453125 421.92578125 549.89453125 c 0
 497.84375 549.89453125 526.11328125 582.897460938 532.255859375 609.502929688 c 0
 540.259765625 644.172851562 513.697265625 678.0390625 461.580078125 678.0390625 c 0
 422.388671875 678.0390625 376.91796875 658.778320312 341.061523438 624.000976562 c 1
 308.989257812 667.000976562 l 1
 358.543945312 713.015625 420.852539062 739.110351562 479.181640625 739.110351562 c 0
EndSplineSet
Validated: 524321
EndChar

StartChar: Zcaron
Encoding: 381 381 116
Width: 600
GlyphClass: 2
Flags: W
HStem: -1 72<186.392 545.77> 649 73<248.687 581.833>
LayerCount: 2
Fore
SplineSet
672.009765625 875 m 1
 493.459960938 760 l 1
 468.459960938 760 l 1
 351.547851562 873 l 1
 399.706054688 917 l 1
 500.775390625 835 l 1
 648.013671875 914 l 1
 672.009765625 875 l 1
248.686523438 722 m 1
 694.686523438 722 l 1
 680.52734375 665 l 1
 186.391601562 71 l 1
 527.391601562 71 l 2
 543.533203125 71 550.081054688 80.1396484375 564.0078125 78 c 1
 545.76953125 -1 l 1
 67.76953125 -1 l 1
 80.9287109375 56 l 1
 581.833007812 649 l 1
 231.833007812 649 l 1
 248.686523438 722 l 1
EndSplineSet
Validated: 524321
EndChar

StartChar: micro
Encoding: 181 181 117
Width: 600
GlyphClass: 2
Flags: W
HStem: -193 21G<-6.55762 75.9541> -13.0039 62.9902<205.267 323.131 472.067 540.232> 509.001 20G<178.511 259.128 484.511 563.128>
VStem: -6.55762 72<-193 -116.399>
LayerCount: 2
Fore
SplineSet
-6.5576171875 -193 m 1
 25.3203125 -58.986328125 81.1572265625 87.3193359375 115.021484375 234.000976562 c 2
 183.127929688 529.000976562 l 1
 259.127929688 529.000976562 l 1
 186.634765625 215.000976562 l 2
 178.607421875 180.231445312 172.153320312 147.141601562 180.6953125 114.56640625 c 0
 191.657226562 72.7666015625 223.344726562 49.986328125 260.19921875 49.986328125 c 0
 302.133789062 49.986328125 349.772460938 78.8876953125 381.030273438 125.634765625 c 0
 401.21484375 155.819335938 410.044921875 186.456054688 418.250976562 222.000976562 c 2
 489.127929688 529.000976562 l 1
 563.127929688 529.000976562 l 1
 471.934570312 134.000976562 l 2
 467.826171875 116.20703125 462.780273438 95.025390625 468.663085938 77.6259765625 c 0
 473.817382812 62.3828125 485.90625 54.8671875 499.903320312 54.8671875 c 0
 539.178710938 54.8671875 576.625976562 111.000976562 576.625976562 111.000976562 c 1
 594.00390625 52.0009765625 l 1
 564 18.119140625 520.39453125 -12.1015625 477.442382812 -12.1015625 c 0
 428.3984375 -12.1015625 397.974609375 28.1357421875 403.0078125 78.0009765625 c 1
 363.413085938 22.6025390625 299.547851562 -13.00390625 239.868164062 -13.00390625 c 0
 183.502929688 -13.00390625 139.475585938 18.9990234375 127.161132812 70 c 1
 107.038085938 -18.0234375 86.4658203125 -105.66796875 65.4423828125 -193 c 1
 -6.5576171875 -193 l 1
EndSplineSet
Validated: 524321
EndChar

StartChar: paragraph
Encoding: 182 182 118
Width: 600
GlyphClass: 2
Flags: W
HStem: 704.998 66.002<522.764 610.764>
LayerCount: 2
Fore
SplineSet
692.999023438 771 m 1
 496.762695312 -79.001953125 l 1
 429.762695312 -79.001953125 l 1
 610.763671875 704.998046875 l 1
 522.763671875 704.998046875 l 1
 341.762695312 -79.001953125 l 1
 272.762695312 -79.001953125 l 1
 377.115234375 372.998046875 l 1
 261.447265625 380.689453125 192.485351562 470.14453125 216.586914062 574.543945312 c 0
 233.002929688 645.649414062 290.666015625 713.3828125 375.265625 746.68359375 c 0
 436.452148438 770.76953125 494.23046875 771 547.999023438 771 c 2
 692.999023438 771 l 1
EndSplineSet
Validated: 524321
EndChar

StartChar: periodcentered
Encoding: 183 183 119
Width: 600
GlyphClass: 2
Flags: W
HStem: 316.954 133.048<335.492 414.512>
VStem: 306.492 137.046<345.089 421.879>
LayerCount: 2
Fore
SplineSet
443.538085938 383.493164062 m 0
 435.115234375 347.008789062 397.7265625 316.954101562 359.615234375 316.954101562 c 0
 321.58984375 316.954101562 298.05859375 346.98046875 306.4921875 383.508789062 c 0
 314.908203125 419.962890625 352.274414062 450.001953125 390.353515625 450.001953125 c 0
 428.447265625 450.001953125 451.958007812 419.9609375 443.538085938 383.493164062 c 0
EndSplineSet
Validated: 524321
EndChar

StartChar: zcaron
Encoding: 382 382 120
Width: 600
GlyphClass: 2
Flags: W
HStem: -1 72<197.392 530.77> 457 73<214.36 501.507>
LayerCount: 2
Fore
SplineSet
623.15234375 763 m 1
 456.520507812 600 l 1
 431.520507812 600 l 1
 341.3828125 764 l 1
 404.618164062 804 l 1
 467.14453125 685 l 1
 588.38671875 803 l 1
 623.15234375 763 l 1
214.360351562 530 m 1
 626.360351562 530 l 1
 613.200195312 473 l 1
 197.391601562 71 l 1
 512.391601562 71 l 2
 528.533203125 71 535.081054688 80.1396484375 549.0078125 78 c 1
 530.76953125 -1 l 1
 67.76953125 -1 l 1
 80.9287109375 56 l 1
 501.506835938 457 l 1
 197.506835938 457 l 1
 214.360351562 530 l 1
EndSplineSet
Validated: 524321
EndChar

StartChar: uni00B9
Encoding: 185 185 121
Width: 600
GlyphClass: 2
Flags: W
VStem: 300.603 224.624
LayerCount: 2
Fore
SplineSet
525.2265625 733 m 1
 423.64453125 293 l 1
 349.64453125 293 l 1
 429.986328125 641 l 1
 311.291015625 612 l 1
 300.602539062 648 l 1
 475.2265625 733 l 1
 525.2265625 733 l 1
EndSplineSet
Validated: 524289
EndChar

StartChar: ordmasculine
Encoding: 186 186 122
Width: 600
GlyphClass: 2
Flags: W
HStem: 175.999 63<153.176 543.632> 296.939 66.9844<328.676 442.003> 655.999 65.0117<386.549 499.043>
LayerCount: 2
Fore
SplineSet
468.284179688 721.010742188 m 0
 551.682617188 721.010742188 621.049804688 653.806640625 588.947265625 514.754882812 c 0
 554.326171875 364.791992188 447.91796875 296.939453125 363.15234375 296.939453125 c 0
 271.377929688 296.939453125 207.274414062 374.4453125 236.461914062 500.868164062 c 0
 267.146484375 633.778320312 371.9609375 721.010742188 468.284179688 721.010742188 c 0
307.854492188 506.212890625 m 0
 285.456054688 409.1953125 328.916992188 363.923828125 380.412109375 363.923828125 c 0
 429.948242188 363.923828125 494.841796875 406.471679688 517.8671875 506.206054688 c 0
 540.79296875 605.5078125 500.993164062 655.999023438 447.654296875 655.999023438 c 0
 394.782226562 655.999023438 330.905273438 606.055664062 307.854492188 506.212890625 c 0
153.17578125 238.999023438 m 1
 558.17578125 238.999023438 l 1
 543.631835938 175.999023438 l 1
 138.631835938 175.999023438 l 1
 153.17578125 238.999023438 l 1
EndSplineSet
Validated: 524321
EndChar

StartChar: guillemotright
Encoding: 187 187 123
Width: 600
GlyphClass: 2
Flags: W
LayerCount: 2
Fore
SplineSet
384.64453125 293 m 1
 248.123046875 464 l 1
 192.041015625 416 l 1
 300.412109375 279 l 1
 115.01171875 117 l 1
 150.391601562 71 l 1
 378.411132812 266 l 1
 384.64453125 293 l 1
594.64453125 293 m 1
 458.123046875 464 l 1
 402.041015625 416 l 1
 510.412109375 279 l 1
 325.01171875 117 l 1
 360.391601562 71 l 1
 588.411132812 266 l 1
 594.64453125 293 l 1
EndSplineSet
Validated: 524297
EndChar

StartChar: OE
Encoding: 338 338 124
Width: 600
GlyphClass: 2
Flags: W
HStem: -8.08789 71.0713<186.155 280.171> -0.000976562 72<391.621 567.999> 339.999 74<470.578 619.494> 650.999 72<525.294 721.294> 665.004 66.998<307.945 404.316>
LayerCount: 2
Fore
SplineSet
462.298828125 690 m 1xa8
 469.916015625 722.999023438 l 1
 737.916015625 722.999023438 l 1
 721.293945312 650.999023438 l 1
 525.293945312 650.999023438 l 1
 470.578125 413.999023438 l 1
 636.578125 413.999023438 l 1
 619.494140625 339.999023438 l 1
 453.494140625 339.999023438 l 1
 391.62109375 71.9990234375 l 1
 584.62109375 71.9990234375 l 1
 567.999023438 -0.0009765625 l 1
 301.999023438 -0.0009765625 l 1x70
 310.309570312 35.9990234375 l 1
 280.516601562 7.8857421875 242.231445312 -8.087890625 205.428710938 -8.087890625 c 0
 148.271484375 -8.087890625 87.3173828125 30.580078125 79.17578125 139.125976562 c 0
 78.1171875 153.235351562 72.92578125 225.823242188 104.323242188 361.821289062 c 0
 126.780273438 459.095703125 153.942382812 542.924804688 201.77734375 615.563476562 c 0
 260.909179688 705.359375 329.912109375 732.001953125 376.7578125 732.001953125 c 0
 412.975585938 732.001953125 443.91796875 716.6171875 462.298828125 690 c 1xa8
181.729492188 375.778320312 m 0
 174.268554688 343.459960938 146.110351562 221.603515625 160.211914062 142.577148438 c 0
 171.568359375 78.9287109375 205.903320312 62.9833984375 232 62.9833984375 c 0
 272.045898438 62.9833984375 313.387695312 98.6044921875 336.62890625 150 c 1
 431.747070312 562 l 1
 428.439453125 601.236328125 413.4140625 665.00390625 361.198242188 665.00390625 c 0xa8
 327.033203125 665.00390625 285.434570312 636.140625 249.836914062 573.057617188 c 0
 237.828125 551.778320312 210.024414062 498.333984375 181.729492188 375.778320312 c 0
EndSplineSet
Validated: 524321
EndChar

StartChar: oe
Encoding: 339 339 125
Width: 600
GlyphClass: 2
Flags: W
HStem: -13.0244 70.8574<160.871 265.942 379.554 529.489> 256.003 65.999<389.339 583.339> 470.078 69.9785<245.626 345.712 462.733 582.644>
LayerCount: 2
Fore
SplineSet
321.75390625 540.056640625 m 0
 364.965820312 540.056640625 400.157226562 520.668945312 417.432617188 487.001953125 c 1
 454.743164062 520.961914062 502.036132812 540.07421875 546.908203125 540.07421875 c 0
 600.596679688 540.07421875 653.94140625 511.908203125 663.62109375 440.15234375 c 0
 670.509765625 389.090820312 653.484375 326.962890625 640.103515625 269.002929688 c 2
 637.1015625 256.002929688 l 1
 373.1015625 256.002929688 l 1
 356.840820312 182.931640625 352.364257812 148.322265625 358.35546875 119.842773438 c 0
 368.149414062 73.2822265625 406.521484375 53.9521484375 449.7265625 53.9521484375 c 0
 483.18359375 53.9521484375 527.395507812 65.2314453125 564.856445312 99.001953125 c 1
 594.313476562 49.001953125 l 1
 546.21484375 8.9814453125 487.569335938 -13.626953125 431.749023438 -13.626953125 c 0
 383.575195312 -13.626953125 340.802734375 3.22265625 310.849609375 34.001953125 c 1
 272.962890625 5.4033203125 227.284179688 -13.0244140625 185.325195312 -13.0244140625 c 0
 139.254882812 -13.0244140625 86.1982421875 10.4296875 68.0439453125 81.423828125 c 0
 53.35546875 138.868164062 66.1982421875 213.134765625 80.255859375 274.0234375 c 0
 92.5517578125 327.286132812 111.060546875 390.060546875 152.09375 444.00390625 c 0
 201.47265625 508.91796875 267.115234375 540.056640625 321.75390625 540.056640625 c 0
389.338867188 322.001953125 m 1
 583.338867188 322.001953125 l 1
 585.647460938 332.001953125 l 2
 593.561523438 366.279296875 602.682617188 402.65234375 591.453125 433.149414062 c 0
 580.581054688 462.678710938 552.78515625 476.793945312 522.813476562 476.793945312 c 0
 492.634765625 476.793945312 451.786132812 462.075195312 422.859375 414.080078125 c 0
 418.702148438 407.18359375 400.938476562 377.198242188 389.338867188 322.001953125 c 1
152.747070312 285.09375 m 0
 143.711914062 245.958984375 132.849609375 188.588867188 136.69921875 142.739257812 c 0
 141.9453125 80.2470703125 176.881835938 57.8330078125 211.708984375 57.8330078125 c 0
 240.661132812 57.8330078125 273.659179688 74.2490234375 280.342773438 103.200195312 c 0
 283.809570312 118.215820312 281.846679688 172.811523438 305.096679688 273.516601562 c 0
 325.002929688 359.741210938 345.45703125 403.188476562 349.280273438 419.748046875 c 0
 356.322265625 450.248046875 335.041992188 470.078125 304.806640625 470.078125 c 0
 272.004882812 470.078125 231.567382812 447.48828125 200.575195312 402.840820312 c 0
 173.001953125 363.119140625 160.28515625 317.748046875 152.747070312 285.09375 c 0
EndSplineSet
Validated: 524321
EndChar

StartChar: Ydieresis
Encoding: 376 376 126
Width: 600
GlyphClass: 2
Flags: W
HStem: 0 21G<265 357.617> 703 20G<209.918 307.386 624.926 724.687> 796.981 117.037<354.624 427.393 561.379 633.647>
VStem: 332.488 117.038<818.289 892.71> 539.509 116.004<818.277 892.75>
LayerCount: 2
Fore
SplineSet
449.526367188 855.498046875 m 0
 442.072265625 823.2109375 409.786132812 796.981445312 377.5 796.981445312 c 0
 345.209960938 796.981445312 325.034179688 823.208984375 332.48828125 855.499023438 c 0
 339.943359375 887.7890625 372.227539062 914.018554688 404.517578125 914.018554688 c 0
 436.807617188 914.018554688 456.981445312 887.7890625 449.526367188 855.498046875 c 0
655.512695312 855.51171875 m 0
 648.044921875 823.16796875 615.956054688 796.991210938 584.004882812 796.991210938 c 0
 552.060546875 796.991210938 532.038085938 823.155273438 539.508789062 855.513671875 c 0
 546.977539062 887.862304688 579.073242188 914.03515625 611.029296875 914.03515625 c 0
 642.958007812 914.03515625 662.984375 887.876953125 655.512695312 855.51171875 c 0
209.91796875 723 m 1
 301.91796875 723 l 1
 397.8828125 372 l 1
 638.686523438 722 l 1
 724.686523438 722 l 1
 418.797851562 285 l 1
 353 0 l 1
 265 0 l 1
 330.797851562 285 l 1
 209.91796875 723 l 1
EndSplineSet
Validated: 524321
EndChar

StartChar: questiondown
Encoding: 191 191 127
Width: 600
GlyphClass: 2
Flags: W
HStem: -15.0908 75.9072<250.662 397.424> 521.969 20G<373.665 454.282> 637.967 133.048<411.825 490.844>
VStem: 382.798 137.047<666.09 742.879>
LayerCount: 2
Fore
SplineSet
382.797851562 704.4765625 m 0
 391.220703125 740.959960938 428.609375 771.014648438 466.720703125 771.014648438 c 0
 504.747070312 771.014648438 528.27734375 740.98828125 519.844726562 704.459960938 c 0
 511.428710938 668.005859375 474.0625 637.966796875 435.983398438 637.966796875 c 0
 397.889648438 637.966796875 374.37890625 668.0078125 382.797851562 704.4765625 c 0
541.624023438 105.96875 m 1
 473.262695312 28.2783203125 377.038085938 -15.0908203125 290.2734375 -15.0908203125 c 0
 158.975585938 -15.0908203125 106.696289062 81.3359375 131.62890625 189.330078125 c 0
 156.766601562 298.212890625 243.540039062 342.302734375 289.62890625 376.29296875 c 0
 347.131835938 418.700195312 357.7734375 453.133789062 367.201171875 493.96875 c 2
 378.282226562 541.96875 l 1
 454.282226562 541.96875 l 1
 443.201171875 493.96875 l 2
 431.192382812 441.955078125 418.514648438 401.163085938 354.349609375 344.956054688 c 0
 310.44921875 306.500976562 239.41796875 259.172851562 221.891601562 183.259765625 c 0
 206.083984375 114.787109375 246.251953125 60.81640625 315.565429688 60.81640625 c 0
 374.153320312 60.81640625 444.670898438 99.857421875 495.321289062 160.96875 c 1
 541.624023438 105.96875 l 1
EndSplineSet
Validated: 524321
EndChar

StartChar: Agrave
Encoding: 192 192 128
Width: 600
GlyphClass: 2
Flags: W
HStem: 0 20G<26.7695 117.991 483.034 570> 211 63<256.258 451.258>
LayerCount: 2
Fore
SplineSet
431.706054688 917 m 1
 367.005859375 836 l 1
 546.614257812 765 l 1
 584.696289062 813 l 1
 431.706054688 917 l 1
26.76953125 -1 m 1
 451.688476562 735 l 1
 460.688476562 735 l 1
 570 0 l 1
 486 0 l 1
 454.712890625 211 l 1
 225.712890625 211 l 1
 106.76953125 -1 l 1
 26.76953125 -1 l 1
451.2578125 274 m 1
 412.747070312 549 l 1
 256.2578125 274 l 1
 451.2578125 274 l 1
EndSplineSet
Validated: 524297
EndChar

StartChar: Aacute
Encoding: 193 193 129
Width: 600
GlyphClass: 2
Flags: W
HStem: 0 20G<26.7695 117.991 483.034 570> 211 63<256.258 451.258>
LayerCount: 2
Fore
SplineSet
578.706054688 917 m 1
 606.005859375 836 l 1
 393.614257812 765 l 1
 377.696289062 813 l 1
 578.706054688 917 l 1
26.76953125 -1 m 1
 451.688476562 735 l 1
 460.688476562 735 l 1
 570 0 l 1
 486 0 l 1
 454.712890625 211 l 1
 225.712890625 211 l 1
 106.76953125 -1 l 1
 26.76953125 -1 l 1
451.2578125 274 m 1
 412.747070312 549 l 1
 256.2578125 274 l 1
 451.2578125 274 l 1
EndSplineSet
Validated: 524289
EndChar

StartChar: Acircumflex
Encoding: 194 194 130
Width: 600
GlyphClass: 2
Flags: W
HStem: 0 20G<26.7695 117.991 483.034 570> 211 63<256.258 451.258>
LayerCount: 2
Fore
SplineSet
313.15625 802 m 1
 491.706054688 917 l 1
 516.706054688 917 l 1
 633.618164062 804 l 1
 585.459960938 760 l 1
 484.390625 842 l 1
 337.15234375 763 l 1
 313.15625 802 l 1
26.76953125 -1 m 1
 451.688476562 735 l 1
 460.688476562 735 l 1
 570 0 l 1
 486 0 l 1
 454.712890625 211 l 1
 225.712890625 211 l 1
 106.76953125 -1 l 1
 26.76953125 -1 l 1
451.2578125 274 m 1
 412.747070312 549 l 1
 256.2578125 274 l 1
 451.2578125 274 l 1
EndSplineSet
Validated: 524289
EndChar

StartChar: Atilde
Encoding: 195 195 131
Width: 600
GlyphClass: 2
Flags: W
HStem: 0 20G<26.7695 117.991 483.034 570> 211 63<256.258 451.258> 775.754 67.1758<548.742 628.486> 863.432 65.8359<390.851 476.979>
LayerCount: 2
Fore
SplineSet
344.84765625 792 m 1
 301.389648438 829 l 1
 359.911132812 896.836914062 410.392578125 929.267578125 455.567382812 929.267578125 c 0
 502.400390625 929.267578125 525.612304688 895.067382812 536.920898438 879.549804688 c 0
 551.18359375 859.978515625 564.646484375 842.9296875 586.263671875 842.9296875 c 0
 614.842773438 842.9296875 634.65234375 869.991210938 667.705078125 904 c 1
 700.084960938 858 l 1
 648.517578125 808.139648438 609.487304688 775.75390625 566.747070312 775.75390625 c 0
 499.361328125 775.75390625 488.22265625 863.431640625 437.182617188 863.431640625 c 0
 406.4921875 863.431640625 382.950195312 836.786132812 344.84765625 792 c 1
26.76953125 -1 m 1
 451.688476562 735 l 1
 460.688476562 735 l 1
 570 0 l 1
 486 0 l 1
 454.712890625 211 l 1
 225.712890625 211 l 1
 106.76953125 -1 l 1
 26.76953125 -1 l 1
451.2578125 274 m 1
 412.747070312 549 l 1
 256.2578125 274 l 1
 451.2578125 274 l 1
EndSplineSet
Validated: 524289
EndChar

StartChar: Adieresis
Encoding: 196 196 132
Width: 600
GlyphClass: 2
Flags: W
HStem: 0 20G<26.7695 117.991 483.034 570> 211 63<256.258 451.258> 796.981 117.037<346.624 419.393 553.379 625.647>
VStem: 324.488 117.038<818.289 892.71> 531.509 116.004<818.277 892.75>
LayerCount: 2
Fore
SplineSet
441.526367188 855.498046875 m 0
 434.072265625 823.2109375 401.786132812 796.981445312 369.5 796.981445312 c 0
 337.209960938 796.981445312 317.034179688 823.208984375 324.48828125 855.499023438 c 0
 331.943359375 887.7890625 364.227539062 914.018554688 396.517578125 914.018554688 c 0
 428.807617188 914.018554688 448.981445312 887.7890625 441.526367188 855.498046875 c 0
647.512695312 855.51171875 m 0
 640.044921875 823.16796875 607.956054688 796.991210938 576.004882812 796.991210938 c 0
 544.060546875 796.991210938 524.038085938 823.155273438 531.508789062 855.513671875 c 0
 538.977539062 887.862304688 571.073242188 914.03515625 603.029296875 914.03515625 c 0
 634.958007812 914.03515625 654.984375 887.876953125 647.512695312 855.51171875 c 0
26.76953125 -1 m 1
 451.688476562 735 l 1
 460.688476562 735 l 1
 570 0 l 1
 486 0 l 1
 454.712890625 211 l 1
 225.712890625 211 l 1
 106.76953125 -1 l 1
 26.76953125 -1 l 1
451.2578125 274 m 1
 412.747070312 549 l 1
 256.2578125 274 l 1
 451.2578125 274 l 1
EndSplineSet
Validated: 524321
EndChar

StartChar: Aring
Encoding: 197 197 133
Width: 600
GlyphClass: 2
Flags: W
HStem: 0 20G<26.7695 117.991 483.034 570> 211 63<256.258 451.258> 716.958 18.042<451.688 460.688> 873.012 47.9932<447.132 524.09>
LayerCount: 2
Fore
SplineSet
583.084960938 818.997070312 m 0
 570.190429688 763.14453125 512.561523438 716.958007812 453.447265625 716.958007812 c 0
 394.47265625 716.958007812 358.096679688 763.100585938 371.016601562 819.065429688 c 0
 383.897460938 874.856445312 441.491210938 921.004882812 500.541992188 921.004882812 c 0
 559.643554688 921.004882812 595.9765625 874.836914062 583.084960938 818.997070312 c 0
430.173828125 819.774414062 m 0
 423.325195312 790.110351562 439.678710938 766.896484375 466.046875 766.896484375 c 0
 492.083984375 766.896484375 519.3828125 789.836914062 526.362304688 820.068359375 c 0
 533.233398438 849.828125 516.8828125 873.01171875 490.572265625 873.01171875 c 0
 464.55078125 873.01171875 437.168945312 850.072265625 430.173828125 819.774414062 c 0
26.76953125 -1 m 1
 451.688476562 735 l 1
 460.688476562 735 l 1
 570 0 l 1
 486 0 l 1
 454.712890625 211 l 1
 225.712890625 211 l 1
 106.76953125 -1 l 1
 26.76953125 -1 l 1
451.2578125 274 m 1
 412.747070312 549 l 1
 256.2578125 274 l 1
 451.2578125 274 l 1
EndSplineSet
Validated: 524325
EndChar

StartChar: AE
Encoding: 198 198 134
Width: 600
GlyphClass: 2
Flags: W
HStem: 0 72<391.622 568> 196 67<228.719 347.25> 340 74<467.579 619.495> 651 72<439.295 452.295 520.295 721.295>
LayerCount: 2
Fore
SplineSet
408.91796875 723 m 1
 737.91796875 723 l 1
 721.294921875 651 l 1
 520.294921875 651 l 1
 467.579101562 414 l 1
 636.579101562 414 l 1
 619.495117188 340 l 1
 451.495117188 340 l 1
 391.622070312 72 l 1
 584.622070312 72 l 1
 568 0 l 1
 302 0 l 1
 347.25 196 l 1
 196.25 196 l 1
 89 0 l 1
 15 0 l 1
 408.91796875 723 l 1
452.294921875 651 m 1
 439.294921875 651 l 1
 228.71875 263 l 1
 362.71875 263 l 1
 452.294921875 651 l 1
EndSplineSet
Validated: 524289
EndChar

StartChar: Ccedilla
Encoding: 199 199 135
Width: 600
GlyphClass: 2
Flags: W
HStem: -205.092 50.0811<219.838 355.87> -12.002 12.002<313 363> 663.168 64.832<404.809 552.628>
LayerCount: 2
Fore
SplineSet
313 0 m 1
 363 0 l 1
 344.302734375 -55 l 1
 363.071289062 -56 l 2
 377.676757812 -56.7783203125 392.668945312 -57.716796875 405.889648438 -64.94140625 c 0
 425.505859375 -75.66015625 432.79296875 -96.4921875 427.606445312 -118.956054688 c 0
 418.049804688 -160.3515625 367.083984375 -205.091796875 282.040039062 -205.091796875 c 0
 237.521484375 -205.091796875 190.866210938 -192.447265625 154.599609375 -162 c 1
 194.680664062 -114 l 1
 224.301757812 -143.352539062 265.244140625 -155.010742188 300.27734375 -155.010742188 c 0
 345.331054688 -155.010742188 357.413085938 -136.826171875 359.7421875 -126.739257812 c 0
 361.317382812 -119.915039062 359.5625 -112.17578125 351.766601562 -106.611328125 c 0
 341.0546875 -98.9638671875 324.34375 -99 311.14453125 -99 c 2
 277.14453125 -99 l 1
 313 0 l 1
499.690429688 728 m 0
 595.614257812 728 669.329101562 672.041992188 688.057617188 585 c 1
 602.28515625 547 l 1
 597.817382812 550.736328125 599.314453125 557.018554688 599.626953125 558.375 c 0
 600.291992188 561.256835938 601.44921875 564.141601562 602.11328125 567.015625 c 0
 603.356445312 572.403320312 602.356445312 575.396484375 600.973632812 579.368164062 c 0
 583.452148438 629.69921875 538.500976562 663.16796875 481.986328125 663.16796875 c 0
 379.919921875 663.16796875 264.298828125 555.779296875 220.015625 363.96875 c 0
 174.966796875 168.838867188 242.806640625 57.994140625 349.043945312 57.994140625 c 0
 405.706054688 57.994140625 470.684570312 90.884765625 516.70703125 146 c 1
 567.703125 107 l 1
 505.307617188 32.978515625 414.446289062 -12.001953125 328.337890625 -12.001953125 c 0
 209.407226562 -12.001953125 74.9404296875 77.8505859375 139.341796875 356.806640625 c 0
 206.0703125 645.837890625 387.399414062 728 499.690429688 728 c 0
EndSplineSet
Validated: 524325
EndChar

StartChar: Egrave
Encoding: 200 200 136
Width: 600
GlyphClass: 2
Flags: W
HStem: 0 72<171.622 518> 340 74<250.579 535.495> 651 72<305.295 671.295>
LayerCount: 2
Fore
SplineSet
431.706054688 917 m 1
 367.005859375 836 l 1
 546.614257812 765 l 1
 584.696289062 813 l 1
 431.706054688 917 l 1
244.91796875 723 m 1
 687.91796875 723 l 1
 671.294921875 651 l 1
 305.294921875 651 l 1
 250.579101562 414 l 1
 552.579101562 414 l 1
 535.495117188 340 l 1
 233.495117188 340 l 1
 171.622070312 72 l 1
 534.622070312 72 l 1
 518 0 l 1
 78 0 l 1
 244.91796875 723 l 1
EndSplineSet
Validated: 524297
EndChar

StartChar: Eacute
Encoding: 201 201 137
Width: 600
GlyphClass: 2
Flags: W
HStem: 0 72<171.622 518> 340 74<250.579 535.495> 651 72<305.295 671.295>
LayerCount: 2
Fore
SplineSet
598.706054688 917 m 1
 626.005859375 836 l 1
 413.614257812 765 l 1
 397.696289062 813 l 1
 598.706054688 917 l 1
244.91796875 723 m 1
 687.91796875 723 l 1
 671.294921875 651 l 1
 305.294921875 651 l 1
 250.579101562 414 l 1
 552.579101562 414 l 1
 535.495117188 340 l 1
 233.495117188 340 l 1
 171.622070312 72 l 1
 534.622070312 72 l 1
 518 0 l 1
 78 0 l 1
 244.91796875 723 l 1
EndSplineSet
Validated: 524289
EndChar

StartChar: Ecircumflex
Encoding: 202 202 138
Width: 600
GlyphClass: 2
Flags: W
HStem: 0 72<171.622 518> 340 74<250.579 535.495> 651 72<305.295 671.295>
LayerCount: 2
Fore
SplineSet
323.15625 802 m 1
 501.706054688 917 l 1
 526.706054688 917 l 1
 643.618164062 804 l 1
 595.459960938 760 l 1
 494.390625 842 l 1
 347.15234375 763 l 1
 323.15625 802 l 1
244.91796875 723 m 1
 687.91796875 723 l 1
 671.294921875 651 l 1
 305.294921875 651 l 1
 250.579101562 414 l 1
 552.579101562 414 l 1
 535.495117188 340 l 1
 233.495117188 340 l 1
 171.622070312 72 l 1
 534.622070312 72 l 1
 518 0 l 1
 78 0 l 1
 244.91796875 723 l 1
EndSplineSet
Validated: 524289
EndChar

StartChar: Edieresis
Encoding: 203 203 139
Width: 600
GlyphClass: 2
Flags: W
HStem: 0 72<171.622 518> 340 74<250.579 535.495> 651 72<305.295 671.295> 796.981 117.037<354.624 427.393 561.379 633.647>
VStem: 332.488 117.038<818.289 892.71> 539.509 116.004<818.277 892.75>
LayerCount: 2
Fore
SplineSet
449.526367188 855.498046875 m 0
 442.072265625 823.2109375 409.786132812 796.981445312 377.5 796.981445312 c 0
 345.209960938 796.981445312 325.034179688 823.208984375 332.48828125 855.499023438 c 0
 339.943359375 887.7890625 372.227539062 914.018554688 404.517578125 914.018554688 c 0
 436.807617188 914.018554688 456.981445312 887.7890625 449.526367188 855.498046875 c 0
655.512695312 855.51171875 m 0
 648.044921875 823.16796875 615.956054688 796.991210938 584.004882812 796.991210938 c 0
 552.060546875 796.991210938 532.038085938 823.155273438 539.508789062 855.513671875 c 0
 546.977539062 887.862304688 579.073242188 914.03515625 611.029296875 914.03515625 c 0
 642.958007812 914.03515625 662.984375 887.876953125 655.512695312 855.51171875 c 0
244.91796875 723 m 1
 687.91796875 723 l 1
 671.294921875 651 l 1
 305.294921875 651 l 1
 250.579101562 414 l 1
 552.579101562 414 l 1
 535.495117188 340 l 1
 233.495117188 340 l 1
 171.622070312 72 l 1
 534.622070312 72 l 1
 518 0 l 1
 78 0 l 1
 244.91796875 723 l 1
EndSplineSet
Validated: 524321
EndChar

StartChar: Igrave
Encoding: 204 204 140
Width: 600
GlyphClass: 2
Flags: W
HStem: -1 67<119.468 261.468 342.237 476.77> 654 68<278.687 396.988 477.988 620.988>
LayerCount: 2
Fore
SplineSet
431.706054688 917 m 1
 367.005859375 836 l 1
 546.614257812 765 l 1
 584.696289062 813 l 1
 431.706054688 917 l 1
278.686523438 722 m 1
 636.686523438 722 l 1
 620.98828125 654 l 1
 477.98828125 654 l 1
 342.237304688 66 l 1
 492.237304688 66 l 1
 476.76953125 -1 l 1
 103.76953125 -1 l 1
 119.467773438 67 l 1
 261.467773438 67 l 1
 396.98828125 654 l 1
 262.98828125 654 l 1
 278.686523438 722 l 1
EndSplineSet
Validated: 524297
EndChar

StartChar: Iacute
Encoding: 205 205 141
Width: 600
GlyphClass: 2
Flags: W
HStem: -1 67<119.468 261.468 342.237 476.77> 654 68<278.687 396.988 477.988 620.988>
LayerCount: 2
Fore
SplineSet
598.706054688 917 m 1
 626.005859375 836 l 1
 413.614257812 765 l 1
 397.696289062 813 l 1
 598.706054688 917 l 1
278.686523438 722 m 1
 636.686523438 722 l 1
 620.98828125 654 l 1
 477.98828125 654 l 1
 342.237304688 66 l 1
 492.237304688 66 l 1
 476.76953125 -1 l 1
 103.76953125 -1 l 1
 119.467773438 67 l 1
 261.467773438 67 l 1
 396.98828125 654 l 1
 262.98828125 654 l 1
 278.686523438 722 l 1
EndSplineSet
Validated: 524289
EndChar

StartChar: Icircumflex
Encoding: 206 206 142
Width: 600
GlyphClass: 2
Flags: W
HStem: -1 67<119.468 261.468 342.237 476.77> 654 68<278.687 396.988 477.988 620.988>
LayerCount: 2
Fore
SplineSet
312.15625 802 m 1
 490.706054688 917 l 1
 515.706054688 917 l 1
 632.618164062 804 l 1
 584.459960938 760 l 1
 483.390625 842 l 1
 336.15234375 763 l 1
 312.15625 802 l 1
278.686523438 722 m 1
 636.686523438 722 l 1
 620.98828125 654 l 1
 477.98828125 654 l 1
 342.237304688 66 l 1
 492.237304688 66 l 1
 476.76953125 -1 l 1
 103.76953125 -1 l 1
 119.467773438 67 l 1
 261.467773438 67 l 1
 396.98828125 654 l 1
 262.98828125 654 l 1
 278.686523438 722 l 1
EndSplineSet
Validated: 524289
EndChar

StartChar: Idieresis
Encoding: 207 207 143
Width: 600
GlyphClass: 2
Flags: W
HStem: -1 67<119.468 261.468 342.237 476.77> 654 68<278.687 396.988 477.988 620.988> 796.981 117.037<350.624 423.393 557.379 629.647>
VStem: 328.488 117.038<818.289 892.71> 535.509 116.004<818.277 892.75>
LayerCount: 2
Fore
SplineSet
445.526367188 855.498046875 m 0
 438.072265625 823.2109375 405.786132812 796.981445312 373.5 796.981445312 c 0
 341.209960938 796.981445312 321.034179688 823.208984375 328.48828125 855.499023438 c 0
 335.943359375 887.7890625 368.227539062 914.018554688 400.517578125 914.018554688 c 0
 432.807617188 914.018554688 452.981445312 887.7890625 445.526367188 855.498046875 c 0
651.512695312 855.51171875 m 0
 644.044921875 823.16796875 611.956054688 796.991210938 580.004882812 796.991210938 c 0
 548.060546875 796.991210938 528.038085938 823.155273438 535.508789062 855.513671875 c 0
 542.977539062 887.862304688 575.073242188 914.03515625 607.029296875 914.03515625 c 0
 638.958007812 914.03515625 658.984375 887.876953125 651.512695312 855.51171875 c 0
278.686523438 722 m 1
 636.686523438 722 l 1
 620.98828125 654 l 1
 477.98828125 654 l 1
 342.237304688 66 l 1
 492.237304688 66 l 1
 476.76953125 -1 l 1
 103.76953125 -1 l 1
 119.467773438 67 l 1
 261.467773438 67 l 1
 396.98828125 654 l 1
 262.98828125 654 l 1
 278.686523438 722 l 1
EndSplineSet
Validated: 524321
EndChar

StartChar: Eth
Encoding: 208 208 144
Width: 600
GlyphClass: 2
Flags: W
HStem: -1 66.998<191.237 372.138> 348.998 67<141.041 377.572> 653.998 68.002<326.987 504.522>
LayerCount: 2
Fore
SplineSet
267.686523438 722 m 1
 429.686523438 721.998046875 l 2
 492.317382812 721.998046875 541.138671875 716.400390625 582.868164062 679.12890625 c 0
 654.913085938 614.78125 662.768554688 487.958984375 634.407226562 365.11328125 c 0
 598.877929688 211.21875 507.81640625 72.982421875 384.76171875 21.2490234375 c 0
 339.36328125 2.1630859375 299.997070312 -1 248.76953125 -1 c 2
 100.76953125 -1 l 1
 267.686523438 722 l 1
326.987304688 653.998046875 m 1
 191.237304688 65.998046875 l 1
 260.237304688 65.998046875 l 2
 301.495117188 65.998046875 340.4765625 68.236328125 387.66796875 95.794921875 c 0
 468.374023438 142.924804688 527.850585938 240.807617188 554.234375 355.087890625 c 0
 572.813476562 435.564453125 576.026367188 524.971679688 546.288085938 584.514648438 c 0
 512.55859375 652.047851562 453.62109375 653.998046875 408.987304688 653.998046875 c 2
 326.987304688 653.998046875 l 1
141.041015625 415.998046875 m 1
 393.041015625 415.998046875 l 1
 377.572265625 348.998046875 l 1
 125.572265625 348.998046875 l 1
 141.041015625 415.998046875 l 1
EndSplineSet
Validated: 524325
EndChar

StartChar: Ntilde
Encoding: 209 209 145
Width: 600
GlyphClass: 2
Flags: W
HStem: 0 21G<68 150.617 457.209 532.387> 702 21G<230.069 320.396 612.301 702.918> 775.754 67.1758<553.742 633.486> 863.432 65.8359<395.851 481.979>
LayerCount: 2
Fore
SplineSet
349.84765625 792 m 1
 306.389648438 829 l 1
 364.911132812 896.836914062 415.392578125 929.267578125 460.567382812 929.267578125 c 0
 507.400390625 929.267578125 530.612304688 895.067382812 541.920898438 879.549804688 c 0
 556.18359375 859.978515625 569.646484375 842.9296875 591.263671875 842.9296875 c 0
 619.842773438 842.9296875 639.65234375 869.991210938 672.705078125 904 c 1
 705.084960938 858 l 1
 653.517578125 808.139648438 614.487304688 775.75390625 571.747070312 775.75390625 c 0
 504.361328125 775.75390625 493.22265625 863.431640625 442.182617188 863.431640625 c 0
 411.4921875 863.431640625 387.950195312 836.786132812 349.84765625 792 c 1
68 0 m 1
 234.686523438 722 l 1
 313.686523438 722 l 1
 493.171875 187 l 1
 616.91796875 723 l 1
 702.91796875 723 l 1
 702.2890625 716.254882812 697.990234375 710.682617188 696.126953125 708.219726562 c 0
 692.129882812 702.938476562 689.62109375 700.057617188 687.760742188 692 c 2
 527.76953125 -1 l 1
 463.76953125 -1 l 1
 277.1328125 568 l 1
 146 0 l 1
 68 0 l 1
EndSplineSet
Validated: 524289
EndChar

StartChar: Ograve
Encoding: 210 210 146
Width: 600
GlyphClass: 2
Flags: W
HStem: -11.0146 79.002<253.137 397.855> 654.01 75.9902<373.964 519.052>
LayerCount: 2
Fore
SplineSet
431.706054688 917 m 1
 367.005859375 836 l 1
 546.614257812 765 l 1
 584.696289062 813 l 1
 431.706054688 917 l 1
639.005859375 359.50390625 m 0
 624.3671875 296.094726562 599.049804688 206.2734375 542.768554688 128.64453125 c 0
 473.03125 32.45703125 379.8828125 -11.0146484375 301.942382812 -11.0146484375 c 0
 191.432617188 -11.0146484375 62.099609375 78.3984375 127.600585938 362.11328125 c 0
 193.114257812 645.883789062 364.615234375 730 472.294921875 730 c 0
 550.88671875 730 622.973632812 686.669921875 648.905273438 593.90234375 c 0
 670.47265625 516.748046875 654.600585938 427.049804688 639.005859375 359.50390625 c 0
451.3515625 654.009765625 m 0
 375.486328125 654.009765625 259.701171875 587.911132812 210.005859375 372.659179688 c 0
 156.997070312 143.052734375 239.315429688 67.9873046875 320.530273438 67.9873046875 c 0
 369.111328125 67.9873046875 431.390625 95.4453125 481.0234375 165.716796875 c 0
 524.981445312 227.951171875 544.717773438 301.614257812 555.633789062 348.897460938 c 0
 569.743164062 410.009765625 582.0078125 479.154296875 571.618164062 539.848632812 c 0
 557.291015625 623.54296875 502.581054688 654.009765625 451.3515625 654.009765625 c 0
EndSplineSet
Validated: 524329
EndChar

StartChar: Oacute
Encoding: 211 211 147
Width: 600
GlyphClass: 2
Flags: W
HStem: -11.0146 79.002<253.137 397.855> 654.01 75.9902<373.964 519.052>
LayerCount: 2
Fore
SplineSet
598.706054688 917 m 1
 626.005859375 836 l 1
 413.614257812 765 l 1
 397.696289062 813 l 1
 598.706054688 917 l 1
639.005859375 359.50390625 m 0
 624.3671875 296.094726562 599.049804688 206.2734375 542.768554688 128.64453125 c 0
 473.03125 32.45703125 379.8828125 -11.0146484375 301.942382812 -11.0146484375 c 0
 191.432617188 -11.0146484375 62.099609375 78.3984375 127.600585938 362.11328125 c 0
 193.114257812 645.883789062 364.615234375 730 472.294921875 730 c 0
 550.88671875 730 622.973632812 686.669921875 648.905273438 593.90234375 c 0
 670.47265625 516.748046875 654.600585938 427.049804688 639.005859375 359.50390625 c 0
451.3515625 654.009765625 m 0
 375.486328125 654.009765625 259.701171875 587.911132812 210.005859375 372.659179688 c 0
 156.997070312 143.052734375 239.315429688 67.9873046875 320.530273438 67.9873046875 c 0
 369.111328125 67.9873046875 431.390625 95.4453125 481.0234375 165.716796875 c 0
 524.981445312 227.951171875 544.717773438 301.614257812 555.633789062 348.897460938 c 0
 569.743164062 410.009765625 582.0078125 479.154296875 571.618164062 539.848632812 c 0
 557.291015625 623.54296875 502.581054688 654.009765625 451.3515625 654.009765625 c 0
EndSplineSet
Validated: 524321
EndChar

StartChar: Ocircumflex
Encoding: 212 212 148
Width: 600
GlyphClass: 2
Flags: W
HStem: -11.0146 79.002<253.137 397.855> 654.01 75.9902<373.964 519.052>
LayerCount: 2
Fore
SplineSet
326.15625 802 m 1
 504.706054688 917 l 1
 529.706054688 917 l 1
 646.618164062 804 l 1
 598.459960938 760 l 1
 497.390625 842 l 1
 350.15234375 763 l 1
 326.15625 802 l 1
639.005859375 359.50390625 m 0
 624.3671875 296.094726562 599.049804688 206.2734375 542.768554688 128.64453125 c 0
 473.03125 32.45703125 379.8828125 -11.0146484375 301.942382812 -11.0146484375 c 0
 191.432617188 -11.0146484375 62.099609375 78.3984375 127.600585938 362.11328125 c 0
 193.114257812 645.883789062 364.615234375 730 472.294921875 730 c 0
 550.88671875 730 622.973632812 686.669921875 648.905273438 593.90234375 c 0
 670.47265625 516.748046875 654.600585938 427.049804688 639.005859375 359.50390625 c 0
451.3515625 654.009765625 m 0
 375.486328125 654.009765625 259.701171875 587.911132812 210.005859375 372.659179688 c 0
 156.997070312 143.052734375 239.315429688 67.9873046875 320.530273438 67.9873046875 c 0
 369.111328125 67.9873046875 431.390625 95.4453125 481.0234375 165.716796875 c 0
 524.981445312 227.951171875 544.717773438 301.614257812 555.633789062 348.897460938 c 0
 569.743164062 410.009765625 582.0078125 479.154296875 571.618164062 539.848632812 c 0
 557.291015625 623.54296875 502.581054688 654.009765625 451.3515625 654.009765625 c 0
EndSplineSet
Validated: 524321
EndChar

StartChar: Otilde
Encoding: 213 213 149
Width: 600
GlyphClass: 2
Flags: W
HStem: -11.0146 79.002<253.137 397.855> 654.01 75.9902<373.964 519.052> 775.754 67.1758<553.742 633.486> 863.432 65.8359<395.851 481.979>
LayerCount: 2
Fore
SplineSet
349.84765625 792 m 1
 306.389648438 829 l 1
 364.911132812 896.836914062 415.392578125 929.267578125 460.567382812 929.267578125 c 0
 507.400390625 929.267578125 530.612304688 895.067382812 541.920898438 879.549804688 c 0
 556.18359375 859.978515625 569.646484375 842.9296875 591.263671875 842.9296875 c 0
 619.842773438 842.9296875 639.65234375 869.991210938 672.705078125 904 c 1
 705.084960938 858 l 1
 653.517578125 808.139648438 614.487304688 775.75390625 571.747070312 775.75390625 c 0
 504.361328125 775.75390625 493.22265625 863.431640625 442.182617188 863.431640625 c 0
 411.4921875 863.431640625 387.950195312 836.786132812 349.84765625 792 c 1
639.005859375 359.50390625 m 0
 624.3671875 296.094726562 599.049804688 206.2734375 542.768554688 128.64453125 c 0
 473.03125 32.45703125 379.8828125 -11.0146484375 301.942382812 -11.0146484375 c 0
 191.432617188 -11.0146484375 62.099609375 78.3984375 127.600585938 362.11328125 c 0
 193.114257812 645.883789062 364.615234375 730 472.294921875 730 c 0
 550.88671875 730 622.973632812 686.669921875 648.905273438 593.90234375 c 0
 670.47265625 516.748046875 654.600585938 427.049804688 639.005859375 359.50390625 c 0
451.3515625 654.009765625 m 0
 375.486328125 654.009765625 259.701171875 587.911132812 210.005859375 372.659179688 c 0
 156.997070312 143.052734375 239.315429688 67.9873046875 320.530273438 67.9873046875 c 0
 369.111328125 67.9873046875 431.390625 95.4453125 481.0234375 165.716796875 c 0
 524.981445312 227.951171875 544.717773438 301.614257812 555.633789062 348.897460938 c 0
 569.743164062 410.009765625 582.0078125 479.154296875 571.618164062 539.848632812 c 0
 557.291015625 623.54296875 502.581054688 654.009765625 451.3515625 654.009765625 c 0
EndSplineSet
Validated: 524321
EndChar

StartChar: Odieresis
Encoding: 214 214 150
Width: 600
GlyphClass: 2
Flags: W
HStem: -11.0146 79.002<253.137 397.855> 654.01 75.9902<373.964 519.052> 796.981 117.037<354.624 427.393 561.379 633.647>
VStem: 332.488 117.038<818.289 892.71> 539.509 116.004<818.277 892.75>
LayerCount: 2
Fore
SplineSet
449.526367188 855.498046875 m 0
 442.072265625 823.2109375 409.786132812 796.981445312 377.5 796.981445312 c 0
 345.209960938 796.981445312 325.034179688 823.208984375 332.48828125 855.499023438 c 0
 339.943359375 887.7890625 372.227539062 914.018554688 404.517578125 914.018554688 c 0
 436.807617188 914.018554688 456.981445312 887.7890625 449.526367188 855.498046875 c 0
655.512695312 855.51171875 m 0
 648.044921875 823.16796875 615.956054688 796.991210938 584.004882812 796.991210938 c 0
 552.060546875 796.991210938 532.038085938 823.155273438 539.508789062 855.513671875 c 0
 546.977539062 887.862304688 579.073242188 914.03515625 611.029296875 914.03515625 c 0
 642.958007812 914.03515625 662.984375 887.876953125 655.512695312 855.51171875 c 0
639.005859375 359.50390625 m 0
 624.3671875 296.094726562 599.049804688 206.2734375 542.768554688 128.64453125 c 0
 473.03125 32.45703125 379.8828125 -11.0146484375 301.942382812 -11.0146484375 c 0
 191.432617188 -11.0146484375 62.099609375 78.3984375 127.600585938 362.11328125 c 0
 193.114257812 645.883789062 364.615234375 730 472.294921875 730 c 0
 550.88671875 730 622.973632812 686.669921875 648.905273438 593.90234375 c 0
 670.47265625 516.748046875 654.600585938 427.049804688 639.005859375 359.50390625 c 0
451.3515625 654.009765625 m 0
 375.486328125 654.009765625 259.701171875 587.911132812 210.005859375 372.659179688 c 0
 156.997070312 143.052734375 239.315429688 67.9873046875 320.530273438 67.9873046875 c 0
 369.111328125 67.9873046875 431.390625 95.4453125 481.0234375 165.716796875 c 0
 524.981445312 227.951171875 544.717773438 301.614257812 555.633789062 348.897460938 c 0
 569.743164062 410.009765625 582.0078125 479.154296875 571.618164062 539.848632812 c 0
 557.291015625 623.54296875 502.581054688 654.009765625 451.3515625 654.009765625 c 0
EndSplineSet
Validated: 524321
EndChar

StartChar: multiply
Encoding: 215 215 151
Width: 600
GlyphClass: 2
Flags: W
LayerCount: 2
Fore
SplineSet
587.595703125 583 m 1
 630.822265625 532 l 1
 444.705078125 376.931640625 l 1
 556.021484375 221 l 1
 489.786132812 168 l 1
 379.1796875 322.337890625 l 1
 199.940429688 173 l 1
 159.71484375 224 l 1
 340.782226562 375.918945312 l 1
 230.360351562 530 l 1
 297.595703125 583 l 1
 406.228515625 430.829101562 l 1
 587.595703125 583 l 1
EndSplineSet
Validated: 524289
EndChar

StartChar: Oslash
Encoding: 216 216 152
Width: 600
GlyphClass: 2
Flags: W
HStem: -11.0166 79.001<251.882 397.857> 654.01 75.9902<373.965 519.424>
LayerCount: 2
Fore
SplineSet
451.3515625 654.009765625 m 0
 375.486328125 654.009765625 259.701171875 587.911132812 210.005859375 372.659179688 c 0
 189.02734375 281.791015625 189.244140625 215.127929688 202.200195312 167.7421875 c 1
 541.125 612.32421875 l 1
 517.0703125 641.994140625 483.524414062 654.009765625 451.3515625 654.009765625 c 0
639.006835938 359.50390625 m 0
 624.368164062 296.094726562 599.052734375 206.271484375 542.770507812 128.643554688 c 0
 473.033203125 32.455078125 379.884765625 -11.0166015625 301.942382812 -11.0166015625 c 0
 259.291992188 -11.0166015625 213.836914062 2.302734375 177.860351562 34.970703125 c 1
 95.1474609375 -73.0009765625 l 1
 42.3046875 -42.0009765625 l 1
 139.291992188 85.2216796875 l 1
 108.381835938 143.736328125 97.7275390625 232.716796875 127.6015625 362.11328125 c 0
 193.115234375 645.883789062 364.616210938 730 472.295898438 730 c 0
 518.375 730 562.216796875 715.10546875 595.83203125 684.0859375 c 1
 672.001953125 784.000976562 l 1
 726.3828125 751.000976562 l 1
 634.733398438 631.364257812 l 1
 640.357421875 619.916992188 645.124023438 607.435546875 648.90625 593.90234375 c 0
 670.473632812 516.748046875 654.6015625 427.049804688 639.006835938 359.50390625 c 0
570.237304688 547.16796875 m 1
 233.049804688 107.008789062 l 1
 256.971679688 79.41796875 288.836914062 67.984375 320.532226562 67.984375 c 0
 369.11328125 67.984375 431.391601562 95.443359375 481.02734375 165.71484375 c 0
 524.983398438 227.94921875 544.721679688 301.612304688 555.637695312 348.896484375 c 0
 569.747070312 410.008789062 582.010742188 479.15234375 571.62109375 539.84765625 c 2
 570.237304688 547.16796875 l 1
EndSplineSet
Validated: 524321
EndChar

StartChar: Ugrave
Encoding: 217 217 153
Width: 600
GlyphClass: 2
Flags: W
HStem: -13.0732 68.9941<241.841 400.761> 702 20G<230.069 325.87 621.069 702.687>
VStem: 625.687 77<691.68 722>
LayerCount: 2
Fore
SplineSet
431.706054688 917 m 1
 367.005859375 836 l 1
 546.614257812 765 l 1
 584.696289062 813 l 1
 431.706054688 917 l 1
234.686523438 722 m 1
 325.686523438 722 l 1
 326.053710938 720.163085938 326.002929688 718.171875 325.536132812 716.150390625 c 0
 323.939453125 709.235351562 318.27734375 704.498046875 314.223632812 700.1953125 c 0
 308.560546875 694.181640625 307.360351562 690.265625 306.14453125 685 c 2
 205.254882812 248 l 2
 196.9765625 212.141601562 189.600585938 177.155273438 198.021484375 141.578125 c 0
 211.166015625 86.052734375 258.715820312 55.9208984375 315.977539062 55.9208984375 c 0
 372.32421875 55.9208984375 433.486328125 85.34375 472.915039062 140.548828125 c 0
 499.155273438 177.288085938 508.334960938 213.693359375 516.948242188 251 c 2
 625.686523438 722 l 1
 702.686523438 722 l 1
 594.409179688 253 l 2
 582.217773438 200.192382812 569.078125 150.172851562 530.12890625 99.8134765625 c 0
 471.587890625 24.125 381.891601562 -13.0732421875 298.442382812 -13.0732421875 c 0
 213.247070312 -13.0732421875 141.921875 24.9775390625 119.047851562 99.216796875 c 0
 103.765625 148.814453125 113.703125 197.959960938 125.486328125 249 c 1
 234.686523438 722 l 1
EndSplineSet
Validated: 524329
EndChar

StartChar: Uacute
Encoding: 218 218 154
Width: 600
GlyphClass: 2
Flags: W
HStem: -13.0732 68.9941<241.841 400.761> 702 20G<230.069 325.87 621.069 702.687>
VStem: 625.687 77<691.68 722>
LayerCount: 2
Fore
SplineSet
598.706054688 917 m 1
 626.005859375 836 l 1
 413.614257812 765 l 1
 397.696289062 813 l 1
 598.706054688 917 l 1
234.686523438 722 m 1
 325.686523438 722 l 1
 326.053710938 720.163085938 326.002929688 718.171875 325.536132812 716.150390625 c 0
 323.939453125 709.235351562 318.27734375 704.498046875 314.223632812 700.1953125 c 0
 308.560546875 694.181640625 307.360351562 690.265625 306.14453125 685 c 2
 205.254882812 248 l 2
 196.9765625 212.141601562 189.600585938 177.155273438 198.021484375 141.578125 c 0
 211.166015625 86.052734375 258.715820312 55.9208984375 315.977539062 55.9208984375 c 0
 372.32421875 55.9208984375 433.486328125 85.34375 472.915039062 140.548828125 c 0
 499.155273438 177.288085938 508.334960938 213.693359375 516.948242188 251 c 2
 625.686523438 722 l 1
 702.686523438 722 l 1
 594.409179688 253 l 2
 582.217773438 200.192382812 569.078125 150.172851562 530.12890625 99.8134765625 c 0
 471.587890625 24.125 381.891601562 -13.0732421875 298.442382812 -13.0732421875 c 0
 213.247070312 -13.0732421875 141.921875 24.9775390625 119.047851562 99.216796875 c 0
 103.765625 148.814453125 113.703125 197.959960938 125.486328125 249 c 1
 234.686523438 722 l 1
EndSplineSet
Validated: 524321
EndChar

StartChar: Ucircumflex
Encoding: 219 219 155
Width: 600
GlyphClass: 2
Flags: W
HStem: -13.0732 68.9941<241.841 400.761> 702 20G<230.069 325.87 621.069 702.687>
VStem: 625.687 77<691.68 722>
LayerCount: 2
Fore
SplineSet
326.15625 802 m 1
 504.706054688 917 l 1
 529.706054688 917 l 1
 646.618164062 804 l 1
 598.459960938 760 l 1
 497.390625 842 l 1
 350.15234375 763 l 1
 326.15625 802 l 1
234.686523438 722 m 1
 325.686523438 722 l 1
 326.053710938 720.163085938 326.002929688 718.171875 325.536132812 716.150390625 c 0
 323.939453125 709.235351562 318.27734375 704.498046875 314.223632812 700.1953125 c 0
 308.560546875 694.181640625 307.360351562 690.265625 306.14453125 685 c 2
 205.254882812 248 l 2
 196.9765625 212.141601562 189.600585938 177.155273438 198.021484375 141.578125 c 0
 211.166015625 86.052734375 258.715820312 55.9208984375 315.977539062 55.9208984375 c 0
 372.32421875 55.9208984375 433.486328125 85.34375 472.915039062 140.548828125 c 0
 499.155273438 177.288085938 508.334960938 213.693359375 516.948242188 251 c 2
 625.686523438 722 l 1
 702.686523438 722 l 1
 594.409179688 253 l 2
 582.217773438 200.192382812 569.078125 150.172851562 530.12890625 99.8134765625 c 0
 471.587890625 24.125 381.891601562 -13.0732421875 298.442382812 -13.0732421875 c 0
 213.247070312 -13.0732421875 141.921875 24.9775390625 119.047851562 99.216796875 c 0
 103.765625 148.814453125 113.703125 197.959960938 125.486328125 249 c 1
 234.686523438 722 l 1
EndSplineSet
Validated: 524321
EndChar

StartChar: Udieresis
Encoding: 220 220 156
Width: 600
GlyphClass: 2
Flags: W
HStem: -13.0732 68.9941<241.841 400.761> 702 20G<230.069 325.87 621.069 702.687> 796.981 117.037<364.624 437.393 571.379 643.647>
VStem: 342.488 117.038<818.289 892.71> 549.509 116.004<818.277 892.75> 625.687 77<691.68 722>
LayerCount: 2
Fore
SplineSet
459.526367188 855.498046875 m 0xf0
 452.072265625 823.2109375 419.786132812 796.981445312 387.5 796.981445312 c 0
 355.209960938 796.981445312 335.034179688 823.208984375 342.48828125 855.499023438 c 0
 349.943359375 887.7890625 382.227539062 914.018554688 414.517578125 914.018554688 c 0
 446.807617188 914.018554688 466.981445312 887.7890625 459.526367188 855.498046875 c 0xf0
665.512695312 855.51171875 m 0xf8
 658.044921875 823.16796875 625.956054688 796.991210938 594.004882812 796.991210938 c 0
 562.060546875 796.991210938 542.038085938 823.155273438 549.508789062 855.513671875 c 0
 556.977539062 887.862304688 589.073242188 914.03515625 621.029296875 914.03515625 c 0
 652.958007812 914.03515625 672.984375 887.876953125 665.512695312 855.51171875 c 0xf8
234.686523438 722 m 1
 325.686523438 722 l 1
 326.053710938 720.163085938 326.002929688 718.171875 325.536132812 716.150390625 c 0
 323.939453125 709.235351562 318.27734375 704.498046875 314.223632812 700.1953125 c 0
 308.560546875 694.181640625 307.360351562 690.265625 306.14453125 685 c 2
 205.254882812 248 l 2
 196.9765625 212.141601562 189.600585938 177.155273438 198.021484375 141.578125 c 0
 211.166015625 86.052734375 258.715820312 55.9208984375 315.977539062 55.9208984375 c 0
 372.32421875 55.9208984375 433.486328125 85.34375 472.915039062 140.548828125 c 0
 499.155273438 177.288085938 508.334960938 213.693359375 516.948242188 251 c 2
 625.686523438 722 l 1
 702.686523438 722 l 1xf4
 594.409179688 253 l 2
 582.217773438 200.192382812 569.078125 150.172851562 530.12890625 99.8134765625 c 0
 471.587890625 24.125 381.891601562 -13.0732421875 298.442382812 -13.0732421875 c 0
 213.247070312 -13.0732421875 141.921875 24.9775390625 119.047851562 99.216796875 c 0
 103.765625 148.814453125 113.703125 197.959960938 125.486328125 249 c 1
 234.686523438 722 l 1
EndSplineSet
Validated: 524321
EndChar

StartChar: Yacute
Encoding: 221 221 157
Width: 600
GlyphClass: 2
Flags: W
HStem: 0 21G<265 357.617> 703 20G<209.918 307.386 624.926 724.687>
LayerCount: 2
Fore
SplineSet
598.706054688 917 m 1
 626.005859375 836 l 1
 413.614257812 765 l 1
 397.696289062 813 l 1
 598.706054688 917 l 1
209.91796875 723 m 1
 301.91796875 723 l 1
 397.8828125 372 l 1
 638.686523438 722 l 1
 724.686523438 722 l 1
 418.797851562 285 l 1
 353 0 l 1
 265 0 l 1
 330.797851562 285 l 1
 209.91796875 723 l 1
EndSplineSet
Validated: 524289
EndChar

StartChar: Thorn
Encoding: 222 222 158
Width: 600
GlyphClass: 2
Flags: W
HStem: 0 21G<78 164.617> 183 71.001<218.639 465.63> 510 76.001<295.287 509.468> 702 20G<240.069 335.768>
LayerCount: 2
Fore
SplineSet
244.686523438 722 m 1
 335.684570312 722 l 1
 335.8515625 720.465820312 335.741210938 718.849609375 335.364257812 717.215820312 c 0
 333.880859375 710.791992188 328.892578125 706.356445312 325.47265625 702.380859375 c 0
 321.189453125 697.3984375 320.259765625 694.170898438 319.296875 690.000976562 c 2
 295.287109375 586.000976562 l 1
 433.287109375 586.000976562 l 2
 479.87109375 586.000976562 524.370117188 584.805664062 564.252929688 561.495117188 c 0
 624.348632812 526.372070312 643.225585938 455.71875 626.368164062 382.700195312 c 0
 609.469726562 309.50390625 558.372070312 240.352539062 483.766601562 206.409179688 c 0
 434.768554688 184.116210938 391.225585938 183 346.249023438 183 c 2
 202.249023438 183 l 1
 160 0 l 1
 78 0 l 1
 244.686523438 722 l 1
277.741210938 510 m 1
 218.638671875 254.000976562 l 1
 365.638671875 254.000976562 l 2
 394.104492188 254.000976562 421.788085938 254.678710938 452.877929688 268.763671875 c 0
 499.591796875 289.926757812 531.8671875 332.944335938 542.497070312 378.986328125 c 0
 553.34765625 425.985351562 540.578125 471.920898438 500.78125 494.5 c 0
 474.760742188 509.262695312 445.90625 510 415.741210938 510 c 2
 277.741210938 510 l 1
EndSplineSet
Validated: 524321
EndChar

StartChar: germandbls
Encoding: 223 223 159
Width: 600
GlyphClass: 2
Flags: W
HStem: -12.0303 73.9951<263.025 424.248> 0 21G<74 157.617> 374 66<359.581 471.842> 708.193 66.8096<383.152 517.606>
LayerCount: 2
Fore
SplineSet
74 0 m 1x70
 187.122070312 489.999023438 l 2
 199.313476562 542.805664062 212.315429688 596.233398438 248.203125 649.708984375 c 0
 302.353515625 730.3984375 387.219726562 775.002929688 466.220703125 775.002929688 c 0
 581.826171875 775.002929688 654.497070312 681.29296875 629.05859375 571.107421875 c 0
 613.677734375 504.486328125 564.702148438 445.29296875 501.0390625 415.999023438 c 1
 581.71484375 389.078125 618.557617188 305.599609375 596.329101562 209.319335938 c 0
 567.264648438 83.4287109375 451.41015625 -12.0302734375 332.631835938 -12.0302734375 c 0
 289.995117188 -12.0302734375 251.026367188 0.4697265625 220.538085938 23.9990234375 c 1
 276.543945312 88.9990234375 l 1
 294.655273438 71.5078125 319.942382812 61.96484375 348.34765625 61.96484375 c 0xb0
 422.205078125 61.96484375 500.102539062 125.490234375 519.474609375 209.3984375 c 0
 533.530273438 270.280273438 513.151367188 323.525390625 475.795898438 350.881835938 c 0
 447.809570312 371.375 417.095703125 374 379.34375 374 c 2
 344.34375 374 l 1
 359.581054688 440 l 1
 392.581054688 440 l 2
 409.8828125 440 426.52734375 440.513671875 447.90234375 449.182617188 c 0
 496.088867188 468.725585938 537.833984375 518.563476562 550.4296875 573.124023438 c 0
 568.061523438 649.49609375 524.145507812 708.193359375 455.265625 708.193359375 c 0
 417.33203125 708.193359375 373.122070312 689.798828125 336.868164062 650.3671875 c 0
 292.81640625 602.454101562 278.408203125 543.204101562 266.586914062 492 c 2
 153 0 l 1
 74 0 l 1x70
EndSplineSet
Validated: 524321
EndChar

StartChar: agrave
Encoding: 224 224 160
Width: 600
GlyphClass: 2
Flags: W
HStem: -13.002 63.8164<206.04 354.045> 0 21G<435 518.617> 248 64<261.589 494.255> 473.031 68.0234<312.124 492.503>
LayerCount: 2
Fore
SplineSet
479.002929688 810 m 1x30
 394.690429688 761 l 1
 475.674804688 605 l 1
 541.755859375 640 l 1
 479.002929688 810 l 1x30
222.815429688 467 m 1
 284.064453125 518.083007812 357.424804688 541.0546875 428.836914062 541.0546875 c 0
 511.002929688 541.0546875 571.239257812 510.995117188 592.61328125 453.096679688 c 0
 607.646484375 412.375 599.7421875 371.389648438 589.724609375 328 c 2
 514 0 l 1
 435 0 l 1x70
 448.390625 58 l 1
 379.702148438 10.6650390625 306.938476562 -13.001953125 241.916015625 -13.001953125 c 0xb0
 131.314453125 -13.001953125 80.4775390625 59.1630859375 98.4072265625 136.825195312 c 0
 111.955078125 195.506835938 164.127929688 257.37890625 254.709960938 288.065429688 c 0
 327.776367188 312.817382812 411.053710938 312 489.03125 312 c 2
 506.03125 312 l 1
 510.416992188 331 l 2
 516.89453125 359.0546875 525.166992188 393.114257812 514.216796875 422.078125 c 0
 504.939453125 446.615234375 479.953125 473.03125 417.077148438 473.03125 c 0
 368.163085938 473.03125 305.416992188 459.392578125 251.579101562 414 c 1
 222.815429688 467 l 1
494.254882812 248 m 1
 475.254882812 248 l 2
 420.24609375 248 350.168945312 251.46484375 299.440429688 239.987304688 c 0
 229.412109375 224.142578125 192.434570312 180.909179688 183.556640625 142.456054688 c 0
 172.631835938 95.13671875 203.412109375 50.814453125 273.595703125 50.814453125 c 0xb0
 342.930664062 50.814453125 403.2578125 92.84375 427.211914062 113.287109375 c 0
 471.686523438 151.2421875 479.84375 185.578125 486.174804688 213 c 2
 494.254882812 248 l 1
EndSplineSet
Validated: 524329
EndChar

StartChar: aacute
Encoding: 225 225 161
Width: 600
GlyphClass: 2
Flags: W
HStem: -13.002 63.8164<206.04 354.045> 0 21G<435 518.617> 248 64<261.589 494.255> 473.031 68.0234<312.124 492.503>
LayerCount: 2
Fore
SplineSet
535.002929688 810 m 1x30
 596.690429688 761 l 1
 443.674804688 605 l 1
 393.755859375 640 l 1
 535.002929688 810 l 1x30
222.815429688 467 m 1
 284.064453125 518.083007812 357.424804688 541.0546875 428.836914062 541.0546875 c 0
 511.002929688 541.0546875 571.239257812 510.995117188 592.61328125 453.096679688 c 0
 607.646484375 412.375 599.7421875 371.389648438 589.724609375 328 c 2
 514 0 l 1
 435 0 l 1x70
 448.390625 58 l 1
 379.702148438 10.6650390625 306.938476562 -13.001953125 241.916015625 -13.001953125 c 0xb0
 131.314453125 -13.001953125 80.4775390625 59.1630859375 98.4072265625 136.825195312 c 0
 111.955078125 195.506835938 164.127929688 257.37890625 254.709960938 288.065429688 c 0
 327.776367188 312.817382812 411.053710938 312 489.03125 312 c 2
 506.03125 312 l 1
 510.416992188 331 l 2
 516.89453125 359.0546875 525.166992188 393.114257812 514.216796875 422.078125 c 0
 504.939453125 446.615234375 479.953125 473.03125 417.077148438 473.03125 c 0
 368.163085938 473.03125 305.416992188 459.392578125 251.579101562 414 c 1
 222.815429688 467 l 1
494.254882812 248 m 1
 475.254882812 248 l 2
 420.24609375 248 350.168945312 251.46484375 299.440429688 239.987304688 c 0
 229.412109375 224.142578125 192.434570312 180.909179688 183.556640625 142.456054688 c 0
 172.631835938 95.13671875 203.412109375 50.814453125 273.595703125 50.814453125 c 0xb0
 342.930664062 50.814453125 403.2578125 92.84375 427.211914062 113.287109375 c 0
 471.686523438 151.2421875 479.84375 185.578125 486.174804688 213 c 2
 494.254882812 248 l 1
EndSplineSet
Validated: 524321
EndChar

StartChar: acircumflex
Encoding: 226 226 162
Width: 600
GlyphClass: 2
Flags: W
HStem: -13.002 63.8164<206.04 354.045> 0 21G<435 518.617> 248 64<261.589 494.255> 473.031 68.0234<312.124 492.503>
LayerCount: 2
Fore
SplineSet
318.677734375 631 m 1x30
 485.309570312 794 l 1
 510.309570312 794 l 1
 600.447265625 630 l 1
 537.211914062 590 l 1
 474.685546875 709 l 1
 353.443359375 591 l 1
 318.677734375 631 l 1x30
222.815429688 467 m 1
 284.064453125 518.083007812 357.424804688 541.0546875 428.836914062 541.0546875 c 0
 511.002929688 541.0546875 571.239257812 510.995117188 592.61328125 453.096679688 c 0
 607.646484375 412.375 599.7421875 371.389648438 589.724609375 328 c 2
 514 0 l 1
 435 0 l 1x70
 448.390625 58 l 1
 379.702148438 10.6650390625 306.938476562 -13.001953125 241.916015625 -13.001953125 c 0xb0
 131.314453125 -13.001953125 80.4775390625 59.1630859375 98.4072265625 136.825195312 c 0
 111.955078125 195.506835938 164.127929688 257.37890625 254.709960938 288.065429688 c 0
 327.776367188 312.817382812 411.053710938 312 489.03125 312 c 2
 506.03125 312 l 1
 510.416992188 331 l 2
 516.89453125 359.0546875 525.166992188 393.114257812 514.216796875 422.078125 c 0
 504.939453125 446.615234375 479.953125 473.03125 417.077148438 473.03125 c 0
 368.163085938 473.03125 305.416992188 459.392578125 251.579101562 414 c 1
 222.815429688 467 l 1
494.254882812 248 m 1
 475.254882812 248 l 2
 420.24609375 248 350.168945312 251.46484375 299.440429688 239.987304688 c 0
 229.412109375 224.142578125 192.434570312 180.909179688 183.556640625 142.456054688 c 0
 172.631835938 95.13671875 203.412109375 50.814453125 273.595703125 50.814453125 c 0xb0
 342.930664062 50.814453125 403.2578125 92.84375 427.211914062 113.287109375 c 0
 471.686523438 151.2421875 479.84375 185.578125 486.174804688 213 c 2
 494.254882812 248 l 1
EndSplineSet
Validated: 524321
EndChar

StartChar: atilde
Encoding: 227 227 163
Width: 600
GlyphClass: 2
Flags: W
HStem: -13.002 63.8164<206.04 354.045> 0 21G<435 518.617> 248 64<261.589 494.255> 473.031 68.0234<312.124 492.503> 629.754 67.1758<531.035 610.779> 717.432 65.8359<373.144 459.273>
LayerCount: 2
Fore
SplineSet
327.140625 646 m 1x3c
 283.682617188 683 l 1
 342.204101562 750.836914062 392.685546875 783.267578125 437.860351562 783.267578125 c 0
 484.693359375 783.267578125 507.905273438 749.067382812 519.21484375 733.549804688 c 0
 533.4765625 713.978515625 546.940429688 696.9296875 568.556640625 696.9296875 c 0
 597.135742188 696.9296875 616.9453125 723.991210938 649.998046875 758 c 1
 682.377929688 712 l 1
 630.811523438 662.139648438 591.780273438 629.75390625 549.040039062 629.75390625 c 0
 481.654296875 629.75390625 470.516601562 717.431640625 419.4765625 717.431640625 c 0
 388.78515625 717.431640625 365.243164062 690.786132812 327.140625 646 c 1x3c
222.815429688 467 m 1
 284.064453125 518.083007812 357.424804688 541.0546875 428.836914062 541.0546875 c 0
 511.002929688 541.0546875 571.239257812 510.995117188 592.61328125 453.096679688 c 0
 607.646484375 412.375 599.7421875 371.389648438 589.724609375 328 c 2
 514 0 l 1
 435 0 l 1x7c
 448.390625 58 l 1
 379.702148438 10.6650390625 306.938476562 -13.001953125 241.916015625 -13.001953125 c 0xbc
 131.314453125 -13.001953125 80.4775390625 59.1630859375 98.4072265625 136.825195312 c 0
 111.955078125 195.506835938 164.127929688 257.37890625 254.709960938 288.065429688 c 0
 327.776367188 312.817382812 411.053710938 312 489.03125 312 c 2
 506.03125 312 l 1
 510.416992188 331 l 2
 516.89453125 359.0546875 525.166992188 393.114257812 514.216796875 422.078125 c 0
 504.939453125 446.615234375 479.953125 473.03125 417.077148438 473.03125 c 0
 368.163085938 473.03125 305.416992188 459.392578125 251.579101562 414 c 1
 222.815429688 467 l 1
494.254882812 248 m 1
 475.254882812 248 l 2
 420.24609375 248 350.168945312 251.46484375 299.440429688 239.987304688 c 0
 229.412109375 224.142578125 192.434570312 180.909179688 183.556640625 142.456054688 c 0
 172.631835938 95.13671875 203.412109375 50.814453125 273.595703125 50.814453125 c 0xbc
 342.930664062 50.814453125 403.2578125 92.84375 427.211914062 113.287109375 c 0
 471.686523438 151.2421875 479.84375 185.578125 486.174804688 213 c 2
 494.254882812 248 l 1
EndSplineSet
Validated: 524321
EndChar

StartChar: adieresis
Encoding: 228 228 164
Width: 600
GlyphClass: 2
Flags: W
HStem: -13.002 63.8164<206.04 354.045> 0 21G<435 518.617> 248 64<261.589 494.255> 473.031 68.0234<312.124 492.503> 652.981 117.037<341.379 414.148 548.134 620.402>
VStem: 319.243 117.038<674.289 748.71> 526.264 116.004<674.277 748.75>
LayerCount: 2
Fore
SplineSet
436.28125 711.498046875 m 0x3e
 428.827148438 679.2109375 396.541992188 652.981445312 364.254882812 652.981445312 c 0
 331.96484375 652.981445312 311.7890625 679.208984375 319.243164062 711.499023438 c 0
 326.698242188 743.7890625 358.982421875 770.018554688 391.272460938 770.018554688 c 0
 423.5625 770.018554688 443.736328125 743.7890625 436.28125 711.498046875 c 0x3e
642.267578125 711.51171875 m 0
 634.799804688 679.16796875 602.7109375 652.991210938 570.759765625 652.991210938 c 0
 538.815429688 652.991210938 518.79296875 679.155273438 526.263671875 711.513671875 c 0
 533.732421875 743.862304688 565.828125 770.03515625 597.784179688 770.03515625 c 0
 629.712890625 770.03515625 649.739257812 743.876953125 642.267578125 711.51171875 c 0
222.815429688 467 m 1
 284.064453125 518.083007812 357.424804688 541.0546875 428.836914062 541.0546875 c 0
 511.002929688 541.0546875 571.239257812 510.995117188 592.61328125 453.096679688 c 0
 607.646484375 412.375 599.7421875 371.389648438 589.724609375 328 c 2
 514 0 l 1
 435 0 l 1x7e
 448.390625 58 l 1
 379.702148438 10.6650390625 306.938476562 -13.001953125 241.916015625 -13.001953125 c 0xbe
 131.314453125 -13.001953125 80.4775390625 59.1630859375 98.4072265625 136.825195312 c 0
 111.955078125 195.506835938 164.127929688 257.37890625 254.709960938 288.065429688 c 0
 327.776367188 312.817382812 411.053710938 312 489.03125 312 c 2
 506.03125 312 l 1
 510.416992188 331 l 2
 516.89453125 359.0546875 525.166992188 393.114257812 514.216796875 422.078125 c 0
 504.939453125 446.615234375 479.953125 473.03125 417.077148438 473.03125 c 0
 368.163085938 473.03125 305.416992188 459.392578125 251.579101562 414 c 1
 222.815429688 467 l 1
494.254882812 248 m 1
 475.254882812 248 l 2
 420.24609375 248 350.168945312 251.46484375 299.440429688 239.987304688 c 0
 229.412109375 224.142578125 192.434570312 180.909179688 183.556640625 142.456054688 c 0
 172.631835938 95.13671875 203.412109375 50.814453125 273.595703125 50.814453125 c 0xbe
 342.930664062 50.814453125 403.2578125 92.84375 427.211914062 113.287109375 c 0
 471.686523438 151.2421875 479.84375 185.578125 486.174804688 213 c 2
 494.254882812 248 l 1
EndSplineSet
Validated: 524321
EndChar

StartChar: aring
Encoding: 229 229 165
Width: 600
GlyphClass: 2
Flags: W
HStem: -13.002 63.8164<206.04 354.045> 0 21G<435 518.617> 248 64<261.589 494.255> 473.031 68.0234<312.124 492.503> 598.958 49.9385<424.194 501.194> 755.012 47.9932<438.889 515.847>
LayerCount: 2
Fore
SplineSet
574.842773438 700.997070312 m 0x3c
 561.948242188 645.14453125 504.319335938 598.958007812 445.204101562 598.958007812 c 0
 386.23046875 598.958007812 349.854492188 645.100585938 362.774414062 701.065429688 c 0
 375.655273438 756.856445312 433.248046875 803.004882812 492.298828125 803.004882812 c 0
 551.401367188 803.004882812 587.734375 756.836914062 574.842773438 700.997070312 c 0x3c
421.931640625 701.774414062 m 0
 415.083007812 672.110351562 431.436523438 648.896484375 457.8046875 648.896484375 c 0
 483.841796875 648.896484375 511.140625 671.836914062 518.120117188 702.068359375 c 0
 524.991210938 731.828125 508.640625 755.01171875 482.330078125 755.01171875 c 0
 456.30859375 755.01171875 428.92578125 732.072265625 421.931640625 701.774414062 c 0
222.815429688 467 m 1
 284.064453125 518.083007812 357.424804688 541.0546875 428.836914062 541.0546875 c 0
 511.002929688 541.0546875 571.239257812 510.995117188 592.61328125 453.096679688 c 0
 607.646484375 412.375 599.7421875 371.389648438 589.724609375 328 c 2
 514 0 l 1
 435 0 l 1x7c
 448.390625 58 l 1
 379.702148438 10.6650390625 306.938476562 -13.001953125 241.916015625 -13.001953125 c 0xbc
 131.314453125 -13.001953125 80.4775390625 59.1630859375 98.4072265625 136.825195312 c 0
 111.955078125 195.506835938 164.127929688 257.37890625 254.709960938 288.065429688 c 0
 327.776367188 312.817382812 411.053710938 312 489.03125 312 c 2
 506.03125 312 l 1
 510.416992188 331 l 2
 516.89453125 359.0546875 525.166992188 393.114257812 514.216796875 422.078125 c 0
 504.939453125 446.615234375 479.953125 473.03125 417.077148438 473.03125 c 0
 368.163085938 473.03125 305.416992188 459.392578125 251.579101562 414 c 1
 222.815429688 467 l 1
494.254882812 248 m 1
 475.254882812 248 l 2
 420.24609375 248 350.168945312 251.46484375 299.440429688 239.987304688 c 0
 229.412109375 224.142578125 192.434570312 180.909179688 183.556640625 142.456054688 c 0
 172.631835938 95.13671875 203.412109375 50.814453125 273.595703125 50.814453125 c 0xbc
 342.930664062 50.814453125 403.2578125 92.84375 427.211914062 113.287109375 c 0
 471.686523438 151.2421875 479.84375 185.578125 486.174804688 213 c 2
 494.254882812 248 l 1
EndSplineSet
Validated: 524321
EndChar

StartChar: ae
Encoding: 230 230 166
Width: 600
GlyphClass: 2
Flags: W
HStem: -13.002 67.9863<147.793 250.8 407.777 536.159> 252.998 69.002<199.09 324.635 411.563 517.983> 266.998 63.001<469.322 587.181> 476.08 64.959<219.483 334.907 483.624 585.246>
LayerCount: 2
Fore
SplineSet
156.124023438 477 m 1xd0
 198.469726562 518.17578125 253.4375 541.0390625 304.701171875 541.0390625 c 0
 361.013671875 541.0390625 402.520507812 513.298828125 417.272460938 468.997070312 c 1
 453.450195312 513.700195312 506.940429688 541.060546875 555.9453125 541.060546875 c 0
 597.641601562 541.060546875 638.869140625 520.7265625 656.799804688 473.469726562 c 0
 675.98046875 422.918945312 661.838867188 363.162109375 649.795898438 310.998046875 c 2
 639.637695312 266.998046875 l 1xb0
 396.329101562 256.998046875 l 1
 383.861328125 202.998046875 l 2
 377.51171875 175.491210938 373.055664062 151.764648438 378.291992188 126.612304688 c 0
 387.579101562 81.9892578125 424.212890625 54.984375 469.421875 54.984375 c 0
 503.372070312 54.984375 538.340820312 70.3681640625 564.390625 96.998046875 c 1
 594.30859375 48.998046875 l 1
 552.493164062 9.7265625 498.731445312 -13.001953125 447.560546875 -13.001953125 c 0
 388.556640625 -13.001953125 340.595703125 17.1875 320.465820312 66.9990234375 c 1
 284.231445312 17.869140625 226.592773438 -13.15625 171.198242188 -13.15625 c 0
 87.7333984375 -13.15625 34.8125 56.212890625 54.9140625 143.28125 c 0
 68.603515625 202.575195312 116.625976562 266.97265625 196.859375 299.765625 c 0
 244.545898438 319.255859375 286.236328125 320.927734375 314.33984375 322 c 2
 340.5703125 323 l 1
 347.49609375 353 l 2
 352.4140625 374.298828125 356.056640625 393.53125 353.666015625 412.515625 c 0
 348.712890625 451.823242188 320.467773438 476.080078125 284.2890625 476.080078125 c 0
 251.741210938 476.080078125 213.829101562 456.741210938 185.349609375 426 c 1
 156.124023438 477 l 1xd0
324.634765625 253.997070312 m 1
 299.403320312 252.998046875 l 2xd0
 269.51171875 251.814453125 238.782226562 251.081054688 205.907226562 236.015625 c 0
 163.559570312 216.609375 137.80078125 181.169921875 130.157226562 148.059570312 c 0
 118.51171875 97.619140625 148.635742188 57.966796875 195.583007812 57.966796875 c 0
 226.995117188 57.966796875 263.130859375 76.255859375 284.403320312 111.79296875 c 0
 300.864257812 139.29296875 305.177734375 169.719726562 314.4765625 209.997070312 c 2
 324.634765625 253.997070312 l 1
411.563476562 322.998046875 m 1
 587.180664062 329.999023438 l 1xb0
 592.490234375 352.999023438 l 2
 598.004882812 376.885742188 603.1328125 401.017578125 598.358398438 424.943359375 c 0
 591.919921875 457.2109375 569.353515625 476.185546875 539.94921875 476.185546875 c 0
 511.372070312 476.185546875 481.543945312 458.052734375 458.833007812 432.774414062 c 0
 431.2421875 402.065429688 422.708007812 371.267578125 416.181640625 342.998046875 c 2
 411.563476562 322.998046875 l 1
EndSplineSet
Validated: 524321
EndChar

StartChar: ccedilla
Encoding: 231 231 167
Width: 600
GlyphClass: 2
Flags: W
HStem: -205.092 50.0811<219.838 355.87> -13.001 13.001<313 363> 469.074 70.9541<357.969 522.799>
LayerCount: 2
Fore
SplineSet
313 0 m 1
 363 0 l 1
 344.302734375 -55 l 1
 363.071289062 -56 l 2
 377.676757812 -56.7783203125 392.668945312 -57.716796875 405.889648438 -64.94140625 c 0
 425.505859375 -75.66015625 432.79296875 -96.4921875 427.606445312 -118.956054688 c 0
 418.049804688 -160.3515625 367.083984375 -205.091796875 282.040039062 -205.091796875 c 0
 237.521484375 -205.091796875 190.866210938 -192.447265625 154.599609375 -162 c 1
 194.680664062 -114 l 1
 224.301757812 -143.352539062 265.244140625 -155.010742188 300.27734375 -155.010742188 c 0
 345.331054688 -155.010742188 357.413085938 -136.826171875 359.7421875 -126.739257812 c 0
 361.317382812 -119.915039062 359.5625 -112.17578125 351.766601562 -106.611328125 c 0
 341.0546875 -98.9638671875 324.34375 -99 311.14453125 -99 c 2
 277.14453125 -99 l 1
 313 0 l 1
641.043945312 442 m 1
 566.114257812 373 l 1
 558.537109375 379.923828125 567.3515625 390.80859375 564.993164062 399.752929688 c 0
 563.357421875 405.959960938 534.458007812 469.07421875 444.07421875 469.07421875 c 0
 346.797851562 469.07421875 251.877929688 393.767578125 224.025390625 273.125976562 c 0
 195.46484375 149.419921875 254.139648438 62.978515625 357.295898438 62.978515625 c 0
 410.350585938 62.978515625 467.166015625 86.443359375 512.3203125 127 c 1
 547.391601562 71 l 1
 484.34375 16.5810546875 406.686523438 -13.0009765625 332.779296875 -13.0009765625 c 0
 183.046875 -13.0009765625 99.2158203125 104.891601562 136.06640625 264.508789062 c 0
 172.745117188 423.379882812 310.151367188 540.028320312 465.7265625 540.028320312 c 0
 550.85546875 540.028320312 613.465820312 503.102539062 641.043945312 442 c 1
EndSplineSet
Validated: 524325
EndChar

StartChar: egrave
Encoding: 232 232 168
Width: 600
GlyphClass: 2
Flags: W
HStem: -12.1426 67.584<259.366 431.207> 253 64<223.193 519.827> 478.169 64.1025<333.944 482.334>
LayerCount: 2
Fore
SplineSet
479.002929688 810 m 1
 394.690429688 761 l 1
 475.674804688 605 l 1
 541.755859375 640 l 1
 479.002929688 810 l 1
434.891601562 542.271484375 m 0
 521.6796875 542.271484375 609.84765625 496.220703125 601.08203125 354.1015625 c 0
 599.186523438 323.37109375 593.017578125 289.37109375 581.409179688 253 c 1
 205.708007812 253 l 1
 175.412109375 94.4853515625 268.930664062 55.44140625 339.752929688 55.44140625 c 0
 392.388671875 55.44140625 447.124023438 76.357421875 490.549804688 115 c 1
 526.161132812 70 l 1
 468.254882812 15.5068359375 393.241210938 -12.142578125 317.68359375 -12.142578125 c 0
 173.896484375 -12.142578125 85.2822265625 82.2265625 126.00390625 258.611328125 c 0
 170.618164062 451.856445312 308.455078125 542.271484375 434.891601562 542.271484375 c 0
223.193359375 317 m 1
 514.185546875 317 l 1
 543.944335938 402.838867188 500.07421875 478.168945312 414.27734375 478.168945312 c 0
 357.465820312 478.168945312 268.50390625 441.849609375 223.193359375 317 c 1
EndSplineSet
Validated: 524329
EndChar

StartChar: eacute
Encoding: 233 233 169
Width: 600
GlyphClass: 2
Flags: W
HStem: -12.1426 67.584<259.366 431.207> 253 64<223.193 519.827> 478.169 64.1025<333.944 482.334>
LayerCount: 2
Fore
SplineSet
535.002929688 810 m 1
 596.690429688 761 l 1
 443.674804688 605 l 1
 393.755859375 640 l 1
 535.002929688 810 l 1
434.891601562 542.271484375 m 0
 521.6796875 542.271484375 609.84765625 496.220703125 601.08203125 354.1015625 c 0
 599.186523438 323.37109375 593.017578125 289.37109375 581.409179688 253 c 1
 205.708007812 253 l 1
 175.412109375 94.4853515625 268.930664062 55.44140625 339.752929688 55.44140625 c 0
 392.388671875 55.44140625 447.124023438 76.357421875 490.549804688 115 c 1
 526.161132812 70 l 1
 468.254882812 15.5068359375 393.241210938 -12.142578125 317.68359375 -12.142578125 c 0
 173.896484375 -12.142578125 85.2822265625 82.2265625 126.00390625 258.611328125 c 0
 170.618164062 451.856445312 308.455078125 542.271484375 434.891601562 542.271484375 c 0
223.193359375 317 m 1
 514.185546875 317 l 1
 543.944335938 402.838867188 500.07421875 478.168945312 414.27734375 478.168945312 c 0
 357.465820312 478.168945312 268.50390625 441.849609375 223.193359375 317 c 1
EndSplineSet
Validated: 524321
EndChar

StartChar: ecircumflex
Encoding: 234 234 170
Width: 600
GlyphClass: 2
Flags: W
HStem: -12.1426 67.584<259.366 431.207> 253 64<223.193 519.827> 478.169 64.1025<333.944 482.334>
LayerCount: 2
Fore
SplineSet
310.677734375 631 m 1
 477.309570312 794 l 1
 502.309570312 794 l 1
 592.447265625 630 l 1
 529.211914062 590 l 1
 466.685546875 709 l 1
 345.443359375 591 l 1
 310.677734375 631 l 1
434.891601562 542.271484375 m 0
 521.6796875 542.271484375 609.84765625 496.220703125 601.08203125 354.1015625 c 0
 599.186523438 323.37109375 593.017578125 289.37109375 581.409179688 253 c 1
 205.708007812 253 l 1
 175.412109375 94.4853515625 268.930664062 55.44140625 339.752929688 55.44140625 c 0
 392.388671875 55.44140625 447.124023438 76.357421875 490.549804688 115 c 1
 526.161132812 70 l 1
 468.254882812 15.5068359375 393.241210938 -12.142578125 317.68359375 -12.142578125 c 0
 173.896484375 -12.142578125 85.2822265625 82.2265625 126.00390625 258.611328125 c 0
 170.618164062 451.856445312 308.455078125 542.271484375 434.891601562 542.271484375 c 0
223.193359375 317 m 1
 514.185546875 317 l 1
 543.944335938 402.838867188 500.07421875 478.168945312 414.27734375 478.168945312 c 0
 357.465820312 478.168945312 268.50390625 441.849609375 223.193359375 317 c 1
EndSplineSet
Validated: 524321
EndChar

StartChar: edieresis
Encoding: 235 235 171
Width: 600
GlyphClass: 2
Flags: W
HStem: -12.1426 67.584<259.366 431.207> 253 64<223.193 519.827> 478.169 64.1025<333.944 482.334> 652.981 117.037<328.379 401.148 535.134 607.402>
VStem: 306.243 117.038<674.289 748.71> 513.264 116.004<674.277 748.75>
LayerCount: 2
Fore
SplineSet
423.28125 711.498046875 m 0
 415.827148438 679.2109375 383.541992188 652.981445312 351.254882812 652.981445312 c 0
 318.96484375 652.981445312 298.7890625 679.208984375 306.243164062 711.499023438 c 0
 313.698242188 743.7890625 345.982421875 770.018554688 378.272460938 770.018554688 c 0
 410.5625 770.018554688 430.736328125 743.7890625 423.28125 711.498046875 c 0
629.267578125 711.51171875 m 0
 621.799804688 679.16796875 589.7109375 652.991210938 557.759765625 652.991210938 c 0
 525.815429688 652.991210938 505.79296875 679.155273438 513.263671875 711.513671875 c 0
 520.732421875 743.862304688 552.828125 770.03515625 584.784179688 770.03515625 c 0
 616.712890625 770.03515625 636.739257812 743.876953125 629.267578125 711.51171875 c 0
434.891601562 542.271484375 m 0
 521.6796875 542.271484375 609.84765625 496.220703125 601.08203125 354.1015625 c 0
 599.186523438 323.37109375 593.017578125 289.37109375 581.409179688 253 c 1
 205.708007812 253 l 1
 175.412109375 94.4853515625 268.930664062 55.44140625 339.752929688 55.44140625 c 0
 392.388671875 55.44140625 447.124023438 76.357421875 490.549804688 115 c 1
 526.161132812 70 l 1
 468.254882812 15.5068359375 393.241210938 -12.142578125 317.68359375 -12.142578125 c 0
 173.896484375 -12.142578125 85.2822265625 82.2265625 126.00390625 258.611328125 c 0
 170.618164062 451.856445312 308.455078125 542.271484375 434.891601562 542.271484375 c 0
223.193359375 317 m 1
 514.185546875 317 l 1
 543.944335938 402.838867188 500.07421875 478.168945312 414.27734375 478.168945312 c 0
 357.465820312 478.168945312 268.50390625 441.849609375 223.193359375 317 c 1
EndSplineSet
Validated: 524321
EndChar

StartChar: igrave
Encoding: 236 236 172
Width: 600
GlyphClass: 2
Flags: W
HStem: 0 67<141.468 276.468 360.468 469> 462 68<255.36 367.661>
LayerCount: 2
Fore
SplineSet
429.002929688 810 m 1
 344.690429688 761 l 1
 425.674804688 605 l 1
 491.755859375 640 l 1
 429.002929688 810 l 1
255.360351562 530 m 1
 467.360351562 530 l 1
 360.467773438 67 l 1
 484.467773438 67 l 1
 469 0 l 1
 126 0 l 1
 141.467773438 67 l 1
 276.467773438 67 l 1
 367.661132812 462 l 1
 239.661132812 462 l 1
 255.360351562 530 l 1
EndSplineSet
Validated: 524297
EndChar

StartChar: iacute
Encoding: 237 237 173
Width: 600
GlyphClass: 2
Flags: W
HStem: 0 67<141.468 276.468 360.468 469> 462 68<255.36 367.661>
LayerCount: 2
Fore
SplineSet
535.002929688 810 m 1
 596.690429688 761 l 1
 443.674804688 605 l 1
 393.755859375 640 l 1
 535.002929688 810 l 1
255.360351562 530 m 1
 467.360351562 530 l 1
 360.467773438 67 l 1
 484.467773438 67 l 1
 469 0 l 1
 126 0 l 1
 141.467773438 67 l 1
 276.467773438 67 l 1
 367.661132812 462 l 1
 239.661132812 462 l 1
 255.360351562 530 l 1
EndSplineSet
Validated: 524289
EndChar

StartChar: icircumflex
Encoding: 238 238 174
Width: 600
GlyphClass: 2
Flags: W
HStem: 0 67<141.468 276.468 360.468 469> 462 68<255.36 367.661>
LayerCount: 2
Fore
SplineSet
296.677734375 631 m 1
 463.309570312 794 l 1
 488.309570312 794 l 1
 578.447265625 630 l 1
 515.211914062 590 l 1
 452.685546875 709 l 1
 331.443359375 591 l 1
 296.677734375 631 l 1
255.360351562 530 m 1
 467.360351562 530 l 1
 360.467773438 67 l 1
 484.467773438 67 l 1
 469 0 l 1
 126 0 l 1
 141.467773438 67 l 1
 276.467773438 67 l 1
 367.661132812 462 l 1
 239.661132812 462 l 1
 255.360351562 530 l 1
EndSplineSet
Validated: 524289
EndChar

